<?xml version="1.0" encoding="utf-8"?>
<!-- Generator: Adobe Illustrator 23.0.2, SVG Export Plug-In . SVG Version: 6.00 Build 0)  -->
<svg version="1.1" id="Layer_1" xmlns="http://www.w3.org/2000/svg" xmlns:xlink="http://www.w3.org/1999/xlink" x="0px" y="0px"
	 viewBox="0 0 840.4 558" style="enable-background:new 0 0 840.4 558;" xml:space="preserve">
<style type="text/css">
	.st0{fill:#FFD164;}
	.st1{fill:#1E1E1E;}
	.st2{fill:#FFD164;stroke:#1E1E1E;stroke-width:2;stroke-miterlimit:10;}
</style>
<title>imagineArtboard 1</title>
<path class="st0" d="M379,8.2C217.9,13.5,13.9,104.8,0.7,240.5c-14.4,147.4,205,260,352.1,293.1c179.7,40.4,427.6,1.8,478.3-120
	c25.7-61.6-7.6-124.1-31-168C735.4,124.2,577,1.8,379,8.2z"/>
<path class="st1" d="M585.2,321.4c0,54.6-12.3,96.7-36.8,126.4c-24.5,29.7-59.1,44.5-103.7,44.4c-45,0-79.8-14.9-104.4-44.7
	c-24.6-29.8-36.9-71.8-36.9-126.1v-73.8c0-54.7,12.3-96.8,36.8-126.4s59.2-44.4,104-44.4s79.5,14.9,104.1,44.7
	c24.6,29.8,36.9,71.9,36.9,126.3V321.4z M491.6,235.6c0-29-3.7-50.8-11.3-65.1S460.6,149,444.2,149s-27.9,6.6-35.2,20
	s-11.2,33.5-11.8,60.5v103.3c0,30.2,3.8,52.3,11.4,66.2c7.6,14,19.6,21,36.1,21s27.7-6.8,35.3-20.4s11.5-34.9,11.6-64V235.6z"/>
<path class="st1" d="M763.9,328.7H805v72.2h-41.1v85.8h-93.6v-85.8H514l-5.6-57.3L670.3,83.2v-0.9h93.6L763.9,328.7z M597.6,328.7
	h72.7V204.2l-5.8,9.5L597.6,328.7z"/>
<path class="st2" d="M576.2,304.4c0,54.6-12.3,96.7-36.8,126.4c-24.5,29.7-59.1,44.5-103.7,44.4c-45,0-79.8-14.9-104.4-44.7
	c-24.6-29.8-36.9-71.8-36.9-126.1v-73.8c0-54.7,12.3-96.8,36.8-126.4s59.2-44.4,104-44.4s79.5,14.9,104.1,44.7
	c24.6,29.8,36.9,71.9,36.9,126.3V304.4z M482.6,218.6c0-29-3.7-50.8-11.3-65.1S451.6,132,435.2,132s-27.9,6.6-35.2,20
	s-11.2,33.5-11.8,60.5v103.3c0,30.2,3.8,52.3,11.4,66.2c7.6,14,19.6,21,36.1,21s27.7-6.8,35.3-20.4s11.5-34.9,11.6-64V218.6z"/>
<path class="st2" d="M754.9,311.7H796v72.2h-41.1v85.8h-93.6v-85.8H505l-5.6-57.3L661.3,66.2v-0.9h93.6L754.9,311.7z M588.6,311.7
	h72.7V187.2l-5.8,9.5L588.6,311.7z"/>
<path class="st1" d="M294.2,328.7h41.1v72.2h-41.1v85.8h-93.6v-85.8H44.2l-5.5-57.3L200.6,83.2v-0.9h93.6V328.7z M127.8,328.7h72.8
	V204.2l-5.8,9.5L127.8,328.7z"/>
<path class="st2" d="M285.2,311.7h41.1v72.2h-41.1v85.8h-93.6v-85.8H35.2l-5.5-57.3L191.6,66.2v-0.9h93.6V311.7z M118.8,311.7h72.8
	V187.2l-5.8,9.5L118.8,311.7z"/>
<path class="st1" d="M139.4,87c-20.4-0.1-36.9,16.4-37,36.8c0,0.1,0,0.1,0,0.2c0.1-20.4-16.4-36.9-36.8-37c-0.1,0-0.1,0-0.2,0
	c20.4,0.1,36.9-16.4,37-36.8c0-0.1,0-0.1,0-0.2C102.4,70.4,119,87,139.4,87z"/>
<path class="st1" d="M744.4,366c-20.4-0.1-36.9,16.4-37,36.8c0,0.1,0,0.1,0,0.2c0.1-20.4-16.4-36.9-36.8-37c-0.1,0-0.1,0-0.2,0
	c20.4,0.1,36.9-16.4,37-36.8c0-0.1,0-0.1,0-0.2C707.4,349.4,724,366,744.4,366L744.4,366z"/>
<path class="st1" d="M648.4,60c-33.1,0.1-59.9,26.9-60,60c-0.1-33.1-26.9-59.9-60-60c15.9,0.1,31.2-6.3,42.4-17.6
	c11.3-11.2,17.7-26.5,17.6-42.4C588.4,33.1,615.3,60,648.4,60z"/>
<path class="st1" d="M369.4,524c-18.8,0-34,15.2-34,34c-0.1-18.8-15.2-33.9-34-34c18.8-0.1,33.9-15.2,34-34
	C335.4,508.8,350.6,524,369.4,524z"/>
</svg>
