<svg id="Layer_1" data-name="Layer 1" xmlns="http://www.w3.org/2000/svg" viewBox="0 0 840.4 558"><defs><style>.cls-1,.cls-3{fill:#ffd164;}.cls-2{fill:#29abe2;}.cls-3{stroke:#29abe2;stroke-miterlimit:10;stroke-width:2px;}</style></defs><title>imagineArtboard 1</title><path class="cls-1" d="M379,8.2C217.9,13.5,13.9,104.8.7,240.5c-14.4,147.4,205,260,352.1,293.1,179.7,40.4,427.6,1.8,478.3-120,25.7-61.6-7.6-124.1-31-168C735.4,124.2,577,1.8,379,8.2Z"/><path class="cls-2" d="M585.2,321.4q0,81.9-36.8,126.4T444.7,492.2q-67.5,0-104.4-44.7T303.4,321.4V247.6q0-82,36.8-126.4t104-44.4q67.2,0,104.1,44.7t36.9,126.3Zm-93.6-85.8c0-29-3.7-50.8-11.3-65.1S460.6,149,444.2,149s-27.9,6.6-35.2,20-11.2,33.5-11.8,60.5V332.8q0,45.3,11.4,66.2c7.6,14,19.6,21,36.1,21s27.7-6.8,35.3-20.4,11.5-34.9,11.6-64Z"/><path class="cls-2" d="M763.9,328.7H805v72.2H763.9v85.8H670.3V400.9H514l-5.6-57.3L670.3,83.2v-.9h93.6Zm-166.3,0h72.7V204.2l-5.8,9.5Z"/><path class="cls-3" d="M576.2,304.4q0,81.9-36.8,126.4T435.7,475.2q-67.5,0-104.4-44.7T294.4,304.4V230.6q0-82,36.8-126.4t104-44.4q67.2,0,104.1,44.7t36.9,126.3Zm-93.6-85.8c0-29-3.7-50.8-11.3-65.1S451.6,132,435.2,132s-27.9,6.6-35.2,20-11.2,33.5-11.8,60.5V315.8q0,45.3,11.4,66.2c7.6,14,19.6,21,36.1,21s27.7-6.8,35.3-20.4,11.5-34.9,11.6-64Z"/><path class="cls-3" d="M754.9,311.7H796v72.2H754.9v85.8H661.3V383.9H505l-5.6-57.3L661.3,66.2v-.9h93.6Zm-166.3,0h72.7V187.2l-5.8,9.5Z"/><path class="cls-2" d="M294.2,328.7h41.1v72.2H294.2v85.8H200.6V400.9H44.2l-5.5-57.3L200.6,83.2v-.9h93.6Zm-166.4,0h72.8V204.2l-5.8,9.5Z"/><path class="cls-3" d="M285.2,311.7h41.1v72.2H285.2v85.8H191.6V383.9H35.2l-5.5-57.3L191.6,66.2v-.9h93.6Zm-166.4,0h72.8V187.2l-5.8,9.5Z"/><path class="cls-2" d="M139.4,87a36.9,36.9,0,0,0-37,37,36.9,36.9,0,0,0-37-37,36.9,36.9,0,0,0,37-37A37,37,0,0,0,139.4,87Z"/><path class="cls-2" d="M744.4,366a36.9,36.9,0,0,0-37,37,36.9,36.9,0,0,0-37-37,36.9,36.9,0,0,0,37-37A37,37,0,0,0,744.4,366Z"/><path class="cls-2" d="M648.4,60a60.1,60.1,0,0,0-60,60,60.1,60.1,0,0,0-60-60,59.4,59.4,0,0,0,42.4-17.6A59.4,59.4,0,0,0,588.4,0,60,60,0,0,0,648.4,60Z"/><path class="cls-2" d="M369.4,524a34,34,0,0,0-34,34,34.1,34.1,0,0,0-34-34,34.1,34.1,0,0,0,34-34A34,34,0,0,0,369.4,524Z"/></svg>