<?xml version="1.0" encoding="utf-8"?>
<!-- Generator: Adobe Illustrator 23.0.2, SVG Export Plug-In . SVG Version: 6.00 Build 0)  -->
<svg version="1.1" id="Layer_1" xmlns="http://www.w3.org/2000/svg" xmlns:xlink="http://www.w3.org/1999/xlink" x="0px" y="0px"
	 viewBox="0 0 61.7 39.3" style="enable-background:new 0 0 61.7 39.3;" xml:space="preserve">
<style type="text/css">
	.st0{fill:#FFD164;}
	.st1{fill:#FFFFFF;stroke:#6394FF;stroke-miterlimit:10;}
	.st2{fill:#6394FF;}
</style>
<path class="st0" d="M41.6,32.3H1.9c-1,0-1.8-0.8-1.8-1.8V7.8c0-1,0.8-1.8,1.8-1.8h39.8c1,0,1.8,0.8,1.8,1.8v22.7
	C43.4,31.5,42.6,32.3,41.6,32.3z"/>
<path class="st1" d="M43.9,34.4H4.2c-1,0-1.8-0.8-1.8-1.8V9.9c0-1,0.8-1.8,1.8-1.8H44c1,0,1.8,0.8,1.8,1.8v22.7
	C45.7,33.6,44.9,34.4,43.9,34.4z"/>
<path class="st2" d="M11,22.8H7c-0.4,0-0.9-0.4-0.9-0.9v-3.6c0-0.4,0.4-0.9,0.9-0.9h4c0.5,0,0.9,0.4,0.9,0.9v3.6
	C11.9,22.4,11.5,22.8,11,22.8z"/>
<path class="st2" d="M6.1,25.3V26c0,0.5,0.4,0.9,0.9,0.9h34c0.4,0,0.9-0.4,0.9-0.9v-0.7c0-0.5-0.4-0.9-0.9-0.9H7
	C6.6,24.3,6.1,24.7,6.1,25.3z"/>
<path class="st0" d="M6.1,29.6v0.7c0,0.5,0.2,0.9,0.4,0.9h6.2c0.2,0,0.4-0.4,0.4-0.9v-0.7c0-0.5-0.2-0.9-0.4-0.9H6.5
	C6.3,28.6,6.1,29.1,6.1,29.6z"/>
<path class="st2" d="M13.8,29.6v0.7c0,0.5,0.2,0.9,0.4,0.9h8.3c0.3,0,0.4-0.4,0.4-0.9v-0.7c0-0.5-0.2-0.9-0.4-0.9h-8.3
	C13.9,28.6,13.8,29.1,13.8,29.6z"/>
<path class="st2" d="M32.7,29.6v0.7c0,0.5,0.2,0.9,0.4,0.9h8.3c0.3,0,0.4-0.4,0.4-0.9v-0.7c0-0.5-0.2-0.9-0.4-0.9h-8.3
	C32.9,28.6,32.7,29.1,32.7,29.6z"/>
<g>
	<path class="st0" d="M31.3,11.9c0,0.2-0.2,0.4-0.4,0.4h-1.2v0.5h0.4c0.3,0,0.5,0.1,0.7,0.2c0.2,0.1,0.4,0.3,0.5,0.4
		c0.1,0.2,0.2,0.4,0.2,0.6c0,0.4-0.1,0.6-0.4,0.9c-0.3,0.2-0.6,0.4-1.1,0.4h-1c-0.2,0-0.4-0.2-0.4-0.4v-2.9c0-0.2,0.2-0.4,0.4-0.4
		H31C31.2,11.5,31.3,11.7,31.3,11.9L31.3,11.9z M29.7,13.4v1.1h0.4c0.2,0,0.4-0.1,0.4-0.2s0.2-0.3,0.2-0.4c0-0.2-0.1-0.3-0.2-0.4
		c-0.1-0.1-0.3-0.2-0.4-0.2C30.2,13.4,29.7,13.4,29.7,13.4z"/>
	<path class="st0" d="M33.9,14.4h-0.8c-0.1,0-0.3,0.1-0.3,0.2l-0.1,0.3c0,0.1-0.2,0.2-0.3,0.2h-0.3c-0.2,0-0.4-0.2-0.3-0.4l1.1-3
		c0-0.1,0.2-0.2,0.3-0.2h0.4c0.1,0,0.3,0.1,0.3,0.2l1.2,3c0.1,0.2-0.1,0.4-0.3,0.4h-0.4c-0.1,0-0.3-0.1-0.3-0.2l-0.1-0.3
		C34.1,14.5,34,14.4,33.9,14.4z M33.5,13.7L33.5,13.7c0.2,0,0.4-0.2,0.3-0.4l-0.3-0.9l-0.3,0.9C33.2,13.5,33.3,13.7,33.5,13.7z"/>
	<path class="st0" d="M38.2,15.1h-0.3c-0.2,0-0.3-0.1-0.3-0.3v-0.9c0-0.2-0.1-0.3-0.3-0.3h-0.7c-0.2,0-0.3,0.1-0.3,0.3v0.9
		c0,0.2-0.1,0.3-0.3,0.3h-0.3c-0.2,0-0.3-0.1-0.3-0.3v-3c0-0.2,0.1-0.3,0.3-0.3h0.3c0.2,0,0.3,0.1,0.3,0.3v0.9
		c0,0.2,0.1,0.3,0.3,0.3h0.7c0.2,0,0.3-0.1,0.3-0.3v-0.9c0-0.2,0.1-0.3,0.3-0.3h0.3c0.2,0,0.3,0.1,0.3,0.3v3
		C38.4,15,38.4,15.1,38.2,15.1z"/>
	<path class="st0" d="M40.3,13.6h-0.4v1.2c0,0.2-0.1,0.3-0.3,0.3h-0.3c-0.2,0-0.3-0.1-0.3-0.3v-3c0-0.2,0.1-0.3,0.3-0.3h0.3
		c0.2,0,0.3,0.1,0.3,0.3v1.1h0.4l0.6-1.2c0.1-0.1,0.2-0.2,0.3-0.2h0.4c0.2,0,0.4,0.3,0.3,0.4l-0.6,1.1c-0.1,0.1-0.1,0.2,0,0.3
		l0.8,1.3c0.1,0.2,0,0.4-0.3,0.4h-0.4c-0.1,0-0.2-0.1-0.3-0.2L40.3,13.6z"/>
</g>
<g>
	<path class="st2" d="M40.4,18.6c-0.1-0.1-0.3-0.1-0.4,0s-0.1,0.3,0,0.4c0.6,0.6,0.6,1.7,0,2.3c-0.1,0.1-0.1,0.1-0.1,0.2
		c0,0.1,0,0.1,0.1,0.2c0.1,0.1,0.3,0.1,0.4,0C41.3,20.7,41.3,19.4,40.4,18.6z"/>
	<path class="st2" d="M39.8,19.2c-0.1-0.1-0.3-0.1-0.4,0c-0.1,0.1-0.1,0.3,0,0.4c0.3,0.3,0.3,0.8,0,1.1c-0.1,0.1-0.1,0.1-0.1,0.2
		s0,0.1,0.1,0.2c0.1,0.1,0.3,0.1,0.4,0C40.2,20.5,40.2,19.7,39.8,19.2z"/>
	<path class="st2" d="M41.1,22.2c1.2-1.2,1.2-3.2,0-4.3c-0.1-0.1-0.3-0.1-0.4,0s-0.1,0.3,0,0.4c1,1,1,2.7,0,3.6
		c-0.1,0.1-0.1,0.1-0.1,0.2c0,0.1,0,0.1,0.1,0.2C40.8,22.3,41,22.3,41.1,22.2z"/>
</g>
</svg>
