<?xml version="1.0" encoding="utf-8"?>
<!-- Generator: Adobe Illustrator 23.0.2, SVG Export Plug-In . SVG Version: 6.00 Build 0)  -->
<svg version="1.1" id="Layer_1" xmlns="http://www.w3.org/2000/svg" xmlns:xlink="http://www.w3.org/1999/xlink" x="0px" y="0px"
	 viewBox="0 0 61.7 39.3" style="enable-background:new 0 0 61.7 39.3;" xml:space="preserve">
<style type="text/css">
	.st0{fill:#FFD164;}
	.st1{fill:#6394FF;}
	.st2{fill:none;stroke:#6394FF;stroke-miterlimit:10;}
</style>
<g>
	<polygon class="st0" points="12.7,7.7 12.2,10.8 29.8,10.8 29.8,8.5 	"/>
	<path class="st1" d="M4,10.8C4,9.8,4.8,9,5.8,9s1.8,0.8,1.8,1.8"/>
	<rect x="9.8" y="11.1" class="st0" width="22.7" height="22.5"/>
	<path class="st2" d="M41.5,33.7H1.6c-0.5,0-0.9-0.4-0.9-0.9V11.7c0-0.5,0.4-0.9,0.9-0.9h39.8c0.5,0,0.9,0.4,0.9,0.9v21.1
		C42.3,33.2,41.9,33.7,41.5,33.7z"/>
	<path class="st2" d="M42.3,31.7"/>
	<path class="st2" d="M42.3,31.6c0.2-0.2,0.2-0.3,0.2-0.6l1-21c0-0.5-0.3-0.9-0.9-1L3,7.2c-0.5,0-0.9,0.3-1,0.9l-0.2,2.7"/>
	<g>
		<path class="st1" d="M30.1,31.3h-3c-0.3,0-0.5-0.2-0.5-0.5v-0.2c0-0.2,0.1-0.2,0.2-0.3l1.7-1.8c0.5-0.5,0.7-1,0.7-1.2
			c0-0.2-0.1-0.4-0.2-0.6c-0.1-0.2-0.2-0.2-0.5-0.2s-0.4,0.1-0.5,0.2C28,27,28,27.1,28,27.2c-0.1,0.2-0.3,0.3-0.5,0.3h-0.2
			c-0.3,0-0.6-0.3-0.5-0.7c0-0.1,0.1-0.2,0.2-0.3c0.2-0.3,0.4-0.6,0.7-0.7c0.3-0.2,0.6-0.2,1-0.2c0.6,0,1.1,0.2,1.4,0.4
			c0.3,0.3,0.5,0.7,0.5,1.2c0,0.2-0.1,0.5-0.2,0.6c-0.1,0.2-0.2,0.4-0.4,0.6s-0.5,0.6-0.9,1l0,0l-0.7,0.9h1.8c0.3,0,0.5,0.2,0.5,0.5
			l0,0C30.6,31.1,30.4,31.3,30.1,31.3z"/>
		<path class="st1" d="M35.3,29c0,0.8-0.2,1.4-0.6,1.8c-0.4,0.4-0.9,0.6-1.4,0.6c-0.6,0-1.1-0.2-1.5-0.6c-0.3-0.4-0.6-1-0.6-1.8v-1
			c0-0.8,0.2-1.4,0.6-1.8c0.3-0.4,0.9-0.6,1.4-0.6s1.1,0.2,1.5,0.6c0.4,0.4,0.6,1,0.6,1.8V29z M34,27.7c0-0.4-0.1-0.7-0.2-1
			c-0.1-0.2-0.2-0.3-0.5-0.3c-0.2,0-0.4,0.1-0.5,0.3c-0.1,0.2-0.2,0.5-0.2,0.9v1.4c0,0.4,0.1,0.7,0.2,1c0.1,0.2,0.2,0.3,0.5,0.3
			c0.2,0,0.4-0.1,0.5-0.3c0.1-0.2,0.2-0.5,0.2-0.9V27.7z"/>
		<path class="st1" d="M40,29c0,0.8-0.2,1.4-0.6,1.8c-0.3,0.4-0.9,0.6-1.4,0.6c-0.6,0-1.1-0.2-1.5-0.6c-0.4-0.4-0.6-1-0.6-1.8v-1
			c0-0.8,0.2-1.4,0.6-1.8c0.4-0.4,0.9-0.6,1.4-0.6s1.1,0.2,1.5,0.6c0.4,0.4,0.6,1,0.6,1.8V29z M38.6,27.7c0-0.4-0.1-0.7-0.2-1
			c-0.1-0.2-0.2-0.3-0.5-0.3s-0.4,0.1-0.5,0.3c-0.1,0.2-0.2,0.5-0.2,0.9v1.4c0,0.4,0.1,0.7,0.2,1c0.1,0.2,0.2,0.3,0.5,0.3
			s0.4-0.1,0.5-0.3c0.1-0.2,0.2-0.5,0.2-0.9V27.7z"/>
	</g>
	<circle class="st1" cx="5.6" cy="15.6" r="2.2"/>
	<rect x="3.4" y="20.8" class="st1" width="10.9" height="1"/>
</g>
</svg>
