<?xml version="1.0" encoding="utf-8"?>
<!-- Generator: Adobe Illustrator 23.0.2, SVG Export Plug-In . SVG Version: 6.00 Build 0)  -->
<svg version="1.1" id="Layer_1" xmlns="http://www.w3.org/2000/svg" xmlns:xlink="http://www.w3.org/1999/xlink" x="0px" y="0px"
	 viewBox="0 0 51 51" style="enable-background:new 0 0 51 51;" xml:space="preserve">
<style type="text/css">
	.st0{fill:#FFFFFF;}
</style>
<path class="st0" d="M25.5,0C11.4,0,0,11.4,0,25.5S11.4,51,25.5,51S51,39.6,51,25.5S39.6,0,25.5,0z M23.7,36.1l-10-10
	c-0.4-0.4-0.4-1,0-1.4l0.7-0.7c0.4-0.4,1-0.4,1.4,0l7.5,7.5c0.4,0.4,1.2,0.4,1.5-0.1l10.3-15c0.3-0.5,0.9-0.6,1.4-0.3l0.8,0.6
	c0.5,0.3,0.6,0.9,0.3,1.4L25.2,36C24.9,36.5,24.2,36.6,23.7,36.1z"/>
</svg>
