<?xml version="1.0" encoding="utf-8"?>
<!-- Generator: Adobe Illustrator 23.0.2, SVG Export Plug-In . SVG Version: 6.00 Build 0)  -->
<svg version="1.1" id="Layer_1" xmlns="http://www.w3.org/2000/svg" xmlns:xlink="http://www.w3.org/1999/xlink" x="0px" y="0px"
	 viewBox="0 0 203 165.5" style="enable-background:new 0 0 203 165.5;" xml:space="preserve">
<style type="text/css">
	.st0{fill:#224FB3;}
	.st1{fill:#6394FF;}
	.st2{fill:none;stroke:#6394FF;stroke-miterlimit:10;}
	.st3{fill:#FFD164;}
</style>
<g>
	<path class="st0" d="M106.3,52.5h-9.6c-4.4,0-8-3.6-8-8v-8.2c0-4.4,3.6-8,8-8h9.6c4.4,0,8,3.6,8,8v8.2
		C114.3,48.9,110.7,52.5,106.3,52.5z"/>
	<path class="st1" d="M106.6,41.7H96.4c-1.1,0-2-0.9-2-2v-4.9c0-1.1,0.9-2,2-2h10.2c1.1,0,2,0.9,2,2v4.9
		C108.6,40.8,107.7,41.7,106.6,41.7z"/>
	<path class="st0" d="M52,53.1L52,53.1c-3.9,0-7.1-3.2-7.1-7.1v0c0-3.9,3.2-7.1,7.1-7.1h0c3.9,0,7.1,3.2,7.1,7.1v0
		C59.1,49.9,55.9,53.1,52,53.1z"/>
	<path class="st1" d="M160,137.2H43c-4.4,0-8-3.6-8-8V53.1c0-4.4,3.6-8,8-8H160c4.4,0,8,3.6,8,8v76.2
		C168,133.6,164.5,137.2,160,137.2z"/>
	<circle class="st0" cx="99.4" cy="91.7" r="37.6"/>
	<circle class="st2" cx="99.4" cy="91.7" r="32.1"/>
	<circle class="st3" cx="99.4" cy="91.7" r="26.6"/>
	<path class="st3" d="M156.4,62.6h-10.2c-1.1,0-2-0.9-2-2v-4.9c0-1.1,0.9-2,2-2h10.2c1.1,0,2,0.9,2,2v4.9
		C158.4,61.7,157.5,62.6,156.4,62.6z"/>
</g>
</svg>
