<?xml version="1.0" encoding="utf-8"?>
<!-- Generator: Adobe Illustrator 23.0.2, SVG Export Plug-In . SVG Version: 6.00 Build 0)  -->
<svg version="1.1" id="Layer_1" xmlns="http://www.w3.org/2000/svg" xmlns:xlink="http://www.w3.org/1999/xlink" x="0px" y="0px"
	 viewBox="0 0 40.5 40.5" style="enable-background:new 0 0 40.5 40.5;" xml:space="preserve" width="64px">
<style type="text/css">
	.st0{fill:#FFFFFF;}
	.st1{fill:#6394FF;}
	.st2{fill:#FFD164;}
	.st3{fill:none;stroke:#353535;stroke-miterlimit:10;}
</style>
<polygon class="st0" points="19.1,4.9 23.2,6.7 29.7,2 36.1,12 36.1,12.8 36.1,33.9 23.2,39.8 3.8,32.9 3.8,12.8 8.3,10.6 4.8,7.3 
	15.1,1 "/>
<g>
	<polygon class="st1" points="19.4,9 6.7,14.4 6.7,32.8 23.7,38.5 34.2,32.6 34.2,14.4 	"/>
	<polygon class="st2" points="10.7,12.4 14.7,14.2 11.6,16.8 11.3,34.2 15.2,35.8 15.2,18.2 19.9,16.2 26.3,18 27.6,35.4 29.9,33.6 
		29.5,16.1 22.5,13.6 27.1,12.2 22.1,10.7 19.2,13.1 14.2,10.8 	"/>
	<polygon class="st3" points="5.7,13.5 5.7,31.4 22.4,36.7 32.4,31 32.4,13.1 18.4,7.8 	"/>
	<polyline class="st3" points="32.4,13.1 21.6,19.7 5.7,13.5 	"/>
	<line class="st3" x1="22.4" y1="36.7" x2="21.6" y2="19.7"/>
	<polygon class="st3" points="15.1,34.3 15.1,17.1 11.2,15.6 11.2,33.1 	"/>
	<polygon class="st3" points="26.2,16.9 27.3,33.9 29.7,32.5 29.4,15 	"/>
	<polyline class="st3" points="14.3,9.6 19.1,11.4 22.4,9.3 27,11.1 22.4,12.5 29.4,15 26.2,16.9 20,15 15.1,17.1 11.2,15.6 
		16.1,13.1 11.2,11 	"/>
	<path class="st2" d="M8,6.8c0.3,0,6.7-4.8,6.7-4.8l3.7,7.6l-1.6,1.9L8,6.8z"/>
	<path class="st2" d="M22,10.7c0.1-0.1,8.8-5.8,8.8-5.8l4,7.2l-12.1,0.7L22,10.7z"/>
	<polygon class="st3" points="18.1,10.6 14.6,4 8.3,7.8 16.8,12 	"/>
	<polygon class="st3" points="21,11 21.6,12.8 33.3,11.6 29.7,4.9 	"/>
	<ellipse class="st2" cx="19.3" cy="12.4" rx="2.5" ry="1.9"/>
	<ellipse class="st3" cx="19.3" cy="12.5" rx="2.5" ry="1.9"/>
	<path class="st3" d="M11.2,11.3"/>
</g>
</svg>
