<?xml version="1.0" encoding="utf-8"?>
<!-- Generator: Adobe Illustrator 23.0.2, SVG Export Plug-In . SVG Version: 6.00 Build 0)  -->
<svg version="1.1" id="Layer_1" xmlns="http://www.w3.org/2000/svg" xmlns:xlink="http://www.w3.org/1999/xlink" x="0px" y="0px"
	 viewBox="0 0 61.7 39.3" style="enable-background:new 0 0 61.7 39.3;" xml:space="preserve">
<style type="text/css">
	.st0{fill:#598AE2;}
	.st1{fill:#FFD164;}
	.st2{fill:#6394FF;}
	.st3{fill:#8DB6FF;}
	.st4{fill:#FFFFFF;}
	.st5{fill:#FFFFFF;stroke:#6394FF;stroke-width:0.5;stroke-miterlimit:10;}
	.st6{fill:#80AEFF;}
	.st7{fill:none;stroke:#598AE2;stroke-width:0.1;stroke-miterlimit:10;}
</style>
<path class="st0" d="M40.2,17.2l0.4,0.9c0.1,0.2,0.4,0.4,0.6,0.5l8.3,1.5c0.5,0.1,0.9-0.3,1-0.8l2.4-14.3c0.1-0.4-0.1-0.8-0.4-1
	l-0.3-0.2c-0.3-0.2-0.8-0.2-1,0.2L40.3,16.1C40.1,16.4,40,16.9,40.2,17.2z"/>
<path class="st1" d="M30.5,35.4H2.7c-1.1,0-2-0.9-2-2l0-29.2c0-1.1,0.9-2,2-2h27.9c1.1,0,2,0.9,2,2l0,29.2
	C32.5,34.5,31.6,35.4,30.5,35.4z"/>
<circle class="st1" cx="-16.2" cy="7" r="7.3"/>
<polygon class="st2" points="5.5,6.4 5.5,24.4 29.5,34.4 50.1,25.5 30.5,20.4 30.5,6.4 "/>
<polygon class="st3" points="36.7,25.5 30.7,27 35.8,29.5 41.1,27.3 "/>
<polygon class="st4" points="6.5,7.4 6.5,23.4 29.5,20.4 29.5,7.5 "/>
<g>
	<path class="st1" d="M19.3,18.1h-1.8v1.1h-1.7v-1.1h-1.2v-1.4h1.2v-0.4h-1.2v-1.4h1.2v-4H19c0.6,0,1.2,0.1,1.7,0.3s0.8,0.5,1.1,1
		c0.3,0.4,0.4,0.9,0.4,1.4c0,0.8-0.3,1.5-0.8,2C20.7,16,20,16.2,19,16.2h-1.5v0.4h1.8V18.1z M17.5,14.8h1.5c1,0,1.4-0.4,1.4-1.3
		c0-0.4-0.1-0.7-0.4-1c-0.2-0.2-0.6-0.4-1-0.4h-1.5V14.8z"/>
</g>
<path class="st5" d="M48.5,19l-7.6-1.3c-0.5-0.1-0.9-0.6-0.8-1.2l2.4-13.7c0.1-0.5,0.6-0.9,1.2-0.8l7.6,1.3c0.5,0.1,0.9,0.6,0.8,1.2
	l-2.4,13.7C49.6,18.7,49,19.1,48.5,19z"/>
<g>
	<circle class="st1" cx="46.6" cy="8.1" r="3.1"/>
	<g>
		<path class="st4" d="M47,9.5l-0.8-0.1l-0.1,0.5l-0.7-0.1l0.1-0.5l-0.5-0.1l0.1-0.6l0.5,0.1l0-0.2l-0.5-0.1l0.1-0.6l0.5,0.1
			l0.3-1.7l1.4,0.2c0.3,0,0.5,0.1,0.7,0.3c0.2,0.1,0.3,0.3,0.4,0.5c0.1,0.2,0.1,0.4,0.1,0.6c-0.1,0.3-0.2,0.6-0.5,0.8
			c-0.3,0.2-0.6,0.2-1,0.1l-0.6-0.1l0,0.2l0.8,0.1L47,9.5z M46.5,8l0.6,0.1c0.4,0.1,0.6-0.1,0.7-0.4c0-0.2,0-0.3-0.1-0.4
			c-0.1-0.1-0.2-0.2-0.4-0.2l-0.6-0.1L46.5,8z"/>
	</g>
</g>
<g>
	<path class="st1" d="M47.9,14.6l-4.6-0.8c-0.4-0.1-0.7-0.5-0.6-0.9l0.1-0.8c0.1-0.4,0.5-0.7,0.9-0.6l4.6,0.8
		c0.4,0.1,0.7,0.5,0.6,0.9L48.7,14C48.7,14.4,48.3,14.7,47.9,14.6z"/>
	<g>
		<path class="st4" d="M43.9,12.8c0,0.1,0,0.1-0.1,0.2s-0.1,0.1-0.1,0.1s-0.1,0-0.2,0c-0.1,0-0.1,0-0.2-0.1c0,0-0.1-0.1-0.1-0.2
			c0-0.1,0-0.1,0-0.2l0,0c0-0.1,0-0.1,0.1-0.2s0.1-0.1,0.1-0.1s0.1,0,0.2,0c0.1,0,0.1,0,0.2,0.1c0,0,0.1,0.1,0.1,0.2
			C43.9,12.6,43.9,12.6,43.9,12.8L43.9,12.8z M43.7,12.7c0-0.1,0-0.2,0-0.2c0-0.1-0.1-0.1-0.1-0.1c-0.1,0-0.1,0-0.1,0
			c0,0-0.1,0.1-0.1,0.2l0,0c0,0.1,0,0.2,0,0.2c0,0.1,0.1,0.1,0.1,0.1c0.1,0,0.1,0,0.1,0C43.7,12.9,43.7,12.8,43.7,12.7L43.7,12.7z"
			/>
		<path class="st4" d="M44.4,13.2L44.4,13.2C44.4,13.2,44.3,13.2,44.4,13.2l0-0.4c0,0,0-0.1-0.1-0.1l-0.1,0c0,0-0.1,0-0.1,0.1
			l-0.1,0.3c0,0,0,0.1-0.1,0.1l0,0c0,0-0.1,0-0.1-0.1l0.1-0.5c0,0,0-0.1,0.1-0.1l0.4,0.1c0,0,0.1,0,0.1,0.1L44.4,13.2
			C44.5,13.2,44.4,13.3,44.4,13.2z"/>
		<path class="st4" d="M45.2,12.8l-0.1,0.5c0,0,0,0.1-0.1,0.1l0,0c0,0-0.1,0-0.1-0.1l0.1-0.3c0,0,0-0.1-0.1-0.1l0,0
			c0,0-0.1,0-0.1,0.1l0,0.1c0,0.1-0.1,0.2-0.1,0.2c0,0-0.1,0.1-0.2,0l-0.1,0l0-0.1l0,0c0,0,0.1,0,0.1,0c0,0,0-0.1,0.1-0.2l0-0.2
			c0,0,0-0.1,0.1-0.1L45.2,12.8C45.2,12.8,45.2,12.8,45.2,12.8z"/>
		<path class="st4" d="M45.6,13.5C45.6,13.4,45.6,13.4,45.6,13.5c-0.1,0-0.1,0-0.2,0c-0.1,0-0.1,0-0.1-0.1c0,0,0-0.1,0-0.1
			c0-0.1,0-0.1,0.1-0.1c0.1,0,0.1,0,0.2,0l0.1,0l0,0c0,0,0-0.1,0-0.1c0,0,0,0-0.1,0c0,0-0.1,0-0.1,0c0,0,0,0,0,0l-0.2,0
			c0,0,0-0.1,0-0.1c0,0,0.1,0,0.1-0.1s0.1,0,0.1,0c0.1,0,0.1,0,0.2,0.1c0,0,0.1,0.1,0,0.2l0,0.3c0,0.1,0,0.1,0,0.1l0,0L45.6,13.5z
			 M45.5,13.3C45.5,13.3,45.5,13.3,45.5,13.3c0.1,0,0.1,0,0.1,0l0-0.1l-0.1,0C45.5,13.2,45.5,13.2,45.5,13.3L45.5,13.3
			C45.4,13.3,45.4,13.3,45.5,13.3C45.5,13.3,45.5,13.3,45.5,13.3z"/>
		<path class="st4" d="M46.5,13.1l-0.1,0c0,0-0.1,0-0.1,0.1l-0.1,0.3c0,0,0,0.1-0.1,0.1l0,0c0,0-0.1,0-0.1-0.1l0.1-0.3
			c0,0,0-0.1-0.1-0.1l-0.1,0l0-0.1l0.6,0.1L46.5,13.1z"/>
		<path class="st4" d="M47,13.1L47,13.1c0.1,0,0.1,0.1,0.1,0.1L47,13.6c0,0,0,0.1-0.1,0.1l0,0c0,0-0.1,0-0.1-0.1l0.1-0.3l-0.2,0.3
			c0,0,0,0-0.1,0l0,0c0,0-0.1,0-0.1-0.1l0.1-0.5c0,0,0-0.1,0.1-0.1l0,0c0,0,0.1,0,0.1,0.1l-0.1,0.3L47,13.1
			C46.9,13.1,47,13.1,47,13.1z"/>
		<path class="st4" d="M47.7,13.3l-0.1,0c0,0-0.1,0-0.1,0.1l-0.1,0.3c0,0,0,0.1-0.1,0.1l0,0c0,0-0.1,0-0.1-0.1l0.1-0.3
			c0,0,0-0.1-0.1-0.1l-0.1,0l0-0.1l0.6,0.1L47.7,13.3z"/>
		<path class="st4" d="M48,13.4l0.1,0c0.1,0,0.1,0,0.1,0.1s0.1,0.1,0.1,0.1s0,0.1,0,0.1c0,0.1,0,0.1-0.1,0.1s-0.1,0-0.2,0l-0.2,0
			c0,0-0.1,0-0.1-0.1l0.1-0.5c0,0,0-0.1,0.1-0.1l0,0c0,0,0.1,0,0.1,0.1L48,13.4z M47.9,13.6l0,0.2l0.1,0c0,0,0.1,0,0.1,0s0,0,0-0.1
			c0,0,0,0,0-0.1c0,0,0,0-0.1,0L47.9,13.6z"/>
	</g>
</g>
<circle class="st2" cx="45.2" cy="16.8" r="0.6"/>
<polygon class="st0" points="5.5,24.4 29.5,34.4 29.5,33.4 6.4,23.6 "/>
<polygon class="st6" points="29.5,33.4 29.5,34.4 50.1,26.4 50.1,25.5 "/>
<polygon class="st0" points="5.5,6.4 6.1,6.4 6.4,23.6 5.5,24.4 "/>
<line class="st7" x1="6.4" y1="23.6" x2="30.5" y2="20.4"/>
<polygon class="st3" points="29.9,21.1 10.5,24.2 21.2,28.3 39.3,23.5 "/>
<path class="st2" d="M50.1,4.3l-5.5-1c-0.1,0-0.2-0.1-0.2-0.3l0.1-0.7l5.9,1l-0.1,0.7C50.4,4.2,50.2,4.3,50.1,4.3z"/>
</svg>
