<?xml version="1.0" encoding="utf-8"?>
<!-- Generator: Adobe Illustrator 23.0.2, SVG Export Plug-In . SVG Version: 6.00 Build 0)  -->
<svg version="1.1" id="Layer_1" xmlns="http://www.w3.org/2000/svg" xmlns:xlink="http://www.w3.org/1999/xlink" x="0px" y="0px"
	 viewBox="0 0 30.6 28.7" style="enable-background:new 0 0 30.6 28.7;" xml:space="preserve">
<style type="text/css">
	.st0{fill:#FFFFFF;}
	.st1{fill:none;}
	.st2{fill:#6394FF;}
</style>
<rect x="2" y="19.5" class="st0" width="14.1" height="7.9"/>
<path class="st1" d="M1.1,4.7h24v24h-24V4.7z"/>
<path class="st2" d="M18,26.5v-14c0-1.1-0.9-2-2-2H2c-1.1,0-2,0.9-2,2v14c0,1.1,0.9,2,2,2h14C17.1,28.5,18,27.6,18,26.5z M5.9,21.5
	L8,24l3.1-4c0.2-0.3,0.6-0.3,0.8,0l3.5,4.7c0.3,0.3,0,0.8-0.4,0.8H3c-0.4,0-0.7-0.5-0.4-0.8l2.5-3.2C5.3,21.2,5.7,21.2,5.9,21.5z"/>
<rect x="14.9" y="8.8" class="st0" width="14.1" height="7.9"/>
<path class="st2" d="M30.6,16V2c0-1.1-0.9-2-2-2h-14c-1.1,0-2,0.9-2,2v14c0,1.1,0.9,2,2,2h14C29.7,18,30.6,17.1,30.6,16z M18.5,11
	l2.1,2.5l3.1-4c0.2-0.3,0.6-0.3,0.8,0l3.5,4.7c0.3,0.3,0,0.8-0.4,0.8h-12c-0.4,0-0.7-0.5-0.4-0.8l2.5-3.2
	C17.9,10.7,18.3,10.7,18.5,11z"/>
</svg>
