<?xml version="1.0" encoding="utf-8"?>
<!-- Generator: Adobe Illustrator 23.0.2, SVG Export Plug-In . SVG Version: 6.00 Build 0)  -->
<svg version="1.1" id="Layer_1" xmlns="http://www.w3.org/2000/svg" xmlns:xlink="http://www.w3.org/1999/xlink" x="0px" y="0px"
	 viewBox="0 0 32 32" style="enable-background:new 0 0 32 32;" xml:space="preserve">
<style type="text/css">
	.st0{fill:none;}
	.st1{fill:#0F0F0F;}
</style>
<rect x="4" y="4" class="st0" width="24" height="24"/>
<g transform="translate(1.406 1.408)">
	<path class="st1" d="M25.6,21.1c0,0.3-0.1,0.7-0.3,0.9l-3,3c-0.2,0.2-0.3,0.3-0.5,0.4c-0.2,0.1-0.4,0.2-0.7,0.2c0,0-0.1,0-0.1,0
		c-0.1,0-0.2,0-0.3,0c-0.5,0-0.9-0.1-1.4-0.1c-0.8-0.2-1.6-0.4-2.4-0.7c-1.1-0.5-2.2-1.1-3.2-1.8c-1.4-0.9-2.7-2-3.8-3.2
		c-1-0.9-1.9-1.9-2.7-3C6.6,15.9,6,15,5.5,14.1c-0.4-0.7-0.7-1.5-1-2.2c-0.2-0.6-0.3-1.1-0.4-1.7C4,9.8,4,9.4,4,9c0-0.3,0-0.4,0-0.5
		c0-0.2,0.1-0.4,0.2-0.7c0.1-0.2,0.2-0.4,0.4-0.5l3-3.1C7.9,4.1,8.1,4,8.4,4c0.2,0,0.4,0.1,0.5,0.2c0.2,0.1,0.3,0.3,0.4,0.4l2.5,4.7
		c0.1,0.2,0.2,0.5,0.1,0.8c-0.1,0.3-0.2,0.5-0.4,0.7l-1.1,1.1c0,0-0.1,0.1-0.1,0.1c0,0.1,0,0.1,0,0.2c0.1,0.4,0.2,0.8,0.4,1.1
		c0.2,0.5,0.5,0.9,0.8,1.3c0.5,0.7,1,1.3,1.6,1.8c0.6,0.6,1.2,1.1,1.8,1.6c0.4,0.3,0.9,0.6,1.3,0.9c0.3,0.1,0.5,0.3,0.8,0.3l0.3,0.1
		c0.1,0,0.1,0,0.1,0c0.1,0,0.1,0,0.1-0.1l1.3-1.3c0.3-0.2,0.6-0.4,1-0.4c0.2,0,0.4,0,0.6,0.1h0l4.4,2.6
		C25.4,20.5,25.6,20.8,25.6,21.1z"/>
</g>
</svg>
