<svg xmlns="http://www.w3.org/2000/svg" width="24" height="24" viewBox="0 0 24 24"><rect width="24" height="24" fill="none"/><g transform="translate(1.406 1.408)"><path d="M21.646,17.268a1.047,1.047,0,0,1-.321.917l-3.049,3.026a1.716,1.716,0,0,1-.539.39,2.226,2.226,0,0,1-.653.206q-.023,0-.138.012t-.3.011a10.569,10.569,0,0,1-1.41-.149,10.708,10.708,0,0,1-2.384-.734,20.013,20.013,0,0,1-3.2-1.754,23.845,23.845,0,0,1-3.806-3.21,25.122,25.122,0,0,1-2.659-3.026,21.561,21.561,0,0,1-1.7-2.671A14.385,14.385,0,0,1,.531,8.063,11.8,11.8,0,0,1,.1,6.344,5.678,5.678,0,0,1,0,5.209Q.027,4.8.027,4.75A2.228,2.228,0,0,1,.233,4.1a1.718,1.718,0,0,1,.39-.539L3.672.509A1.01,1.01,0,0,1,4.406.188.855.855,0,0,1,4.933.36a1.594,1.594,0,0,1,.39.424L7.776,5.438a1.116,1.116,0,0,1,.115.8,1.429,1.429,0,0,1-.39.734L6.377,8.1a.382.382,0,0,0-.08.149.566.566,0,0,0-.034.172,4.14,4.14,0,0,0,.413,1.1,10.1,10.1,0,0,0,.848,1.341,14.892,14.892,0,0,0,1.628,1.823,15.186,15.186,0,0,0,1.834,1.639,10.592,10.592,0,0,0,1.341.86,3.565,3.565,0,0,0,.825.332l.286.057a.546.546,0,0,0,.149-.034.383.383,0,0,0,.149-.08l1.307-1.33a1.4,1.4,0,0,1,.963-.367,1.2,1.2,0,0,1,.619.138h.023l4.425,2.614A1.153,1.153,0,0,1,21.646,17.268Z" transform="translate(0 -0.188)" fill="#0f0f0f"/></g></svg>