<?xml version="1.0" encoding="utf-8"?>
<!-- Generator: Adobe Illustrator 23.0.2, SVG Export Plug-In . SVG Version: 6.00 Build 0)  -->
<svg version="1.1" id="Layer_1" xmlns="http://www.w3.org/2000/svg" xmlns:xlink="http://www.w3.org/1999/xlink" x="0px" y="0px"
	 viewBox="0 0 24 22.9" style="enable-background:new 0 0 24 22.9;" xml:space="preserve">
<style type="text/css">
	.st0{fill:none;}
</style>
<path class="st0" d="M0-1.1h24v24H0V-1.1z"/>
<path d="M21,17.9v-14c0-1.1-0.9-2-2-2H5c-1.1,0-2,0.9-2,2v14c0,1.1,0.9,2,2,2h14C20.1,19.9,21,19,21,17.9z M8.9,12.9l2.1,2.5l3.1-4
	c0.2-0.3,0.6-0.3,0.8,0l3.5,4.7c0.3,0.3,0,0.8-0.4,0.8H6c-0.4,0-0.7-0.5-0.4-0.8l2.5-3.2C8.3,12.6,8.7,12.6,8.9,12.9z"/>
</svg>
