<?xml version="1.0" encoding="utf-8"?>
<!-- Generator: Adobe Illustrator 23.0.2, SVG Export Plug-In . SVG Version: 6.00 Build 0)  -->
<svg version="1.1" id="Layer_1" xmlns="http://www.w3.org/2000/svg" xmlns:xlink="http://www.w3.org/1999/xlink" x="0px" y="0px"
	 viewBox="0 0 24 24" style="enable-background:new 0 0 24 24;" xml:space="preserve">
<style type="text/css">
	.st0{fill:none;}
</style>
<path class="st0" d="M0,0h24v24H0V0z"/>
<path d="M21,19V5c0-1.1-0.9-2-2-2H5C3.9,3,3,3.9,3,5v14c0,1.1,0.9,2,2,2h14C20.1,21,21,20.1,21,19z M8.9,14l2.1,2.5l3.1-4
	c0.2-0.3,0.6-0.3,0.8,0l3.5,4.7c0.3,0.3,0,0.8-0.4,0.8H6c-0.4,0-0.7-0.5-0.4-0.8L8.1,14C8.3,13.7,8.7,13.7,8.9,14z"/>
</svg>
