<?xml version="1.0" encoding="utf-8"?>
<!-- Generator: Adobe Illustrator 23.0.2, SVG Export Plug-In . SVG Version: 6.00 Build 0)  -->
<svg version="1.1" id="Layer_1" xmlns="http://www.w3.org/2000/svg" xmlns:xlink="http://www.w3.org/1999/xlink" x="0px" y="0px"
	 viewBox="0 0 40.5 40.5" style="enable-background:new 0 0 40.5 40.5;" xml:space="preserve">
<style type="text/css">
	.st0{fill:#FFD164;}
	.st1{fill:#FFFFFF;stroke:#353535;stroke-miterlimit:10;}
	.st2{fill:none;stroke:#131313;stroke-linecap:round;stroke-linejoin:round;stroke-miterlimit:10;}
	.st3{fill:#131313;stroke:#131313;stroke-miterlimit:10;}
	.st4{fill:#6394FF;}
</style>
<g>
	<path class="st0" d="M37.2,22.9c0-1.5-0.7-2.8-1.8-3.7C35,18.9,34.9,18.5,35,18c0.1-0.3,0.1-0.7,0.1-1.1c0-1.9-1.2-3.6-2.8-4.3
		c-0.3-0.1-0.6-0.4-0.7-0.7c-0.7-2.1-2.8-3.5-5.2-3.1c-1.9,0.3-3.4,1.9-3.8,3.7c-0.5,2.5,1.1,4.7,3.3,5.3c0.3,1.3,1.2,2.5,2.4,3.1
		c-0.2,0.6-0.4,1.2-0.4,1.8c0,0.9,0.3,1.7,0.7,2.4c-2.2,0.7-3.7,2.9-3.3,5.4c0.3,1.8,1.8,3.3,3.6,3.7c3,0.6,5.7-1.7,5.7-4.6
		c0-0.5-0.1-1-0.3-1.5s0-1,0.5-1.3C36.3,26.2,37.2,24.7,37.2,22.9z"/>
	<path class="st0" d="M12.4,9.7c-2.4,1-4.9,2.7-4.9,5.3v0.1c0,0.8-0.3,1.5-1,2c-1.1,0.9-1.8,2.2-1.8,3.7c0,0.9,0.3,1.8,0.8,2.6
		c0.3,0.5,0.3,1.2,0,1.7c-0.6,0.9-0.9,2.1-0.7,3.3c0.3,1.9,1.8,3.4,3.6,3.8c3,0.6,5.7-1.7,5.7-4.6c0-1.3-0.6-2.5-1.4-3.4
		c0.9-0.9,1.4-2,1.4-3.4c0-0.5-0.1-1-0.3-1.4c1.1-0.4,2-1.3,2.6-2.3c0.2,0,0.5,0.1,0.8,0.1c2.9,0,5.2-2.7,4.6-5.7
		c-0.4-1.8-4-3.4-5.9-3"/>
</g>
<circle class="st0" cx="18.4" cy="14.1" r="4.7"/>
<circle class="st0" cx="24.8" cy="15" r="4.7"/>
<path class="st1" d="M10.9,18.2c-5,5.8-4.2,14.2,1,18.4c4.8,3.9,12,2.9,16.1-1c5.7-5.5,4.8-16.4-1.7-20.2
	C21.8,12.9,15.5,13.9,10.9,18.2z"/>
<path class="st2" d="M11.4,22.7c0,0,3.9-2.5,5.6,0.2"/>
<path class="st2" d="M22.1,23.3c0,0,3.9-2.5,5.6,0.2"/>
<circle class="st3" cx="15.2" cy="23.6" r="1.4"/>
<circle class="st3" cx="25.8" cy="24.3" r="1.4"/>
<path class="st2" d="M19.9,23.4c0,0,0.6,4.2-0.9,5.4c-1.5,1.3-1,2.5,1.2,1.5"/>
<path class="st2" d="M14.6,32.2c0,0,4.5,5.9,8.9,0.5"/>
<path class="st0" d="M25.4,10.4c-0.6-0.1-1.1-0.1-1.6,0c-0.6,0.1-1.3,0-1.8-0.4c-0.9-0.5-2-0.8-3.2-0.6c-1.8,0.3-3.4,1.8-3.7,3.6
	c-0.6,3,1.7,5.7,4.6,5.7c0.3,0,0.6,0,0.9-0.1c0.5-0.1,1.1,0,1.6,0.3c0.7,0.5,1.6,0.7,2.5,0.7c2.9,0,5.2-2.6,4.6-5.7
	C28.8,12.2,27.2,10.7,25.4,10.4z"/>
<path class="st4" d="M14.6,5.9c0.1,0.3,2.9,6.9,2.9,6.9l9.1,0.4l2.9-8.3l-2.3,1.2c-0.8,0.4-1.9,0.2-2.4-0.5l-2.6-3.3l-2,3.4
	c-0.5,0.8-1.4,1.2-2.3,1L14.6,5.9z"/>
</svg>
