<?xml version="1.0" encoding="utf-8"?>
<!-- Generator: Adobe Illustrator 23.0.2, SVG Export Plug-In . SVG Version: 6.00 Build 0)  -->
<svg version="1.1" id="Layer_1" xmlns="http://www.w3.org/2000/svg" xmlns:xlink="http://www.w3.org/1999/xlink" x="0px" y="0px"
	 viewBox="0 0 40.5 40.5" style="enable-background:new 0 0 40.5 40.5;" xml:space="preserve">
<style type="text/css">
	.st0{fill:#6394FF;}
	.st1{fill:#FFD164;}
	.st2{fill:#131313;}
</style>
<path class="st0" d="M6,19.4v3.8c0,0.6-0.4,1-1,1H1c-0.6,0-1,0.4-1,1v5.6c0,0.6,0.4,1,1,1h5h4.3h5c0.6,0,1-0.4,1-1V19.4
	c0-0.6-0.4-1-1-1H7C6.4,18.4,6,18.8,6,19.4z"/>
<path class="st1" d="M38.5,31.7H19.2c-1.1,0-2-0.9-2-2v-18c0-1.1,0.9-2,2-2h19.3c1.1,0,2,0.9,2,2v18C40.5,30.8,39.6,31.7,38.5,31.7z
	"/>
<circle class="st2" cx="4.7" cy="31.7" r="1.7"/>
<circle class="st2" cx="12.8" cy="31.7" r="1.7"/>
<circle class="st2" cx="23.1" cy="31.7" r="1.7"/>
<circle class="st2" cx="35.6" cy="31.7" r="1.7"/>
</svg>
