<?xml version="1.0" encoding="utf-8"?>
<!-- Generator: Adobe Illustrator 23.0.2, SVG Export Plug-In . SVG Version: 6.00 Build 0)  -->
<svg version="1.1" id="Layer_1" xmlns="http://www.w3.org/2000/svg" xmlns:xlink="http://www.w3.org/1999/xlink" x="0px" y="0px"
	 viewBox="0 0 40.5 40.5" style="enable-background:new 0 0 40.5 40.5;" xml:space="preserve">
<style type="text/css">
	.st0{fill:#FFD164;}
</style>
<g>
	<g>
		<path class="st0" d="M20.17,14.64c-0.05,3.62-0.1,7.24-0.15,10.86c0.93-0.25,1.86-0.5,2.8-0.76c-0.9-2.11-1.81-4.23-2.71-6.34
			c-0.5-1.16-2.53-0.86-2.74,0.36c-0.47,2.72-2.27,9.23,0.79,10.96c1.59,0.91,4.38,0.36,6.08,0.35c3.39-0.02,6.78-0.03,10.17-0.05
			c0.96,0,1.72-0.96,1.45-1.9c-1.77-6.06-2.31-12.17-1.67-18.44c0.08-0.81-0.75-1.5-1.5-1.5c-3.26-0.01-6.52-0.02-9.78-0.03
			c-1.63-0.01-4.42-0.63-5.9,0.45c-1.19,0.87-0.95,2.41-0.94,3.7c0.04,3.44,0.16,6.88,0.24,10.32c0.04,1.76,2.36,1.94,2.95,0.4
			c1.4-3.71,2.42-7.47,3.07-11.38c-0.98-0.13-1.96-0.27-2.95-0.4c-0.18,3.43-0.07,6.79,0.33,10.2c0.2,1.72,2.28,1.99,2.95,0.4
			c1.05-2.51,1.49-4.92,1.43-7.62c-1,0-2,0-3,0c0.05,1.88,0.06,3.75-0.03,5.62c-0.04,0.94-0.1,1.87-0.19,2.81
			c-0.37,1.02-0.17,1.92,0.59,2.7c-0.48,0.63-0.96,1.27-1.45,1.9c4.04,0.24,8.09,0.49,12.13,0.73c0.81,0.05,1.5-0.73,1.5-1.5
			c0.01-3.31,0.04-6.61,0.03-9.92c-0.01-1.63,0.17-3.37-1.05-4.64c-2.66-2.75-9.59-1.6-12.96-1.55c-0.94,0.01-1.74,0.95-1.45,1.9
			c0.9,2.89,1.81,5.79,2.71,8.68c0.47,1.49,2.37,1.35,2.89,0c1.05-2.7,1.58-5.33,1.74-8.21c-1,0-2,0-3,0
			c0.4,5.28,0.8,10.55,1.19,15.83c0.14,1.92,2.87,1.94,3,0c0.25-3.92,0.15-7.77-0.31-11.67c-0.98,0.13-1.96,0.27-2.95,0.4
			c0.36,2.68,0.73,5.36,1.09,8.03c0.25,1.81,2.77,1.12,2.95-0.4c0.5-4.4,1-8.79,1.49-13.19c-1,0-2,0-3,0
			c0.08,4.15,0.53,8.23,1.35,12.3c0.28,1.4,2.67,1.47,2.89,0c0.53-3.52,1.07-7.03,1.6-10.55c-0.98-0.13-1.96-0.27-2.95-0.4
			c0.15,3.84,0.3,7.68,0.45,11.52c0.07,1.77,2.34,1.94,2.95,0.4c0.96-2.45,1.36-4.81,1.3-7.43c-0.98,0.13-1.96,0.27-2.95,0.4
			c0.47,2.73,0.94,5.46,1.41,8.19c0.25,1.44,2.64,1.43,2.89,0c0.93-5.17-1.44-9.99-0.95-15.14c0.1-1.03-1.03-1.63-1.9-1.45
			c-3.1,0.67-7.86,1.81-7.59,5.78c0.13,1.92,3.13,1.93,3,0c-0.14-2.03,4.03-2.59,5.38-2.89c-0.63-0.48-1.27-0.96-1.9-1.45
			c-0.46,4.85,1.91,9.53,1.05,14.34c0.96,0,1.93,0,2.89,0c-0.47-2.73-0.94-5.46-1.41-8.19c-0.29-1.68-2.98-1.27-2.95,0.4
			c0.05,2.38-0.33,4.44-1.19,6.63c0.98,0.13,1.96,0.27,2.95,0.4c-0.15-3.84-0.3-7.68-0.45-11.52c-0.06-1.6-2.68-2.15-2.95-0.4
			c-0.53,3.52-1.07,7.03-1.6,10.55c0.96,0,1.93,0,2.89,0c-0.77-3.81-1.18-7.61-1.25-11.5c-0.04-1.98-2.79-1.88-3,0
			c-0.5,4.4-1,8.79-1.49,13.19c0.98-0.13,1.96-0.27,2.95-0.4c-0.36-2.68-0.73-5.36-1.09-8.03c-0.22-1.66-3.14-1.28-2.95,0.4
			c0.46,3.9,0.56,7.76,0.31,11.67c1,0,2,0,3,0c-0.4-5.28-0.8-10.55-1.19-15.83c-0.14-1.92-2.89-1.94-3,0
			c-0.15,2.62-0.69,4.98-1.63,7.41c0.96,0,1.93,0,2.89,0c-0.9-2.89-1.81-5.79-2.71-8.68c-0.48,0.63-0.96,1.27-1.45,1.9
			c2.66-0.04,9.59-1.14,11.01,1.77c0.58,1.2-0.01,4.31-0.02,5.67c-0.01,1.89-0.01,3.78-0.02,5.67c0.5-0.5,1-1,1.5-1.5
			c-4.04-0.24-8.09-0.49-12.13-0.73c-0.98-0.06-1.69,1.01-1.45,1.9c0.51,1.88,2.72,2.96,4.26,1.32c1.03-1.09,0.93-3.51,1.04-4.82
			c0.24-2.81,0.29-5.61,0.21-8.43c-0.05-1.93-3.04-1.94-3,0c0.05,2.47-0.38,4.58-1.32,6.82c0.98,0.13,1.96,0.27,2.95,0.4
			c-0.4-3.41-0.51-6.77-0.33-10.2c0.09-1.66-2.67-2.08-2.95-0.4c-0.65,3.91-1.67,7.68-3.07,11.38c0.98,0.13,1.96,0.27,2.95,0.4
			c-0.05-2.21-0.1-4.42-0.15-6.63c-0.03-1.19,0.11-2.5-0.08-3.68c-0.01-0.49-0.02-0.98-0.03-1.47c-0.53,0.37-0.4,0.47,0.38,0.31
			c1.89-0.41,4.36,0.02,6.29,0.02c2.33,0.01,4.66,0.02,6.99,0.02c-0.5-0.5-1-1-1.5-1.5c-0.66,6.54-0.06,12.93,1.78,19.24
			c0.48-0.63,0.96-1.27,1.45-1.9c-3.87,0.02-7.75,0.04-11.62,0.06c-2.15,0.01-2.96,0.78-3.11-1.45c-0.14-2,0.25-4.11,0.58-6.07
			c-0.91,0.12-1.83,0.24-2.74,0.36c0.9,2.11,1.81,4.23,2.71,6.34c0.62,1.44,2.78,0.61,2.8-0.76c0.05-3.62,0.1-7.24,0.15-10.86
			C23.19,12.71,20.19,12.71,20.17,14.64L20.17,14.64z"/>
	</g>
</g>
<g>
	<g>
		<path d="M9.64,21.46c-1.46,0.15-3.01,0.17-4.45,0.45c-0.63,0.13-1.14,0.33-1.46,0.93c-0.5,0.94-0.24,2.25-0.12,3.24
			c0.17,1.37,0.48,2.7,0.91,4.02c0.2,0.61,1.16,0.35,0.96-0.27c-0.51-1.58-1.25-3.78-1.01-5.46c0.3-2.07,3.53-1.76,5.17-1.92
			C10.28,22.4,10.28,21.39,9.64,21.46L9.64,21.46z"/>
	</g>
</g>
<g>
	<g>
		<path d="M4.86,30.82c10.19,0.01,20.38,0.02,30.57,0.02c0.64,0,0.64-1,0-1c-10.19-0.01-20.38-0.02-30.57-0.02
			C4.22,29.82,4.21,30.82,4.86,30.82L4.86,30.82z"/>
	</g>
</g>
<g>
	<g>
		<path d="M36.62,29.91c-1.1-6.92-1.61-13.89-1.55-20.89c0.01-0.64-0.99-0.64-1,0c-0.06,7.09,0.48,14.15,1.59,21.15
			C35.76,30.81,36.72,30.54,36.62,29.91L36.62,29.91z"/>
	</g>
</g>
<g>
	<g>
		<path d="M34.67,7.76C29.09,7.84,23.52,7.92,17.94,8c-0.64,0.01-0.64,1.01,0,1c5.57-0.08,11.15-0.16,16.72-0.24
			C35.31,8.75,35.31,7.75,34.67,7.76L34.67,7.76z"/>
	</g>
</g>
<g>
	<g>
		<path d="M9.71,21.73c-0.05-0.71-0.11-1.42-0.16-2.13c-0.03-0.35-0.16-0.84-0.09-1.19c0.18-0.82,0.66-0.96,1.38-1
			c1.66-0.08,3.33-0.09,4.99-0.14c0.64-0.02,0.64-1.02,0-1c-1.4,0.04-2.8,0.08-4.21,0.12c-0.72,0.02-1.66-0.08-2.33,0.27
			c-0.54,0.28-0.78,0.69-0.85,1.29c-0.14,1.2,0.17,2.58,0.26,3.78C8.76,22.36,9.76,22.37,9.71,21.73L9.71,21.73z"/>
	</g>
</g>
<g>
	<g>
		<path d="M16.54,16.62c-0.01-1.87-0.02-3.74-0.03-5.61c-0.01-1.08,0.04-1.79,1.2-2.02c0.54-0.1,0.86-0.01,1.36-0.26
			c0.58-0.28,0.07-1.15-0.5-0.86c-1.21,0.6-2.65-0.5-3.04,1.38c-0.19,0.95-0.02,2.04-0.01,3c0.01,1.45,0.02,2.91,0.02,4.36
			C15.55,17.26,16.55,17.26,16.54,16.62L16.54,16.62z"/>
	</g>
</g>
<g>
	<g>
		<path d="M10.02,30.79c0.15,0.82,0.75,1.36,1.49,1.68c0.69,0.29,1.64,0.59,2.39,0.41c1.49-0.36,1.39-2.33,0.01-2.75
			c-0.62-0.19-0.88,0.78-0.27,0.96c0.88,0.27-0.01,0.82-0.35,0.83c-0.25,0-0.62-0.12-0.86-0.19c-0.67-0.2-1.31-0.44-1.45-1.2
			C10.87,29.89,9.9,30.16,10.02,30.79L10.02,30.79z"/>
	</g>
</g>
<g>
	<g>
		<path d="M28.1,31.31c0.61,1.05,1.98,1.76,3.17,1.26c1.07-0.45,1.33-2.25-0.05-2.44c-0.63-0.09-0.9,0.87-0.27,0.96
			c0.59,0.08-0.08,0.59-0.36,0.63c-0.19,0.03-0.4-0.01-0.58-0.06c-0.46-0.13-0.81-0.45-1.05-0.86
			C28.64,30.25,27.78,30.75,28.1,31.31L28.1,31.31z"/>
	</g>
</g>
<g>
	<g>
		<path d="M12.11,32.01c0.59,0.2,1.47,0.2,1.64-0.56c0.16-0.69-0.54-1.3-1.19-1.03c-0.71,0.3-0.77,1.2-0.24,1.71
			c0.55,0.53,1.43,0.41,1.92-0.13c0.21-0.23,0.19-0.62-0.1-0.79c-0.99-0.54-2.09-0.78-3.22-0.65c-0.63,0.07-0.64,1.08,0,1
			c0.96-0.11,1.86,0.04,2.71,0.51c-0.03-0.26-0.07-0.52-0.1-0.79c-0.07,0.11-0.17,0.17-0.31,0.19c-0.15,0-0.25-0.06-0.31-0.19
			c-0.05-0.13-0.14-0.18-0.27-0.16c-0.09-0.02-0.18-0.05-0.27-0.08C11.76,30.83,11.5,31.8,12.11,32.01L12.11,32.01z"/>
	</g>
</g>
<g>
	<g>
		<path d="M29.74,30.84c-0.2,0.46-0.11,1.01,0.37,1.26c0.47,0.25,1.03,0.01,1.22-0.48c0.19-0.48-0.04-0.94-0.49-1.17
			c-0.55-0.27-1.14-0.1-1.6,0.25c-0.24,0.19-0.17,0.66,0.1,0.79c0.31,0.14,0.62,0.17,0.91-0.04c0.32-0.23,0.31-0.63,0-0.86
			c-0.31-0.24-0.68-0.34-1.07-0.3c-0.64,0.06-0.64,1.06,0,1c0.23-0.02,0.37,0.02,0.56,0.16c0-0.29,0-0.58,0-0.86
			c0.03,0.01,0.07,0.03,0.1,0.04c0.03,0.26,0.07,0.52,0.1,0.79c0.16-0.13,0.27-0.04,0.43-0.07c0.08,0.05,0.08,0.02,0.02-0.09
			c0.18-0.07,0.25-0.04,0.2,0.09C30.85,30.76,29.99,30.25,29.74,30.84L29.74,30.84z"/>
	</g>
</g>
<g>
	<g>
		<path d="M19.8,5.56c4.49,0,8.98,0,13.47,0c0.64,0,0.64-1,0-1c-4.49,0-8.98,0-13.47,0C19.15,4.56,19.15,5.56,19.8,5.56L19.8,5.56z"
			/>
	</g>
</g>
<g>
	<g>
		<path d="M23.11,15.46c5.49,0,10.98,0,16.47,0c0.64,0,0.64-1,0-1c-5.49,0-10.98,0-16.47,0C22.47,14.46,22.47,15.46,23.11,15.46
			L23.11,15.46z"/>
	</g>
</g>
<g>
	<g>
		<path d="M22.03,37.1c4.51,0,9.02,0,13.53,0c0.64,0,0.64-1,0-1c-4.51,0-9.02,0-13.53,0C21.39,36.1,21.38,37.1,22.03,37.1
			L22.03,37.1z"/>
	</g>
</g>
<g>
	<g>
		<path d="M9.52,22.2c0.99,0.02,2.92,0.47,3.57-0.55c0.3-0.47,0.25-1.1,0.25-1.63c0.01-0.68,0.12-1.45-0.02-2.12
			c-0.25-1.18-1.5-1.24-2.49-1.07c-1.2,0.21-1.66,1.05-1.68,2.21c-0.02,1.01,0.13,2.23,1.19,2.66c0.79,0.32,2.31,0.35,2.76-0.53
			c0.46-0.88,0.06-2.85-0.58-3.59c-0.74-0.86-1.96-0.54-2.45,0.41c-0.42,0.81-0.56,2.46,0.64,2.68c1.64,0.31,1.64-1.71,1.29-2.71
			c-0.13-0.38-0.7-0.53-0.91-0.12c-0.54,1.04-0.41,2.15,0.32,3.06c0.23,0.29,0.76,0.12,0.84-0.22c0.04-0.18,0.08-0.37,0.12-0.55
			c0.14-0.63-0.83-0.9-0.96-0.27c-0.04,0.18-0.08,0.37-0.12,0.55c0.28-0.07,0.56-0.15,0.84-0.22c-0.44-0.54-0.48-1.23-0.16-1.85
			c-0.3-0.04-0.61-0.08-0.91-0.12c0.05,0.14,0.39,1.22,0.14,1.3c-0.55,0.16-0.44-0.69-0.29-0.9c0.99-1.44,1.45,1.07,1.37,1.61
			c-0.06,0.4-0.17,0.54-0.59,0.62c-0.34,0.06-0.98-0.02-1.2-0.26c-0.39-0.41-0.34-1.19-0.31-1.7c0.02-0.5,0.09-0.85,0.64-1.05
			c0.22-0.08,0.6-0.12,0.83-0.09c0.95,0.12,0.74,1.07,0.73,1.77c-0.01,0.61,0.2,1.53-0.59,1.72c-0.63,0.15-1.59-0.03-2.24-0.05
			C8.88,21.19,8.88,22.19,9.52,22.2L9.52,22.2z"/>
	</g>
</g>
<g>
	<g>
		<path d="M15.5,16.81c-0.02,4.52,0.33,8.99,1.05,13.46c0.1,0.63,1.07,0.36,0.96-0.27c-0.7-4.37-1.03-8.76-1.01-13.19
			C16.5,16.17,15.5,16.16,15.5,16.81L15.5,16.81z"/>
	</g>
</g>
<g>
	<g>
		<path d="M11.83,24.49c0.51-0.07,1.02-0.15,1.54-0.22c0.63-0.09,0.36-1.06-0.27-0.96c-0.51,0.07-1.02,0.15-1.54,0.22
			C10.93,23.62,11.2,24.58,11.83,24.49L11.83,24.49z"/>
	</g>
</g>
</svg>
