<?xml version="1.0" encoding="utf-8"?>
<!-- Generator: Adobe Illustrator 23.0.2, SVG Export Plug-In . SVG Version: 6.00 Build 0)  -->
<svg version="1.1" id="Layer_1" xmlns="http://www.w3.org/2000/svg" xmlns:xlink="http://www.w3.org/1999/xlink" x="0px" y="0px"
	 viewBox="0 0 40.5 40.5" style="enable-background:new 0 0 40.5 40.5;" xml:space="preserve">
<style type="text/css">
	.st0{fill:#6394FF;}
	.st1{fill:#353535;}
	.st2{fill:#FFD164;}
</style>
<circle class="st0" cx="8.1" cy="9.6" r="3.5"/>
<path class="st1" d="M33.9,11.9H16.2c-1.1,0-2-0.9-2-2V9.3c0-1.1,0.9-2,2-2H34c1.1,0,2,0.9,2,2v0.6C35.9,11,35,11.9,33.9,11.9z"/>
<circle class="st2" cx="8.1" cy="20.3" r="3.5"/>
<path class="st1" d="M33.9,22.6H16.2c-1.1,0-2-0.9-2-2V20c0-1.1,0.9-2,2-2H34c1.1,0,2,0.9,2,2v0.6C35.9,21.7,35,22.6,33.9,22.6z"/>
<circle class="st0" cx="8.1" cy="30.9" r="3.5"/>
<path class="st1" d="M33.9,33.2H16.2c-1.1,0-2-0.9-2-2v-0.6c0-1.1,0.9-2,2-2H34c1.1,0,2,0.9,2,2v0.6C35.9,32.4,35,33.2,33.9,33.2z"
	/>
</svg>
