<?xml version="1.0" encoding="utf-8"?>
<!-- Generator: Adobe Illustrator 23.0.2, SVG Export Plug-In . SVG Version: 6.00 Build 0)  -->
<svg version="1.1" id="Layer_1" xmlns="http://www.w3.org/2000/svg" xmlns:xlink="http://www.w3.org/1999/xlink" x="0px" y="0px"
	 viewBox="0 0 40.5 40.5" style="enable-background:new 0 0 40.5 40.5;" xml:space="preserve">
<style type="text/css">
	.st0{fill:#FFD164;}
</style>
<ellipse class="st0" cx="9.36" cy="8.28" rx="4.17" ry="3.11"/>
<ellipse class="st0" cx="9.04" cy="20.86" rx="4.17" ry="3.11"/>
<ellipse class="st0" cx="8.62" cy="31.91" rx="4.17" ry="3.11"/>
<g>
	<g>
		<path d="M7.62,7.47c1.65-0.24,2.85-1.28,3.45-2.81c-0.32-0.09-0.64-0.18-0.96-0.27C9.76,6.68,9.4,8.97,9.05,11.26
			c-0.1,0.63,0.87,0.9,0.96,0.27c0.36-2.29,0.71-4.57,1.07-6.86c0.1-0.64-0.73-0.87-0.96-0.27C9.63,5.62,8.63,6.32,7.36,6.51
			C6.72,6.6,6.99,7.56,7.62,7.47L7.62,7.47z"/>
	</g>
</g>
<g>
	<g>
		<path d="M7.15,12.57c1.48-0.03,2.95-0.06,4.43-0.09c0.64-0.01,0.64-1.01,0-1c-1.48,0.03-2.95,0.06-4.43,0.09
			C6.51,11.58,6.5,12.58,7.15,12.57L7.15,12.57z"/>
	</g>
</g>
<g>
	<g>
		<path d="M15.85,9.31c1.69-0.83,4.18,1.91,5.03-0.9c-0.32,0-0.64,0-0.96,0c0.8,2.22,3.1,2.52,5.06,1.58
			c1.3-0.63,1.62-0.89,3.11-0.75c0.6,0.06,1.19,0.22,1.79,0.28c2.03,0.19,4-0.11,5.93-0.73c0.61-0.19,0.35-1.16-0.27-0.96
			c-1.3,0.41-2.62,0.7-3.98,0.74c-1.54,0.05-2.94-0.53-4.42-0.63c-1.82-0.12-5.05,3.57-6.26,0.2c-0.16-0.46-0.81-0.49-0.96,0
			c-0.37,1.23-2.46,0.02-3.1-0.04c-0.65-0.06-0.9,0.06-1.47,0.34C14.77,8.73,15.28,9.6,15.85,9.31L15.85,9.31z"/>
	</g>
</g>
<g>
	<g>
		<path d="M7.24,18.86c0.6-0.4,1.73-1.24,2.47-0.67c1.16,0.89-0.66,1.99-1.18,2.4c-0.96,0.77-1.6,1.73-2.05,2.87
			c-0.12,0.31,0.19,0.63,0.48,0.63c1.56,0.03,3.13,0.05,4.69,0.08c0.64,0.01,0.64-0.99,0-1c-1.56-0.03-3.13-0.05-4.69-0.08
			c0.16,0.21,0.32,0.42,0.48,0.63c0.58-1.48,1.64-2.13,2.73-3.17c0.58-0.55,1.02-1.31,0.84-2.14c-0.48-2.17-3.09-1.24-4.29-0.43
			C6.21,18.36,6.71,19.22,7.24,18.86L7.24,18.86z"/>
	</g>
</g>
<g>
	<g>
		<path d="M14.2,19.23c-0.26,0.93,0.2,1.82,1.22,1.99c0.57,0.1,1.13-0.18,1.62-0.43c0.83-0.43,0.92-0.79,2-0.78
			c1.13,0.01,1.02,0.23,1.88,0.76c1.73,1.07,2.68,0.08,4.41-0.41c2.87-0.81,6.97,0.33,9.96,0.63c0.64,0.07,0.64-0.94,0-1
			c-3.55-0.36-7.58-1.39-11-0.39c-1.61,0.47-2.59,0.03-3.83-0.45c-0.56-0.22-0.62-0.44-1.27-0.48c-0.32-0.02-0.65,0.06-0.96,0.17
			c0,0-3.47,2.16-3.06,0.65C15.33,18.87,14.37,18.61,14.2,19.23L14.2,19.23z"/>
	</g>
</g>
<g>
	<g>
		<path d="M8.39,29.47c0.67,0.67,0.59,1.1-0.26,1.28c-0.22,0.07-0.44,0.13-0.67,0.17c-0.6,0.13-0.38,0.92,0.13,0.98
			c0.78,0.09,1.82,0.21,2.27,0.97c0.44,0.74-0.16,1.28-0.87,1.53c-1.07,0.38-2.36,0.33-3.47,0.25c-0.64-0.04-0.64,0.96,0,1
			c1.52,0.1,5,0.28,5.48-1.73c0.5-2.07-1.87-2.84-3.41-3.02c0.04,0.33,0.09,0.65,0.13,0.98c1.28-0.28,2.97-1.29,2.29-2.87
			c-0.48-1.1-2-1.18-2.48-0.05C7.27,29.55,8.14,30.06,8.39,29.47L8.39,29.47z"/>
	</g>
</g>
<g>
	<g>
		<path d="M15.1,32.05c1.52-0.51,1.82-0.09,3.22,0.03c1.08,0.09,2.01-0.39,2.68-1.22c-0.28-0.07-0.56-0.15-0.84-0.22
			c0.48,1.84,2.58,1.92,4.2,2.08c3.48,0.34,7.02,0.34,10.51,0.48c0.64,0.03,0.64-0.97,0-1c-2.2-0.09-4.4-0.17-6.59-0.26
			c-1.57-0.06-6.62,0.44-7.15-1.57c-0.09-0.34-0.59-0.52-0.84-0.22c-0.98,1.21-2.12,0.19-3.34,0.27c-0.69,0.05-1.46,0.43-2.12,0.66
			C14.22,31.29,14.48,32.26,15.1,32.05L15.1,32.05z"/>
	</g>
</g>
</svg>
