<?xml version="1.0" encoding="utf-8"?>
<!-- Generator: Adobe Illustrator 23.0.2, SVG Export Plug-In . SVG Version: 6.00 Build 0)  -->
<svg version="1.1" xmlns="http://www.w3.org/2000/svg" xmlns:xlink="http://www.w3.org/1999/xlink" x="0px" y="0px"
	 viewBox="0 0 40.5 40.5" style="enable-background:new 0 0 40.5 40.5;" xml:space="preserve">
<style type="text/css">
	.st0{fill:#FFD164;}
	.st1{fill:none;stroke:#000000;stroke-linecap:round;stroke-linejoin:round;stroke-miterlimit:10;}
</style>
<g id="Layer_1">
</g>
<g id="Layer_2">
	<g>
		<g>
			<path class="st0" d="M10.15,20.87c0.27-1.2,0.51-2.22,0.59-3.46c0.05-0.72-0.88-4.72-1.08-4.31c-0.87,1.72,1.53,3.14,2.59,1.51
				c0.78-1.19,1.55-2.38,2.33-3.57c0.69-1.05-0.25-2.13-1.3-2.26c-1.52-0.18-1.4-0.17-2.87,0.25c0.49,0.84,0.97,1.67,1.46,2.51
				c4.63-4.58,8.42-3.29,13.99-1.75c0.13-0.98,0.27-1.96,0.4-2.95c-3.18-0.02-9.76-1.53-12.31,0.76c-0.39,0.35-0.52,0.96-0.39,1.46
				c0.51,1.9,2.67,2.48,4.25,3.35c0.73,0.4,1.61,0.16,2.05-0.54c0.41-0.24,0.82-0.47,1.23-0.71c-0.48-0.37-0.96-0.73-1.45-1.1
				c0.03,0.17,0.07,0.35,0.1,0.52c0.19,0.95,1.42,1.37,2.2,0.9c1.31-0.79,2.75,1.52,4.4,0.92c1.07-0.38,1.65-2.18,0.36-2.74
				c-0.18-0.08-0.36-0.16-0.55-0.24c-0.69-0.3-1.24-0.22-1.82,0.23c-0.16,0.13-0.33,0.26-0.49,0.39c-0.42,0.33-0.49,0.98-0.39,1.46
				c0.86,3.85,4.35,1.43,5.23-0.89c-0.73,0.3-1.47,0.6-2.2,0.9c1.47,0.66,2.93,1.32,4.4,1.98c1.45,0.65,3.15-1.1,1.82-2.36
				c-1.35-1.28-2.59-2.04-4.3-2.75c-0.94-0.39-1.88,0.58-1.9,1.45c-0.14,5.27,3.05,5.9,7.25,4.23c-0.56-0.23-1.13-0.46-1.69-0.69
				c-0.2-0.31-1.66,4.73-1.67,4.81c-0.66,3.9-1.8,6.85-4.67,9.74c0.79,0.61,1.57,1.21,2.36,1.82c0.61-1.24,1.22-2.49,1.83-3.73
				c0.91-1.86,2.74-3.64-1.16-0.2c-1.45,1.28,0.68,3.39,2.12,2.12c2.34-2.07,4.46-6.93,0.57-8.51c-0.46-0.19-1.13,0.03-1.46,0.39
				c-2.05,2.24-3.17,5.72-4.5,8.42c-0.73,1.48,1.1,3.08,2.36,1.82c2.87-2.89,4.65-6.14,5.35-10.18c0.41-2.36,2.94-5.73,1.47-8.01
				c-0.33-0.51-1.07-0.94-1.69-0.69c-1.17,0.46-3.54,1.97-3.46-1.34c-0.63,0.48-1.27,0.96-1.9,1.45c0.99,0.66,1.98,1.32,2.97,1.98
				c0.61-0.79,1.21-1.57,1.82-2.36c-1.47-0.66-2.93-1.32-4.4-1.98c-0.94-0.42-1.84-0.08-2.2,0.9c0.22,0.65,0.44,1.31,0.67,1.96
				c-0.61,0.08-1.21,0.16-1.82,0.23c0.18,0.08,0.36,0.16,0.55,0.24c0.12-0.91,0.24-1.83,0.36-2.74c0.66-0.24-1.68-1.64-1.8-1.67
				c-1.27-0.32-2.3,0.43-3.32,1.05c0.73,0.3,1.47,0.6,2.2,0.9c-0.03-0.17-0.07-0.35-0.1-0.52c-0.12-0.62-0.83-1.13-1.45-1.1
				c-1.88,0.07-2.81,0.61-3.82,2.2c0.68-0.18,1.37-0.36,2.05-0.54c-0.71-0.39-2.19-1.61-2.99-1.64c-0.16,0.54-0.33,1.08-0.49,1.62
				c0.87,0,1.73,0.01,2.6,0.01c2.6,0.01,5.2,0.02,7.81,0.04c1.69,0.01,2.03-2.49,0.4-2.95C19.61,4.95,15.23,4,9.75,9.43
				c-1.06,1.05,0.02,2.92,1.46,2.51c0.69-0.05,1.38-0.1,2.07-0.14c-0.43-0.75-0.86-1.5-1.3-2.26c-0.78,1.19-1.55,2.38-2.33,3.57
				c0.86,0.5,1.73,1.01,2.59,1.51c0.91-1.79,0.39-4.35-2.15-4.19c-3.92,0.25-2.33,7.4-2.84,9.65C6.83,21.95,9.73,22.75,10.15,20.87
				L10.15,20.87z"/>
		</g>
	</g>
	<g>
		<g>
			<path class="st0" d="M9.13,13.44c-0.42,0.78-0.85,1.56-1.27,2.33c-0.39,0.71-0.18,1.64,0.54,2.05c0.69,0.4,1.66,0.18,2.05-0.54
				c0.42-0.78,0.85-1.56,1.27-2.33c0.39-0.71,0.18-1.64-0.54-2.05C10.5,12.5,9.52,12.73,9.13,13.44L9.13,13.44z"/>
		</g>
	</g>
	<g>
		<g>
			<path class="st0" d="M30.5,14.51c0.09,0.21,0.17,0.43,0.26,0.64c0.3,0.75,1,1.28,1.85,1.05c0.71-0.2,1.35-1.09,1.05-1.85
				c-0.09-0.21-0.17-0.43-0.26-0.64c-0.3-0.75-1-1.28-1.85-1.05C30.83,12.86,30.2,13.75,30.5,14.51L30.5,14.51z"/>
		</g>
	</g>
	<g>
		<g>
			<path class="st0" d="M23.57,12.16c0.53,0.07,1.06,0.14,1.59,0.22c0.77,0.11,1.65-0.19,1.85-1.05c0.16-0.7-0.22-1.73-1.05-1.85
				c-0.53-0.07-1.06-0.14-1.59-0.22c-0.77-0.11-1.65,0.19-1.85,1.05C22.36,11.02,22.74,12.05,23.57,12.16L23.57,12.16z"/>
		</g>
	</g>
	<g>
		<g>
			<g>
				<path d="M14.5,10.9c-2.75,3.19-5.5,6.7-5.08,11.17c0.35,3.69,2.73,7.01,6.15,8.46c8.36,3.55,14.07-7.61,15.42-14.17
					c0.13-0.63-0.83-0.9-0.96-0.27c-1.13,5.47-5.63,15.6-12.74,13.96c-4.01-0.92-6.88-4.79-6.91-8.85c-0.03-3.85,2.46-6.84,4.83-9.6
					C15.63,11.12,14.92,10.41,14.5,10.9L14.5,10.9z"/>
			</g>
		</g>
		<g>
			<g>
				<path d="M13.71,16.14c1.78-0.96,3.74-0.73,5.07,0.86c0.36,0.44,1.09-0.13,0.79-0.61c-0.49-0.77-1.16-1.64-2.2-1.55
					c-0.74,0.06-1.3,0.68-1.33,1.41c-0.04,0.84,0.63,1.52,1.43,1.66c0.89,0.16,1.62-0.38,2.11-1.07c0.37-0.53-0.49-1.03-0.86-0.5
					c-0.45,0.68-0.62,0.63-0.51-0.15c0.19,0.22,0.36,0.45,0.51,0.7c0.26-0.2,0.52-0.4,0.79-0.61c-1.62-1.94-4.13-2.18-6.29-1.02
					C12.63,15.58,13.14,16.44,13.71,16.14L13.71,16.14z"/>
			</g>
		</g>
		<g>
			<g>
				<path d="M23.39,18.04c0.31-1.07,2.14-0.46,2.76-0.1c0.73,0.42,1.24,1.05,1.58,1.81c0.29-0.17,0.58-0.34,0.86-0.5
					c-0.53-0.71-1.17-2.09-2.2-2.09c-0.85-0.01-1.42,0.78-1.33,1.59c0.2,1.86,3.71,2.6,3.4,0.32c-0.09-0.63-1.05-0.36-0.96,0.27
					c-0.58,0.22-1.03,0.08-1.35-0.4c0.22-0.79,0.47-0.89,0.75-0.28c0.28,0.36,0.55,0.74,0.83,1.1c0.39,0.52,1.13,0.09,0.86-0.5
					c-0.58-1.32-1.75-2.34-3.17-2.66c-1.16-0.27-2.61-0.12-2.99,1.19C22.24,18.39,23.21,18.65,23.39,18.04L23.39,18.04z"/>
			</g>
		</g>
		<g>
			<g>
				<path d="M20.01,18.89c0.35,0.89,0,1.53-0.76,2.04c-0.39,0.26-0.77,0.5-0.95,0.95c-0.38,0.99,0.45,1.9,1.45,1.81
					c0.64-0.05,0.64-1.05,0-1c-0.38-0.41-0.41-0.69-0.1-0.84c0.07-0.04,0.15-0.09,0.22-0.13c0.14-0.09,0.29-0.18,0.42-0.29
					c0.28-0.23,0.49-0.51,0.64-0.83c0.3-0.63,0.3-1.34,0.04-1.98C20.74,18.03,19.77,18.29,20.01,18.89L20.01,18.89z"/>
			</g>
		</g>
		<g>
			<g>
				<path d="M14.7,22.52c0.57,1.72,1.3,3.68,3.12,4.43c1.57,0.65,3.28-0.08,4.08-1.53c0.31-0.56-0.55-1.07-0.86-0.5
					c-0.78,1.41-2.42,1.66-3.63,0.61c-0.96-0.83-1.35-2.1-1.74-3.26C15.47,21.65,14.5,21.91,14.7,22.52L14.7,22.52z"/>
			</g>
		</g>
		<g>
			<g>
				<path d="M12.38,12.99c1.42-2.37,3.28-1.14,5.12-0.31c0.55,0.25,0.9,0.52,1.56,0.49c1.55-0.06,2.51-1.39,3.3-2.55
					c-0.3-0.04-0.61-0.08-0.91-0.12c0.33,1.28,0.99,2.3,2.28,2.79c0.67,0.25,1.35,0.01,1.98,0.16c0.5,0.12,0.45,0.28,0.94,0.54
					c0.56,0.29,1.3,0.36,1.81,0.66c1.15,0.67,1.46,1.62,2.11,2.57c0.67,0.96,1.51,1.28,2.52,0.69c0.56-0.32,0.05-1.19-0.5-0.86
					c-0.4,0.24-1.96-2.27-2.48-2.72c-0.98-0.85-2.76-0.47-3.36-1.85c-0.08-0.19-0.38-0.3-0.56-0.23c-1.63,0.74-2.89,0.07-3.78-2.01
					c-0.11-0.44-0.68-0.46-0.91-0.12c-0.8,1.18-2.32,1.89-3.84,1.4c0.12,0.04-0.82-0.62-0.86-0.64c-0.6-0.35-1.27-0.55-1.98-0.54
					c-1.5,0.03-2.57,0.93-3.31,2.16C11.18,13.04,12.05,13.54,12.38,12.99L12.38,12.99z"/>
			</g>
		</g>
		<g>
			<g>
				<path d="M33.22,10.15c-3.72-2.36-7.84-3.96-12.22-4.59c-3.09-0.44-7.59-1.4-9.48,1.71c-0.65,1.06-1.16,1.9-2.26,2.56
					c-0.57,0.34-1.26,0.48-1.76,0.96c-0.91,0.87-0.95,2.03-0.69,3.2c0.4,1.74,0.64,3.07,0.01,4.79c-0.27,0.74-0.62,1.5-0.52,2.32
					c0.13,1.08,0.78,1.73,1.77,2.01c0.62,0.17,0.89-0.79,0.27-0.96c-2.15-0.6,0.08-4.17,0.13-5.38c0.05-1.34-0.98-2.61-0.84-3.91
					c0.21-1.97,2.18-1.86,3.31-2.88c0.81-0.74,1.08-1.82,1.75-2.65c1.87-2.3,7.85-0.92,10.32-0.37c3.46,0.77,6.7,2.17,9.69,4.07
					C33.26,11.36,33.76,10.5,33.22,10.15L33.22,10.15z"/>
			</g>
		</g>
		<g>
			<g>
				<path d="M31.83,10.52c2.01,1.1,3.71,2.11,1.93,4.95c-0.25,0.4-0.72,0.71-1,1.1c-0.55,0.78-0.87,1.56-0.61,2.52
					c0.16,0.59,0.58,0.98,0.84,1.51c0.74,1.56,0.6,3.11-0.17,4.64c-1.27,2.53-3.79,3.82-6.56,3.86c-0.64,0.01-0.64,1.01,0,1
					c4.29-0.06,9.62-4.07,8.09-8.94c-0.12-0.39-0.36-0.69-0.5-1.06c-0.52-1.43-0.18-2.67,0.62-3.92c0.45-0.7,1.05-1.15,1.2-2.03
					c0.38-2.21-1.68-3.58-3.34-4.49C31.77,9.34,31.27,10.21,31.83,10.52L31.83,10.52z"/>
			</g>
		</g>
		<g>
			<g>
				<path d="M12.69,28.21c-1.43,0.03-2.85,0.07-4.28,0.1c-0.64,0.02-0.64,1.02,0,1c1.43-0.03,2.85-0.07,4.28-0.1
					C13.33,29.2,13.33,28.2,12.69,28.21L12.69,28.21z"/>
			</g>
		</g>
		<g>
			<g>
				<path d="M20.14,31.16c1.87,1.63,4.16,2.47,6.64,2.41c0.64-0.02,0.64-1.02,0-1c-2.21,0.06-4.26-0.66-5.93-2.12
					C20.36,30.04,19.65,30.74,20.14,31.16L20.14,31.16z"/>
			</g>
		</g>
	</g>
	
		<rect x="3.31" y="2.91" transform="matrix(0.9949 0.1008 -0.1008 0.9949 2.1803 -1.954)" class="st1" width="34.22" height="35.37"/>
	<line class="st1" x1="2.07" y1="31.95" x2="36.11" y2="35.47"/>
</g>
</svg>
