<?xml version="1.0" encoding="utf-8"?>
<!-- Generator: Adobe Illustrator 23.0.2, SVG Export Plug-In . SVG Version: 6.00 Build 0)  -->
<svg version="1.1" id="Layer_1" xmlns="http://www.w3.org/2000/svg" xmlns:xlink="http://www.w3.org/1999/xlink" x="0px" y="0px"
	 viewBox="0 0 40.5 40.5" style="enable-background:new 0 0 40.5 40.5;" xml:space="preserve">
<style type="text/css">
	.st0{fill:#FFD164;}
</style>
<g>
	<g>
		<path class="st0" d="M16.94,7.09c0.26,0.56,0.52,1.12,0.79,1.68c0.68-0.68,1.37-1.37,2.05-2.05c-0.54-0.38-1.08-0.76-1.63-1.14
			c-1.27-0.89-2.77,0.82-2.05,2.05c0.41,0.7,0.82,1.41,1.23,2.11c0.79,1.35,2.7,0.68,2.8-0.76c0.06-0.84,0.11-1.67,0.17-2.51
			c-0.85,0.35-1.71,0.71-2.56,1.06c0.43,0.5,0.86,0.99,1.28,1.49c0.82,0.95,2.11,0.28,2.51-0.66c0.41-0.98,0.82-1.95,1.23-2.93
			c-0.98-0.13-1.96-0.27-2.95-0.4c0.09,0.9,0.18,1.79,0.27,2.69c0.17,1.64,2.4,2.08,2.95,0.4c0.24-0.73,0.47-1.46,0.71-2.19
			c-0.96,0-1.93,0-2.89,0c-0.23,0.69-0.46,1.38-0.69,2.07c-1.2,0.49-1.63,2.6,0,2.89c4.25,0.77,7.1-0.44,7.69-4.97
			c0.13-1.03-1.06-1.63-1.9-1.45c-2.63,0.57-4.46,3.7-2.34,5.94c0.77,0.81,1.93,1.24,3.03,1.07c1.76-0.27,2.05-2.13,3.49-2.64
			c-0.39-0.91-0.77-1.83-1.16-2.74c-4.28,2.17-7.63-0.29-11.67-1.57c-1.84-0.59-2.63,2.31-0.8,2.89c2.46,0.78,4.71,2.22,7.3,2.56
			c2.36,0.31,4.58-0.22,6.68-1.29c1.5-0.76,0.46-3.31-1.16-2.74c-0.61,0.22-1.1,0.44-1.6,0.88c-0.27,0.27-0.52,0.56-0.74,0.86
			c-0.44,0.69-0.53,0.58-0.25-0.33c-0.63-0.48-1.27-0.96-1.9-1.45c-0.3,2.32-2.02,2.42-3.89,2.08c0,0.96,0,1.93,0,2.89
			c2.47-1.01,3.62-3.14,2.78-5.76c-0.46-1.43-2.43-1.42-2.89,0c-0.24,0.73-0.47,1.46-0.71,2.19c0.98,0.13,1.96,0.27,2.95,0.4
			c-0.09-0.9-0.18-1.79-0.27-2.69c-0.18-1.74-2.29-1.97-2.95-0.4c-0.41,0.98-0.82,1.95-1.23,2.93c0.84-0.22,1.67-0.44,2.51-0.66
			c-0.43-0.5-0.86-0.99-1.28-1.49c-0.92-1.06-2.48-0.13-2.56,1.06c-0.06,0.84-0.11,1.67-0.17,2.51c0.93-0.25,1.86-0.5,2.8-0.76
			c-0.41-0.7-0.82-1.41-1.23-2.11C18,6.79,17.32,7.48,16.63,8.16c0.54,0.38,1.08,0.76,1.63,1.14c1.35,0.94,2.62-0.83,2.05-2.05
			c-0.26-0.56-0.52-1.12-0.79-1.68C18.71,3.83,16.12,5.35,16.94,7.09L16.94,7.09z"/>
	</g>
</g>
<g>
	<g>
		<path d="M12.97,15.76c-1.88,3.26-3.69,6.76-2.74,10.62c0.81,3.31,3.41,5.97,6.71,6.85c8.45,2.26,11.86-9.09,11.97-15.44
			c0.01-0.64-0.99-0.64-1,0c-0.1,5.66-3.01,16.5-10.7,14.47c-3.08-0.81-5.49-3.42-6.1-6.54c-0.68-3.45,1.07-6.59,2.73-9.47
			C14.16,15.71,13.29,15.2,12.97,15.76L12.97,15.76z"/>
	</g>
</g>
<g>
	<g>
		<path d="M13.34,21.54c0.51-0.8,1.21-1.84,2.28-1.84c0.98,0,1.68,0.84,2.15,1.59c0.34,0.55,1.15,0.07,0.86-0.5
			c-0.41-0.83-1.13-2.37-2.33-1.93c-0.99,0.36-1.11,1.78-0.99,2.66c0.11,0.8,0.55,1.86,1.51,1.9c1.17,0.05,1.65-1.44,1.85-2.33
			c0.14-0.63-0.82-0.89-0.96-0.27c-0.07,0.3-0.15,0.94-0.4,1.17c-0.9,0.83-1.02-0.47-1.03-0.92c-0.02-0.59-0.1-0.9,0.53-0.82
			c0.63,0.09,0.69,0.51,0.95,1.04c0.29-0.17,0.58-0.34,0.86-0.5c-0.67-1.07-1.66-2.09-3.01-2.09c-1.46,0-2.43,1.21-3.15,2.34
			C12.13,21.58,12.99,22.08,13.34,21.54L13.34,21.54z"/>
	</g>
</g>
<g>
	<g>
		<path d="M22.32,21.17c0.09-1.36,1.58-1.39,2.49-0.89c0.76,0.42,1.24,1.15,1.6,1.92c0.29-0.17,0.58-0.34,0.86-0.5
			c-0.5-0.66-1.33-2.41-2.37-2.25c-1.07,0.16-1.23,1.59-0.98,2.41c0.26,0.85,1.06,1.59,1.99,1.54c1.02-0.05,1.44-1.06,1.2-1.95
			c-0.17-0.62-1.13-0.36-0.96,0.27c-0.1,0.59-0.3,0.79-0.62,0.6c-0.22-0.07-0.39-0.22-0.51-0.43c-0.18-0.28-0.44-1.08-0.04-1.24
			c0.12-0.21,0.23-0.17,0.32,0.09c0.14,0.18,0.28,0.35,0.41,0.54c0.24,0.31,0.47,0.62,0.71,0.93c0.39,0.51,1.14,0.09,0.86-0.5
			c-0.61-1.3-1.71-2.52-3.21-2.7c-1.46-0.17-2.64,0.68-2.74,2.17C21.28,21.81,22.28,21.81,22.32,21.17L22.32,21.17z"/>
	</g>
</g>
<g>
	<g>
		<path d="M19.31,18.6c0.4,1.13,0.45,2.45-0.05,3.57c-0.34,0.74-0.85,1.29-0.95,2.12c-0.12,1.01,0.42,2.63,1.71,2.1
			c0.59-0.24,0.33-1.21-0.27-0.96c-0.5,0.21-0.3-1.56-0.24-1.71c0.13-0.3,0.35-0.57,0.51-0.86c0.24-0.45,0.4-0.9,0.5-1.4
			c0.19-1.04,0.11-2.12-0.24-3.11C20.06,17.73,19.1,17.99,19.31,18.6L19.31,18.6z"/>
	</g>
</g>
<g>
	<g>
		<path d="M15.19,26.27c0.85,1.51,1.91,3.21,3.78,3.48c1.53,0.22,2.82-0.78,3.29-2.18c0.2-0.61-0.76-0.87-0.96-0.27
			c-0.5,1.51-2.11,1.83-3.34,0.97c-0.88-0.61-1.4-1.61-1.91-2.51C15.74,25.2,14.88,25.71,15.19,26.27L15.19,26.27z"/>
	</g>
</g>
<g>
	<g>
		<path d="M11.51,17.99c1.52-4.16,4.01-0.22,6.34-1.06c1.2-0.43,1.75-1.59,2.22-2.69c-0.29,0-0.58,0-0.86,0
			c0.55,1.16,1.47,2.03,2.79,2.16c0.57,0.06,1.05-0.25,1.57-0.23c0.54,0.02,0.64,0.23,1.23,0.41c1,0.3,1.41,0.12,2.38,0.78
			c0.7,0.48,1.19,1.42,1.95,1.81c0.75,0.38,1.34,0.24,1.95-0.29c0.49-0.42-0.22-1.13-0.71-0.71c-0.59,0.51-2.01-1.7-2.56-2.02
			c-1.03-0.61-2.62-0.1-3.44-1.15c-0.14-0.17-0.43-0.18-0.61-0.08c-1.91,0.74-3.14,0.34-3.69-1.19c-0.15-0.32-0.72-0.34-0.86,0
			c-0.48,1.11-0.51,1.26-1.81,1.7c-1.98,0.68-0.68,0.24-1.95-0.02c-0.85-0.18-1.28-0.46-2.22-0.27c-1.4,0.27-2.22,1.31-2.68,2.58
			C10.33,18.33,11.29,18.59,11.51,17.99L11.51,17.99z"/>
	</g>
</g>
<g>
	<g>
		<path d="M29.79,11.81c-4.2-1.64-8.68-2.37-13.19-1.93c-1.62,0.16-3.78,0.24-5.24,1.01c-1.1,0.57-1.3,1.37-1.79,2.42
			c-0.61,1.3-1.36,2.07-2.37,3c-0.2,0.18-0.42,0.35-0.57,0.58c-0.81,1.21-0.29,2.1,0.09,3.33c0.41,1.31,0.8,2.5,0.7,3.9
			c-0.04,0.59-0.26,1.03-0.18,1.65C7.4,27,8.01,27.73,9.24,27.92c0.63,0.1,0.9-0.86,0.27-0.96c-0.85-0.13-1-2.94-0.91-3.61
			c0.06-0.45,0.12-0.65,0.05-1.17c-0.1-0.82-0.63-1.36-0.86-2.12c-0.33-1.13,0.1-2.75,0.87-3.58c0.16-0.17,0.4-0.27,0.57-0.43
			c0.59-0.57,0.76-1.13,1.11-1.83c0.95-1.86,2.13-2.7,4.14-3.05c1.64-0.29,3.3-0.43,4.97-0.42c3.47,0.03,6.84,0.76,10.06,2.02
			C30.12,13,30.38,12.04,29.79,11.81L29.79,11.81z"/>
	</g>
</g>
<g>
	<g>
		<path d="M28.64,12.47c2.16,0.71,3.39,1.63,2.64,3.92c-0.18,0.55-0.73,0.99-0.92,1.55c-0.31,0.92-0.36,1.63,0.14,2.48
			c0.22,0.38,0.67,0.61,0.9,0.97c0.89,1.4,1.04,2.99,0.5,4.53c-0.81,2.34-2.81,3.75-5.15,4.22c-0.63,0.13-0.36,1.09,0.27,0.96
			c3.86-0.79,7.7-5.07,5.91-9.23c-0.16-0.37-0.44-0.64-0.62-0.97c-0.19-0.23-0.4-0.45-0.63-0.65c0.01-0.89,0.01-1.77,0.02-2.66
			c0.35-1.2,1.27-1.69,1-3.09c-0.35-1.8-2.26-2.5-3.78-3C28.29,11.3,28.03,12.27,28.64,12.47L28.64,12.47z"/>
	</g>
</g>
<g>
	<g>
		<path d="M14.32,31.68c-1.28,0.28-2.56,0.55-3.85,0.83c-0.63,0.14-0.36,1.1,0.27,0.96c1.28-0.28,2.56-0.55,3.85-0.83
			C15.22,32.51,14.95,31.55,14.32,31.68L14.32,31.68z"/>
	</g>
</g>
<g>
	<g>
		<path d="M21.62,33.15c1.99,1.15,4.21,1.5,6.45,1.01c0.63-0.14,0.36-1.1-0.27-0.96c-1.98,0.43-3.93,0.11-5.68-0.91
			C21.57,31.96,21.06,32.82,21.62,33.15L21.62,33.15z"/>
	</g>
</g>
<g>
	<g>
		<path d="M17.93,9.89c-0.66-1.87-1.31-3.75-1.97-5.62c-0.21,0.21-0.41,0.41-0.62,0.62c1.09,0.46,3.05,1.8,4.26,1.44
			c1.36-0.4,1.93-3.09,2.44-4.19c-0.3-0.04-0.61-0.08-0.91-0.12c0.33,0.89,0.77,3.72,1.94,4.1c1.21,0.39,3.56-1.65,4.5-2.2
			c-0.25-0.14-0.5-0.29-0.75-0.43c0.04,1.23,0.08,2.45,0.11,3.68c0.01,0.33,0.31,0.56,0.63,0.48c1.3-0.31,2.61-0.62,3.91-0.94
			c-0.19-0.24-0.38-0.49-0.56-0.73c-1.18,1.66-2.15,3.38-2.96,5.25c-0.25,0.58,0.61,1.09,0.86,0.5c0.81-1.87,1.78-3.59,2.96-5.25
			c0.27-0.38-0.17-0.83-0.56-0.73c-1.3,0.31-2.61,0.62-3.91,0.94c0.21,0.16,0.42,0.32,0.63,0.48c-0.04-1.23-0.08-2.45-0.11-3.68
			c-0.01-0.38-0.42-0.63-0.75-0.43c-0.65,0.38-2.04,1.57-2.77,1.61c-1.62,0.08-1.79-1.81-2.2-2.91c-0.13-0.36-0.72-0.55-0.91-0.12
			c-0.43,0.95-0.96,2.96-1.89,3.39c-0.96,0.44-2.69-0.7-3.67-1.11c-0.35-0.15-0.73,0.28-0.62,0.62c0.66,1.87,1.31,3.75,1.97,5.62
			C17.17,10.76,18.14,10.5,17.93,9.89L17.93,9.89z"/>
	</g>
</g>
<g>
	<g>
		<path d="M9.94,21.87c-0.52,0.37-0.95,0.93-0.95,1.6c0,0.63,0.42,1.08,1.04,1.13c0.64,0.05,0.64-0.95,0-1
			c-0.13-0.01,0.06-0.47,0.07-0.48c0.08-0.16,0.2-0.29,0.35-0.39C10.96,22.36,10.47,21.49,9.94,21.87L9.94,21.87z"/>
	</g>
</g>
<g>
	<g>
		<path d="M27.2,25.59c0.15,0.19,0.46,0.55,0.37,0.83c-0.11,0.32-0.62,0.29-0.89,0.3c-0.64,0.02-0.64,1.02,0,1
			c0.7-0.02,1.49-0.16,1.79-0.89c0.3-0.73-0.13-1.39-0.57-1.95C27.5,24.38,26.8,25.09,27.2,25.59L27.2,25.59z"/>
	</g>
</g>
<g>
	<g>
		<path d="M10.9,32.49c-1.65,0.07-3.58,1.42-1.79,2.98c1.49,1.29,5.5,1.58,6.19-0.65c-0.32,0-0.64,0-0.96,0
			c0.52,1.65,1.62,2.93,3.37,3.28c1.53,0.31,3.21-0.15,3.45-1.84c-0.28,0.07-0.56,0.15-0.84,0.22c1.52,1.21,7.21,3.01,6.54-0.77
			c-0.24,0.19-0.49,0.38-0.73,0.56c1.41,0.68,4.18,1.55,4.77-0.72c0.52-2.01-1.78-2.43-3.21-2.33c-0.64,0.04-0.64,1.04,0,1
			c0.84-0.33,1.13-0.03,0.87,0.9c0.39,1.44-0.25,1.54-1.92,0.29c-0.41-0.2-0.81,0.13-0.73,0.56c-1.05,1.03-2.11,1.29-3.18,0.76
			c-0.64-0.17-1.2-0.49-1.69-0.95c-0.25-0.2-0.78-0.2-0.84,0.22c-0.86,1.31-1.82,1.55-2.88,0.71c-1.13-0.22-1.8-0.93-2.01-2.15
			c-0.15-0.47-0.82-0.48-0.96,0c-0.61,0.69-1.33,0.94-2.17,0.75c-1.7,0.26-2.12-0.34-1.26-1.8C11.54,33.47,11.54,32.47,10.9,32.49
			L10.9,32.49z"/>
	</g>
</g>
<g>
	<g>
		<path d="M8.88,27.77c0.82,0.81-0.33,1.52,0.03,2.39c0.19,0.45,0.55,0.49,0.96,0.63c0.51,0.17,0.41,0.04,0.47,0.56
			c0.04,0.28-0.01,0.49,0.1,0.77c0.21,0.53,0.66,0.84,1.2,0.95c0.63,0.12,0.9-0.84,0.27-0.96c-0.91-0.18-0.32-1.19-0.72-1.78
			c-0.26-0.37-0.63-0.27-0.95-0.48c-0.48-0.31,0.02-0.92,0-1.43c-0.02-0.54-0.27-0.98-0.65-1.35C9.13,26.6,8.42,27.31,8.88,27.77
			L8.88,27.77z"/>
	</g>
</g>
<g>
	<g>
		<path d="M27.1,30.11c-0.67,0.05-1.27,0.38-1.57,1.01c-0.19,0.39-0.1,0.82-0.47,1.11c-0.36,0.28-0.85,0.48-1.25,0.7
			c-0.56,0.31-0.06,1.18,0.5,0.86c0.56-0.31,1.33-0.59,1.74-1.11c0.4-0.53,0.18-1.51,1.05-1.57C27.74,31.07,27.74,30.07,27.1,30.11
			L27.1,30.11z"/>
	</g>
</g>
</svg>
