<?xml version="1.0" encoding="utf-8"?>
<!-- Generator: Adobe Illustrator 23.0.2, SVG Export Plug-In . SVG Version: 6.00 Build 0)  -->
<svg version="1.1" id="Layer_1" xmlns="http://www.w3.org/2000/svg" xmlns:xlink="http://www.w3.org/1999/xlink" x="0px" y="0px"
	 viewBox="0 0 40.5 40.5" style="enable-background:new 0 0 40.5 40.5;" xml:space="preserve">
<style type="text/css">
	.st0{fill:#FFD164;}
	.st1{fill:#FFFFFF;stroke:#353535;stroke-miterlimit:10;}
	.st2{fill:#FFFFFF;stroke:#353535;stroke-width:0.75;stroke-miterlimit:10;}
	.st3{fill:#353535;stroke:#353535;stroke-miterlimit:10;}
</style>
<path class="st0" d="M13.4,26.3c-1.1-2.1-1.9-2.8-2.4-2.7c-1,0.1-0.7,2.5-2,3.2s-3.7-0.5-4.2-2.1c-0.5-1.4,0.7-2.3,0.2-3.5
	c-0.7-1.7-3.4-1.3-3.8-2.6c-0.4-1.3,2.5-2,3.6-5.3c0.7-2.4-0.3-3.5,0.6-5c1.1-1.9,3-0.9,6.1-2.2c4-1.7,3.6-4.6,6.3-4.7
	c2.7-0.2,3.3,2.7,7.3,3.3c3.2,0.5,4.5-1,5.9,0.4c1.4,1.3,0.4,3.2,2,5.6c1.4,2.1,2.8,1.5,3.6,3.3c0.9,2-0.5,3.1,0.3,5.8
	c0.7,2.3,0,3.2,0.1,4.8c0.1,1.6-0.4,3.1-1.7,3.1c-1.5,0-0.3-0.6-3.5-1.1c-3.1-0.5-3.2-2.2-6.5-3.5c-2.7-1.1-3.4-3.1-4.9-2.7
	c-1.3,0.3-1.3,1.8-2.9,3.6C16.2,25.3,14.6,25.9,13.4,26.3z"/>
<path class="st1" d="M10.6,16.6c-5.5,6.3-4.6,15.6,1,20.1c5.2,4.2,13.1,3.2,17.6-1.1c6.3-6,5.3-17.9-1.8-22
	C22.5,10.8,15.6,11.9,10.6,16.6z"/>
<path class="st2" d="M11.2,21.5c0,0,4.2-2.7,6.1,0.2"/>
<path class="st2" d="M22.8,22.2c0,0,4.2-2.7,6.1,0.2"/>
<circle class="st3" cx="15.6" cy="22.2" r="1.2"/>
<circle class="st3" cx="27.2" cy="22.9" r="1.2"/>
<path class="st2" d="M19.2,23.1c0,0,0.7,3.7-0.5,4.8s-0.7,2.2,1,1.4"/>
<path class="st2" d="M15.2,32.3c0,0,4,4.7,9.3,0.6"/>
<path class="st0" d="M13.4,11c-0.1,3,0.5,3.9,1.1,4.3c1.4,0.7,2.9-1.3,5.2-0.7c1.9,0.5,1.9,2.3,3.6,2.6c1.9,0.3,2.8-1.6,4.3-1.1
	c1.4,0.5,1.2,2.3,2.6,2.8c1.2,0.4,2.9-0.4,3.4-1.6c0.8-2-1.8-4.5-2.6-5.2c-2.5-2.3-5.3-2.9-6.4-3.1C19.4,7.9,15,10,13.4,11z"/>
</svg>
