<?xml version="1.0" encoding="utf-8"?>
<!-- Generator: Adobe Illustrator 23.0.2, SVG Export Plug-In . SVG Version: 6.00 Build 0)  -->
<svg version="1.1" id="Layer_1" xmlns="http://www.w3.org/2000/svg" xmlns:xlink="http://www.w3.org/1999/xlink" x="0px" y="0px"
	 viewBox="0 0 74.9 40.5" style="enable-background:new 0 0 74.9 40.5;" xml:space="preserve">
<style type="text/css">
	.st0{fill:none;stroke:#000000;stroke-miterlimit:10;}
	.st1{fill:#FFD164;}
	.st2{fill:#6394FF;}
	.st3{fill:#E8BD67;}
	.st4{fill:#C6A05C;}
	.st5{fill:#3C70CE;}
	.st6{fill:#FFD685;}
</style>
<polyline class="st0" points="32.5,8.7 39.7,2.6 44,10 "/>
<rect x="16" y="5.5" transform="matrix(0.9995 3.203138e-02 -3.203138e-02 0.9995 0.6922 -1.1888)" class="st1" width="42.8" height="31.1"/>
<rect x="24.5" y="2.3" transform="matrix(3.203138e-02 -0.9995 0.9995 3.203138e-02 15.2493 57.7676)" class="st2" width="25.8" height="37.5"/>
<polygon class="st3" points="16.5,4.8 19.1,7.5 18.3,33.3 15.5,35.9 "/>
<polygon class="st4" points="18.3,33.3 15.5,35.9 58.4,37.2 55.8,34.5 "/>
<polygon class="st5" points="55.8,34.5 56.6,8.7 19.1,7.5 55.1,9.9 "/>
<polygon class="st6" points="16.5,4.8 19.1,7.5 56.6,8.7 59.4,6.2 "/>
</svg>
