<?xml version="1.0" encoding="utf-8"?>
<!-- Generator: Adobe Illustrator 23.0.2, SVG Export Plug-In . SVG Version: 6.00 Build 0)  -->
<svg version="1.1" id="Layer_1" xmlns="http://www.w3.org/2000/svg" xmlns:xlink="http://www.w3.org/1999/xlink" x="0px" y="0px"
	 viewBox="0 0 202 164.5" style="enable-background:new 0 0 202 164.5;" xml:space="preserve">
<style type="text/css">
	.st0{fill:#5E8FE5;}
	.st1{fill:#6394FF;}
	.st2{fill:#224FB3;}
	.st3{fill:#FFD164;}
	.st4{fill:#DDB158;}
	.st5{fill:#8BB4FC;}
</style>
<polygon class="st0" points="34.5,39.2 34.5,125 121.2,154.8 171,122.2 171,42.9 89.9,24.5 "/>
<polygon class="st1" points="-126.2,18.7 -175.2,42.8 -79.2,62.9 -43.7,27.4 "/>
<polygon class="st0" points="-175.2,42.8 -175.2,114 -80.2,141 -79.2,62.9 "/>
<polygon class="st2" points="-43.7,27.4 -43.7,105.8 -80.2,141 -79.2,62.9 "/>
<polygon class="st3" points="-126.2,127.9 -123.1,54.4 -138.7,50.5 -138.7,124.4 "/>
<polygon class="st3" points="-55.5,40.8 -55.5,117.1 -62.8,124.2 -70.7,54.4 -55.5,39.2 "/>
<polygon class="st3" points="-138.7,50.5 -103.4,21.1 -88.2,22.9 -123.1,54.4 "/>
<polygon class="st3" points="-70.7,54.4 -156.4,33.5 -144,27.4 -55.5,39.2 "/>
<circle class="st4" cx="-114.2" cy="32.1" r="11.5"/>
<polygon class="st3" points="-136.4,9.3 -143,22.3 -115.3,31 "/>
<polygon class="st3" points="-111.6,7.1 -113.4,26.5 -99.6,9.9 "/>
<polygon class="st3" points="34.5,39.2 34.5,125 121.2,154.8 121.2,64.1 "/>
<polygon class="st2" points="121.2,154.8 171,122.2 171,42.9 121.2,64.1 "/>
<path class="st3" d="M-43.7,8.1"/>
<polygon class="st5" points="34.5,39.2 89.9,24.5 171,42.9 121.2,64.1 "/>
<polygon class="st2" points="86.8,54.2 84.3,142.1 66.2,135.9 67.7,48.3 "/>
<polygon class="st1" points="131.6,33.9 86.8,54.2 67.7,48.3 121.2,31.6 "/>
<polygon class="st2" points="73.8,28.8 60.6,32.2 137.7,57.8 153.9,50.2 "/>
<polygon class="st1" points="137.7,57.8 139.5,142.9 153.9,133.4 153.9,50.2 "/>
<ellipse class="st3" cx="104.1" cy="37.1" rx="10.3" ry="6.1"/>
<polyline class="st3" points="81.3,15.8 92.3,5.8 106.2,36.5 "/>
<path class="st3" d="M102.8,38.1c2.5-2.2,30.3-34,30.3-34l13,12.2L102.8,38.1z"/>
</svg>
