<?xml version="1.0" encoding="utf-8"?>
<!-- Generator: Adobe Illustrator 23.0.2, SVG Export Plug-In . SVG Version: 6.00 Build 0)  -->
<svg version="1.1" id="Layer_1" xmlns="http://www.w3.org/2000/svg" xmlns:xlink="http://www.w3.org/1999/xlink" x="0px" y="0px"
	 viewBox="0 0 203 165.5" style="enable-background:new 0 0 203 165.5;" xml:space="preserve">
<style type="text/css">
	.st0{fill:#224FB3;}
	.st1{fill:#6394FF;}
	.st2{fill:#FFD164;}
	.st3{fill:#4579D6;}
	.st4{fill:#3066C6;}
	.st5{fill:none;stroke:#224FB3;stroke-width:4;stroke-miterlimit:10;}
</style>
<g>
	<polygon class="st0" points="156.4,100.3 156.4,101.5 153.5,102.3 153.4,100.3 	"/>
	<polygon class="st0" points="87.4,100.3 87.4,101.7 91.8,101.7 	"/>
	<ellipse class="st0" cx="121.9" cy="101.6" rx="34.5" ry="5"/>
	<polygon class="st1" points="38.6,124.3 58.7,106.2 136.8,115.2 123,142.4 	"/>
	<ellipse class="st1" cx="121.9" cy="100.3" rx="34.5" ry="5"/>
	<ellipse class="st0" cx="122.9" cy="100.2" rx="16.1" ry="2.7"/>
	<rect x="106.8" y="86.5" class="st0" width="32.1" height="13.7"/>
	<rect x="70.5" y="21.3" class="st1" width="77" height="71"/>
	<rect x="79" y="29.1" class="st2" width="60" height="55.3"/>
	<polyline class="st0" points="147.5,21.3 161.2,41.3 161.2,84.4 147.5,92.3 	"/>
	<polygon class="st2" points="37.7,121.5 57.8,103.4 135.9,112.5 122.1,139.7 	"/>
	<path class="st1" d="M164.3,132.2c-1.2,4.2-3.5,7.6-6.1,9.8c-2,1.6-4.2,2.5-6.3,2.3c-0.4,0-0.9-0.1-1.3-0.2
		c-2.2-0.6-3.9-2.4-4.9-4.8c-0.4-1-0.7-2.1-0.9-3.3c-0.5-2.8-0.3-5.9,0.7-9.2c2.4-8.1,8.5-13.3,13.7-11.8c0.8,0.2,1.5,0.6,2.1,1.1
		c1.1,0.8,1.9,1.9,2.6,3.3C165.5,122.6,165.7,127.3,164.3,132.2z"/>
	<ellipse transform="matrix(0.2803 -0.9599 0.9599 0.2803 -2.2212 237.8608)" class="st2" cx="157.5" cy="120.4" rx="3.7" ry="1"/>
	<polygon class="st0" points="37.7,121.5 38.6,124.3 123,142.4 122.1,139.7 	"/>
	<polygon class="st1" points="135.9,112.5 136.8,115.5 134.2,120.3 133.9,116.4 	"/>
	<path class="st0" d="M164.3,132.2c-1.2,4.2-3.5,7.6-6.1,9.8c-2,1.6-4.2,2.5-6.3,2.3c-0.4,0-0.9-0.1-1.3-0.2
		c-2.2-0.6-3.9-2.4-4.9-4.8c-0.4-1-0.7-2.1-0.9-3.3c5.6,1.3,22.3,3.4,19.1-16.7C165.5,122.6,165.7,127.3,164.3,132.2z"/>
	<polygon class="st3" points="79,84.4 78.5,85.3 139,85.3 139,84.4 	"/>
	<polygon class="st4" points="79,29.1 78.3,28.4 78.5,85.3 79,84.4 	"/>
	<polygon class="st0" points="139,29.1 139,28.4 78.3,28.4 79,29.1 	"/>
	<circle class="st1" cx="123" cy="44.5" r="8.4"/>
	<line class="st5" x1="93.5" y1="39.3" x2="124.4" y2="76"/>
	<rect x="87.4" y="64.9" class="st0" width="12.9" height="12.9"/>
</g>
</svg>
