<?xml version="1.0" encoding="utf-8"?>
<!-- Generator: Adobe Illustrator 23.0.2, SVG Export Plug-In . SVG Version: 6.00 Build 0)  -->
<svg version="1.1" id="Layer_1" xmlns="http://www.w3.org/2000/svg" xmlns:xlink="http://www.w3.org/1999/xlink" x="0px" y="0px"
	 viewBox="0 0 475 475" style="enable-background:new 0 0 475 475;" xml:space="preserve">
<path d="M351,196.9h-0.5c-7.4,0-14.5,2.7-20,7.6c-4.4-12.3-15.7-21.1-28.9-21.1c-8.1,0.1-15.8,3.4-21.4,9.2
	c-5.2-10.4-15.5-17.5-27.4-17.5h-0.6c-6.4-0.1-12.6,2-17.6,5.9v-74.4c0-18-14-32.6-31-32.6c-17,0-30.9,14.6-30.9,32.6l-0.1,147.6
	l-8.4-10.1c-7.3-9.1-18.1-14.8-29.8-15.6c-11.4-0.8-22.7,3.2-31.1,11l-7.3,6c-2.3,1.9-3,5.3-1.6,8L165,389.2
	c12.9,24.8,37.5,40.3,64.2,40.3h79.6v-0.1c40.4,0,73.1-35,73.2-78.1c0-19.3-0.1-33.6,0-45.2c0-31.1,0-42.6-0.1-76.9
	C381.8,211.4,367.9,196.9,351,196.9z M368.9,306.1c0,11.6,0,26-0.1,45.3c0,35.9-27.1,65.2-60.4,65.2h-79.3
	c-21.8,0-42-12.8-52.7-33.4l-68.3-131.2l3.4-2.8c0.1-0.1,0.2-0.2,0.2-0.2c5.8-5.5,13.6-8.3,21.5-7.7c8.1,0.6,15.6,4.6,20.7,11
	l19.8,24.1c1.7,2.1,4.6,2.9,7.2,2s4.3-3.4,4.3-6.1l0.1-165.6c0-10.8,8.2-19.7,18.1-19.7c9.9,0,18.1,8.8,18.1,19.7v99.9
	c0,0.3,0,0.7,0,1.1c0,0.2,0,0.3,0,0.5v42.7c0,3.6,2.9,6.5,6.5,6.5s6.5-2.9,6.5-6.5v-44c0-10.5,8-18.6,17.6-18.6h0.6
	c9.9,0,18.1,8.6,18.1,19.5v39.1c0,3.6,2.9,6.5,6.5,6.5s6.5-2.9,6.5-6.5V216c0-10.9,7.8-19.7,17.8-19.7c9.9,0,17.7,8.8,17.7,19.7
	v28.9c0,3.6,2.9,6.5,6.5,6.5c3.6,0,6.5-2.9,6.5-6.5v-15.7c0-10.9,8.3-19.4,18.2-19.4h0.5c9.9,0,17.9,8.6,17.9,19.5
	C369,263.6,369,275,368.9,306.1z"/>
<path d="M152,109.4c3.6,0,6.5-2.9,6.5-6.5c0.1-24.7,20.1-44.6,44.8-44.6c24.7,0,44.7,19.9,44.8,44.6c0,3.6,2.9,6.5,6.5,6.5
	c3.6,0,6.5-2.9,6.5-6.5c-0.1-31.8-25.9-57.5-57.7-57.5c-31.8,0-57.6,25.7-57.7,57.5C145.6,106.5,148.5,109.4,152,109.4z"/>
</svg>
