<?xml version="1.0" encoding="utf-8"?>
<!-- Generator: Adobe Illustrator 23.0.2, SVG Export Plug-In . SVG Version: 6.00 Build 0)  -->
<svg version="1.1" id="Layer_1" xmlns="http://www.w3.org/2000/svg" xmlns:xlink="http://www.w3.org/1999/xlink" x="0px" y="0px"
	 viewBox="0 0 65 34.4" style="enable-background:new 0 0 65 34.4;" xml:space="preserve">
<style type="text/css">
	.st0{fill:#131313;}
	.st1{fill:#D8D8D8;}
	.st2{fill:#FFFFFF;}
</style>
<g>
	<path class="st0" d="M48.8,34.4H17.2C8.2,34.4,1,27.1,1,18.2l0,0C1,9.2,8.2,2,17.2,2h31.6C57.8,2,65,9.2,65,18.2l0,0
		C65,27.1,57.8,34.4,48.8,34.4z"/>
</g>
<g>
	<path class="st1" d="M47.8,32.4H16.2C7.2,32.4,0,25.1,0,16.2l0,0C0,7.2,7.2,0,16.2,0h31.6C56.8,0,64,7.2,64,16.2l0,0
		C64,25.1,56.8,32.4,47.8,32.4z"/>
</g>
<circle class="st2" cx="47.5" cy="16.2" r="12.5"/>
</svg>
