<?xml version="1.0" encoding="utf-8"?>
<!-- Generator: Adobe Illustrator 23.0.2, SVG Export Plug-In . SVG Version: 6.00 Build 0)  -->
<svg version="1.1" id="Layer_1" xmlns="http://www.w3.org/2000/svg" xmlns:xlink="http://www.w3.org/1999/xlink" x="0px" y="0px"
	 viewBox="0 0 181.2 181.2" style="enable-background:new 0 0 181.2 181.2;" xml:space="preserve">
<style type="text/css">
	.st0{fill:#FFFFFF;}
	.st1{fill:none;stroke:#2F2F2F;stroke-width:7;stroke-linejoin:round;stroke-miterlimit:10;}
	.st2{fill:#F92814;}
	.st3{fill:#FF583E;}
	.st4{fill:#351B11;}
	.st5{fill:#FFCF00;}
	.st6{fill:#FFBC00;}
</style>
<path class="st0" d="M154.8,181.2H26.5C11.9,181.2,0,169.3,0,154.8V26.5C0,11.9,11.9,0,26.5,0h128.3c14.6,0,26.5,11.9,26.5,26.5
	v128.3C181.2,169.3,169.3,181.2,154.8,181.2z"/>
<polyline class="st1" points="57.5,39.7 78.7,17.9 108.5,35.1 "/>
<polygon class="st2" points="161.4,139.6 97.2,144.9 89.3,88.6 95.9,82.7 152.1,101.9 "/>
<polygon class="st3" points="161.4,139.6 97.2,144.9 39.7,148.8 36.4,88.6 72.8,103.8 89.3,88.6 95.9,82.7 152.1,101.9 "/>
<path class="st4" d="M156.1,23.1L11.9,37.7l13.2,129.6l144.2-14.6L156.1,23.1z M47,143.5l-8.6-86l95.9-9.9l8.6,86L47,143.5z"/>
<path class="st5" d="M130.3,70.1c0,7.3-6,13.9-13.9,13.9s-13.9-6-13.9-13.9c0-7.3,6-13.9,13.9-13.9S130.3,62.8,130.3,70.1z"/>
<path class="st6" d="M130.3,70.1c0,7.3-6,13.9-13.9,13.9V56.2C124.3,56.2,130.3,62.8,130.3,70.1z"/>
</svg>
