<?xml version="1.0" encoding="utf-8"?>
<!-- Generator: Adobe Illustrator 23.0.2, SVG Export Plug-In . SVG Version: 6.00 Build 0)  -->
<svg version="1.1" id="Layer_1" xmlns="http://www.w3.org/2000/svg" xmlns:xlink="http://www.w3.org/1999/xlink" x="0px" y="0px"
	 viewBox="0 0 181.2 181.2" style="enable-background:new 0 0 181.2 181.2;" xml:space="preserve">
<style type="text/css">
	.st0{fill:#FFFFFF;}
	.st1{fill:none;stroke:#2F2F2F;stroke-width:7;stroke-linejoin:round;stroke-miterlimit:10;}
	.st2{fill:#F92814;}
	.st3{fill:#FF583E;}
	.st4{fill:#351B11;}
	.st5{fill:#FFCF00;}
	.st6{fill:#FFBC00;}
</style>
<polygon class="st0" points="45.9,40.8 16.9,44.8 35.6,167.8 164.1,149.8 149.4,31 "/>
<polyline class="st1" points="53.4,33.2 77.2,8.7 110.7,28 "/>
<polygon class="st2" points="170.1,145.4 98,151.4 89.1,88.1 96.6,81.5 159.7,103 "/>
<polygon class="st3" points="170.1,145.4 98,151.4 33.4,155.7 29.7,88.1 70.6,105.2 89.1,88.1 96.6,81.5 159.7,103 "/>
<path class="st4" d="M164.2,14.5L2.2,30.9L17,176.5l162-16.4L164.2,14.5z M41.6,149.8L32,53.2L139.7,42l9.7,96.6L41.6,149.8z"/>
<path class="st5" d="M135.2,67.3c0,8.2-6.7,15.6-15.6,15.6c-8.9,0-15.6-6.7-15.6-15.6c0-8.2,6.7-15.6,15.6-15.6
	C128.5,51.7,135.2,59.1,135.2,67.3z"/>
<path class="st6" d="M135.2,67.3c0,8.2-6.7,15.6-15.6,15.6V51.7C128.5,51.7,135.2,59.1,135.2,67.3z"/>
</svg>
