<?xml version="1.0" standalone="no"?>
<!DOCTYPE svg PUBLIC "-//W3C//DTD SVG 20010904//EN"
 "http://www.w3.org/TR/2001/REC-SVG-20010904/DTD/svg10.dtd">
<svg version="1.0" xmlns="http://www.w3.org/2000/svg"
 width="515.000000pt" height="515.000000pt" viewBox="0 0 515.000000 515.000000"
 preserveAspectRatio="xMidYMid meet">
<metadata>
Created by potrace 1.11, written by Peter Selinger 2001-2013
</metadata>
<g transform="translate(0.000000,515.000000) scale(0.100000,-0.100000)"
fill="#000000" stroke="none">
<path d="M2544 4798 c-14 -4 -65 -8 -113 -9 -47 -1 -97 -6 -111 -10 -14 -5
-50 -10 -80 -12 -30 -2 -70 -11 -89 -20 -19 -9 -49 -17 -67 -17 -18 0 -36 -4
-39 -10 -3 -5 -16 -10 -28 -10 -12 0 -53 -12 -92 -26 -38 -14 -79 -28 -90 -31
-11 -3 -26 -10 -32 -16 -7 -5 -19 -7 -27 -4 -8 3 -20 -1 -26 -9 -7 -8 -19 -14
-26 -14 -8 0 -14 -4 -14 -8 0 -4 -12 -13 -27 -20 -16 -6 -41 -20 -58 -31 -16
-11 -40 -20 -52 -20 -12 -1 -27 -10 -33 -21 -6 -11 -20 -20 -30 -20 -11 0 -20
-3 -20 -8 0 -4 -20 -18 -45 -32 -25 -14 -45 -28 -45 -32 0 -5 -7 -8 -15 -8 -8
0 -15 -4 -15 -8 0 -5 -18 -18 -40 -31 -22 -12 -40 -26 -40 -32 0 -5 -9 -9 -21
-9 -11 0 -18 -4 -15 -8 2 -4 -10 -19 -27 -32 -17 -14 -39 -33 -49 -42 -10 -10
-23 -18 -29 -18 -5 0 -8 -4 -5 -8 3 -4 -13 -19 -36 -33 -22 -13 -54 -44 -71
-69 -16 -25 -36 -52 -44 -60 -34 -37 -62 -70 -98 -116 -22 -27 -43 -51 -48
-52 -4 -2 -5 -7 -2 -11 2 -4 -11 -24 -29 -43 -19 -20 -37 -47 -41 -59 -5 -13
-18 -37 -30 -54 -35 -47 -76 -121 -70 -127 3 -3 -1 -11 -10 -18 -8 -7 -15 -19
-15 -28 0 -8 -7 -23 -15 -32 -9 -10 -18 -30 -21 -45 -3 -16 -14 -41 -24 -55
-11 -15 -25 -52 -31 -81 -6 -30 -15 -56 -20 -59 -4 -3 -10 -17 -13 -30 -3 -14
-8 -36 -11 -50 -33 -128 -54 -242 -71 -380 -12 -96 -4 -495 10 -519 2 -3 7
-35 11 -71 3 -35 11 -72 16 -83 6 -10 12 -38 13 -61 2 -23 11 -56 20 -73 9
-18 16 -46 16 -63 0 -16 4 -30 10 -30 5 0 9 -3 9 -7 -1 -5 0 -11 1 -15 1 -5 3
-16 5 -25 1 -10 14 -45 29 -78 16 -33 29 -67 31 -76 2 -9 22 -51 44 -94 23
-42 41 -82 41 -89 0 -7 11 -26 25 -42 43 -49 45 -52 45 -74 0 -11 5 -20 10
-20 6 0 10 -6 10 -12 1 -14 46 -72 92 -119 16 -16 28 -32 28 -37 0 -5 9 -17
20 -27 11 -10 18 -20 16 -24 -4 -6 15 -37 24 -39 19 -3 40 -16 40 -24 0 -13
46 -68 52 -62 3 2 11 -7 18 -21 7 -14 19 -25 26 -25 7 0 18 -9 24 -21 7 -11
14 -18 17 -15 4 3 11 -4 17 -16 6 -13 20 -27 31 -33 31 -16 65 -48 65 -62 0
-7 3 -12 7 -11 12 3 96 -43 113 -62 8 -9 37 -29 65 -44 27 -14 46 -26 42 -26
-4 0 -2 -6 5 -14 7 -8 15 -12 17 -10 5 4 184 -88 192 -99 3 -5 8 -8 10 -6 7 4
79 -25 79 -31 0 -4 6 -7 13 -8 6 0 50 -14 97 -31 47 -17 94 -30 106 -31 11 0
29 -7 40 -15 10 -8 33 -15 51 -15 17 0 44 -5 58 -10 15 -6 50 -13 78 -16 29
-3 68 -9 87 -14 87 -21 383 -30 515 -16 39 5 82 9 96 10 14 2 30 5 35 8 5 3
29 9 54 12 46 6 74 11 122 22 15 3 29 5 30 4 2 -1 21 5 43 14 22 9 49 17 60
19 11 2 34 10 50 16 17 7 41 15 54 17 13 3 53 18 90 35 36 17 74 31 83 32 9 1
14 5 12 9 -3 4 4 8 15 8 11 0 26 8 33 18 7 9 22 19 33 20 11 2 24 8 29 13 6 5
17 9 26 9 8 0 22 9 30 20 8 11 22 20 31 20 9 0 22 7 29 15 7 8 19 15 26 15 8
0 14 7 14 15 0 10 10 15 29 15 20 0 32 6 35 18 3 10 20 26 37 36 17 10 46 31
63 47 18 16 36 26 40 22 3 -3 6 -1 6 5 0 7 6 12 13 12 8 0 19 11 25 25 7 14
20 29 29 32 23 9 83 69 83 83 0 6 3 9 8 7 9 -6 33 19 25 27 -4 3 1 6 10 6 8 0
19 9 22 20 3 11 12 20 18 20 7 1 40 40 75 89 35 48 77 103 93 122 16 19 36 48
44 64 9 17 25 45 35 63 11 17 17 32 14 32 -3 0 1 7 8 15 26 29 33 40 36 60 2
11 9 25 15 30 12 9 35 54 34 65 0 3 5 15 12 28 7 13 14 33 16 44 3 12 8 24 12
27 5 3 10 15 11 26 2 11 7 25 11 30 7 9 28 67 59 165 6 19 14 50 17 69 3 19 7
37 9 40 2 3 7 22 10 41 3 19 8 46 11 60 3 14 8 45 11 68 3 24 9 54 13 65 12
34 5 526 -8 574 -6 23 -14 61 -17 85 -8 62 -11 76 -29 143 -20 73 -25 92 -32
125 -3 14 -9 30 -13 35 -10 12 -34 97 -32 108 1 4 -3 7 -10 7 -6 0 -8 3 -5 7
4 3 1 13 -6 22 -14 16 -47 99 -46 114 0 5 -6 14 -14 20 -8 7 -24 37 -36 67
-13 30 -36 72 -52 92 -16 20 -29 41 -29 46 0 5 -7 15 -15 22 -8 7 -12 16 -10
21 3 5 -3 14 -15 21 -11 7 -20 19 -20 26 0 7 -7 15 -15 18 -8 4 -13 9 -10 13
2 4 -14 26 -35 49 -22 23 -40 48 -40 57 0 8 -4 15 -10 15 -5 0 -10 7 -10 16 0
8 -5 12 -10 9 -6 -3 -13 1 -16 9 -3 9 -11 16 -18 16 -6 0 -19 13 -29 29 -9 16
-31 41 -48 55 -17 14 -28 26 -24 26 4 0 0 7 -9 15 -8 8 -19 15 -23 15 -5 0
-32 21 -60 48 -59 55 -129 112 -139 112 -3 0 -27 17 -53 39 -25 21 -66 49 -91
62 -25 13 -47 27 -50 30 -3 3 -23 14 -45 26 -22 11 -67 34 -100 51 -33 18 -67
32 -76 32 -9 0 -19 9 -22 20 -3 13 -11 18 -25 15 -11 -2 -36 5 -54 15 -19 10
-49 20 -66 23 -17 3 -35 8 -41 11 -29 18 -239 65 -321 72 -30 3 -62 8 -70 11
-29 12 -47 13 -198 21 -84 4 -164 4 -178 0z"/>
</g>
</svg>
