<svg width="1080" height="1100" viewBox="0 0 1080 1100" fill="none" xmlns="http://www.w3.org/2000/svg">
<rect width="1100" height="1080" transform="translate(1080) rotate(90)" fill="#F7F7F7"/>
<g clip-path="url(#clip0_1303_1065)">
<rect x="92" y="101" width="895.743" height="895.743" rx="59.4452" fill="white"/>
<path d="M30.4853 736.707C80.5361 696.227 154.538 696.814 213.173 723.236C271.807 749.658 317.797 797.756 358.87 847.413C383.001 876.593 423.377 909.456 452.987 885.905C482.597 862.353 459.467 814.335 431.229 789.337C391.427 754.111 342.985 727.926 310.664 685.672C249.915 606.213 265.428 484.128 331.837 409.382C398.245 334.636 504.286 304.067 603.713 311.797C658.185 316.035 712.995 330.534 766.758 320.736C887.728 298.665 928.284 164.668 1054.6 157.684C1108.05 154.723 1164.1 174.771 1197.66 216.675C1231.22 258.58 1237.52 322.906 1206.37 366.652C1187.04 393.775 1156.72 410.478 1132.05 432.82C1078.44 481.415 1090.1 580.017 1096.39 646.174C1104.74 733.814 1134.57 820.743 1122.85 907.998C1111.13 995.254 1033.81 1084.1 948.635 1063.37C897.212 1050.84 861.718 1003.04 841.345 953.983C800.26 855.064 804.569 738.165 852.786 642.603C888.336 572.163 947.15 510.256 956.42 431.837C958.569 413.631 955.408 391.153 938.657 383.875C918.497 375.128 898.303 395.402 885.782 413.496C824.965 501.057 750.569 603.445 644.291 600.789C615.413 600.077 586.658 591.115 558.05 595.138C529.441 599.162 499.978 623.787 505.704 652.22C510.395 675.478 534.864 688.067 556.328 698.046C644.921 739.341 740.287 814.956 726.63 912.123C716.595 983.467 647.351 1033.96 577.006 1047.74C487.67 1065.26 400.54 1036.36 311.778 1031.95C255.731 1029.17 195.791 1048.43 140.667 1038.79C13.1154 1016.51 -88.685 833.083 30.4853 736.707Z" fill="#F29161"/>
<path d="M134.975 236.228V163.075H187.75V174.571H146.993V193.381H179.912V204.877H146.993V224.732H187.75V236.228H134.975ZM198.759 236.228V182.931H209.732V190.246H210.255C211.091 188.853 212.379 187.459 214.121 186.066C217.883 183.279 222.168 181.886 226.975 181.886C233.594 181.886 238.714 183.802 242.337 187.633C246.03 191.465 247.876 197.039 247.876 204.354V236.228H236.903V205.399C236.903 200.731 235.858 197.317 233.768 195.158C231.747 192.928 228.612 191.814 224.363 191.814C220.113 191.814 216.594 193.277 213.808 196.203C211.091 199.059 209.732 202.821 209.732 207.489V236.228H198.759ZM264.906 229.644C260.168 224.488 257.8 217.8 257.8 209.579C257.8 201.358 260.168 194.705 264.906 189.619C269.713 184.464 275.704 181.886 282.88 181.886C287.409 181.886 291.554 183.209 295.316 185.857C296.988 187.041 298.417 188.365 299.601 189.828H300.123V182.931H311.096V256.083H265.637V246.155H300.123V229.435H299.601C298.417 230.898 296.988 232.222 295.316 233.406C291.624 235.984 287.479 237.273 282.88 237.273C275.704 237.273 269.713 234.73 264.906 229.644ZM273.475 196.412C270.688 199.477 269.295 203.866 269.295 209.579C269.295 215.292 270.688 219.681 273.475 222.747C276.262 225.812 280.094 227.345 284.97 227.345C289.569 227.345 293.226 225.812 295.943 222.747C298.73 219.611 300.123 215.222 300.123 209.579C300.123 203.936 298.73 199.582 295.943 196.516C293.226 193.381 289.569 191.814 284.97 191.814C280.094 191.814 276.262 193.346 273.475 196.412ZM324.641 236.228V163.075H335.614V226.3H347.632V236.228H324.641ZM356.832 173.212C355.578 171.958 354.951 170.425 354.951 168.614C354.951 166.802 355.578 165.27 356.832 164.016C358.086 162.692 359.619 162.03 361.43 162.03C363.242 162.03 364.774 162.692 366.028 164.016C367.352 165.27 368.014 166.802 368.014 168.614C368.014 170.425 367.352 171.958 366.028 173.212C364.774 174.466 363.242 175.093 361.43 175.093C359.619 175.093 358.086 174.466 356.832 173.212ZM355.996 236.228V182.931H366.969V236.228H355.996ZM376.856 219.507H388.874C389.361 220.9 390.232 222.224 391.486 223.478C394.064 226.056 397.548 227.345 401.937 227.345C405.768 227.345 408.555 226.753 410.297 225.568C412.039 224.384 412.91 222.886 412.91 221.075C412.91 220.448 412.77 219.89 412.492 219.402C412.213 218.845 411.725 218.357 411.028 217.939C410.332 217.521 409.67 217.173 409.043 216.894C408.416 216.546 407.475 216.233 406.221 215.954C404.967 215.606 403.957 215.362 403.191 215.222C402.424 215.013 401.24 214.735 399.638 214.386C398.105 214.038 396.955 213.794 396.189 213.655C385.042 211.147 379.468 205.782 379.468 197.561C379.468 193.381 381.384 189.724 385.216 186.588C389.048 183.453 394.099 181.886 400.369 181.886C409.078 181.886 415.592 184.673 419.911 190.246C421.862 192.684 423.186 195.471 423.882 198.606H412.387C411.83 197.213 411.063 196.098 410.088 195.262C407.65 192.963 404.41 191.814 400.369 191.814C397.234 191.814 394.865 192.371 393.263 193.486C391.73 194.6 390.964 195.994 390.964 197.666C390.964 198.293 391.103 198.885 391.382 199.442C391.661 199.93 392.148 200.383 392.845 200.801C393.542 201.219 394.203 201.567 394.83 201.846C395.527 202.125 396.468 202.438 397.652 202.786C398.836 203.065 399.847 203.309 400.683 203.518C401.519 203.657 402.668 203.901 404.131 204.249C405.664 204.528 406.848 204.772 407.684 204.981C418.831 207.489 424.405 212.854 424.405 221.075C424.405 225.533 422.385 229.365 418.344 232.57C414.373 235.705 408.904 237.273 401.937 237.273C392.88 237.273 385.948 234.312 381.14 228.39C378.981 225.673 377.553 222.712 376.856 219.507ZM434.831 236.228V163.075H445.804V190.246H446.326C447.162 188.853 448.451 187.459 450.193 186.066C453.955 183.279 458.24 181.886 463.047 181.886C469.665 181.886 474.786 183.802 478.409 187.633C482.101 191.465 483.947 197.039 483.947 204.354V236.228H472.974V205.399C472.974 200.731 471.929 197.317 469.839 195.158C467.819 192.928 464.684 191.814 460.434 191.814C456.184 191.814 452.666 193.277 449.879 196.203C447.162 199.059 445.804 202.821 445.804 207.489V236.228H434.831ZM130.273 311.507H142.291C142.778 312.9 143.649 314.224 144.903 315.478C147.481 318.056 150.964 319.345 155.354 319.345C159.185 319.345 161.972 318.753 163.714 317.568C165.456 316.384 166.326 314.886 166.326 313.075C166.326 312.448 166.187 311.89 165.908 311.402C165.63 310.845 165.142 310.357 164.445 309.939C163.749 309.521 163.087 309.173 162.46 308.894C161.833 308.546 160.892 308.233 159.638 307.954C158.384 307.606 157.374 307.362 156.608 307.222C155.841 307.013 154.657 306.735 153.054 306.386C151.522 306.038 150.372 305.794 149.606 305.655C138.459 303.147 132.885 297.782 132.885 289.561C132.885 285.381 134.801 281.724 138.633 278.588C142.465 275.453 147.516 273.886 153.786 273.886C162.495 273.886 169.009 276.673 173.328 282.246C175.279 284.684 176.603 287.471 177.299 290.606H165.804C165.247 289.213 164.48 288.098 163.505 287.262C161.066 284.963 157.827 283.814 153.786 283.814C150.651 283.814 148.282 284.371 146.68 285.486C145.147 286.6 144.381 287.994 144.381 289.666C144.381 290.293 144.52 290.885 144.799 291.442C145.077 291.93 145.565 292.383 146.262 292.801C146.958 293.219 147.62 293.567 148.247 293.846C148.944 294.125 149.885 294.438 151.069 294.786C152.253 295.065 153.263 295.309 154.1 295.518C154.936 295.657 156.085 295.901 157.548 296.249C159.081 296.528 160.265 296.772 161.101 296.981C172.248 299.489 177.822 304.854 177.822 313.075C177.822 317.533 175.801 321.365 171.761 324.57C167.789 327.705 162.32 329.273 155.354 329.273C146.297 329.273 139.365 326.312 134.557 320.39C132.398 317.673 130.969 314.712 130.273 311.507ZM188.248 348.083V274.931H199.22V281.724H199.743C200.997 280.26 202.425 278.972 204.028 277.857C207.79 275.209 211.935 273.886 216.464 273.886C223.639 273.886 229.596 276.464 234.334 281.619C239.141 286.705 241.544 293.358 241.544 301.579C241.544 309.8 239.141 316.488 234.334 321.644C229.596 326.73 223.639 329.273 216.464 329.273C211.865 329.273 207.72 327.984 204.028 325.406C202.356 324.222 200.927 322.898 199.743 321.435H199.22V348.083H188.248ZM203.296 288.516C200.579 291.582 199.22 295.936 199.22 301.579C199.22 307.222 200.579 311.611 203.296 314.747C206.083 317.812 209.775 319.345 214.373 319.345C219.25 319.345 223.082 317.812 225.869 314.747C228.656 311.681 230.049 307.292 230.049 301.579C230.049 295.866 228.656 291.477 225.869 288.412C223.082 285.346 219.25 283.814 214.373 283.814C209.775 283.814 206.083 285.381 203.296 288.516ZM256.657 321.33C251.431 315.966 248.819 309.382 248.819 301.579C248.819 293.776 251.431 287.227 256.657 281.933C261.951 276.568 268.396 273.886 275.99 273.886C283.584 273.886 289.993 276.568 295.218 281.933C300.513 287.227 303.161 293.776 303.161 301.579V305.237H259.792C260.628 309.626 262.544 313.075 265.539 315.583C268.535 318.091 272.019 319.345 275.99 319.345C280.866 319.345 284.768 318.126 287.694 315.687C289.018 314.712 290.167 313.493 291.143 312.03H302.638C301.175 315.443 299.329 318.335 297.099 320.703C291.386 326.416 284.35 329.273 275.99 329.273C268.396 329.273 261.951 326.625 256.657 321.33ZM260.314 296.354H291.665C291.038 292.871 289.366 289.91 286.649 287.471C284.002 285.033 280.448 283.814 275.99 283.814C272.228 283.814 268.883 284.963 265.957 287.262C263.031 289.492 261.15 292.522 260.314 296.354ZM317.59 321.644C312.853 316.488 310.484 309.8 310.484 301.579C310.484 293.358 312.853 286.705 317.59 281.619C322.397 276.464 328.389 273.886 335.565 273.886C340.093 273.886 344.239 275.209 348.001 277.857C349.603 278.972 351.031 280.26 352.285 281.724H352.808V274.931H363.781V328.228H352.808V320.912H352.285C351.24 322.375 349.812 323.769 348.001 325.092C344.239 327.879 340.093 329.273 335.565 329.273C328.389 329.273 322.397 326.73 317.59 321.644ZM326.159 288.412C323.373 291.477 321.979 295.866 321.979 301.579C321.979 307.292 323.373 311.681 326.159 314.747C328.946 317.812 332.778 319.345 337.655 319.345C342.253 319.345 345.911 317.812 348.628 314.747C351.414 311.611 352.808 307.222 352.808 301.579C352.808 295.936 351.414 291.582 348.628 288.516C345.911 285.381 342.253 283.814 337.655 283.814C332.778 283.814 328.946 285.346 326.159 288.412ZM377.325 328.228V255.075H388.298V295.831H396.136L412.334 274.931H424.874L405.541 299.489L426.442 328.228H412.856L396.658 305.759H388.298V328.228H377.325ZM434.622 265.212C433.368 263.958 432.741 262.425 432.741 260.614C432.741 258.802 433.368 257.27 434.622 256.016C435.876 254.692 437.408 254.03 439.22 254.03C441.031 254.03 442.564 254.692 443.818 256.016C445.142 257.27 445.804 258.802 445.804 260.614C445.804 262.425 445.142 263.958 443.818 265.212C442.564 266.466 441.031 267.093 439.22 267.093C437.408 267.093 435.876 266.466 434.622 265.212ZM433.786 328.228V274.931H444.759V328.228H433.786ZM458.303 328.228V274.931H469.276V282.246H469.799C470.635 280.853 471.923 279.459 473.665 278.066C477.427 275.279 481.712 273.886 486.519 273.886C493.138 273.886 498.258 275.802 501.881 279.633C505.574 283.465 507.42 289.039 507.42 296.354V328.228H496.447V297.399C496.447 292.731 495.402 289.317 493.312 287.158C491.291 284.928 488.156 283.814 483.907 283.814C479.657 283.814 476.138 285.277 473.352 288.203C470.635 291.059 469.276 294.821 469.276 299.489V328.228H458.303ZM524.45 321.644C519.712 316.488 517.344 309.8 517.344 301.579C517.344 293.358 519.712 286.705 524.45 281.619C529.257 276.464 535.248 273.886 542.424 273.886C546.953 273.886 551.098 275.209 554.86 277.857C556.532 279.041 557.961 280.365 559.145 281.828H559.667V274.931H570.64V348.083H525.181V338.155H559.667V321.435H559.145C557.961 322.898 556.532 324.222 554.86 325.406C551.168 327.984 547.023 329.273 542.424 329.273C535.248 329.273 529.257 326.73 524.45 321.644ZM533.019 288.412C530.232 291.477 528.839 295.866 528.839 301.579C528.839 307.292 530.232 311.681 533.019 314.747C535.806 317.812 539.638 319.345 544.514 319.345C549.113 319.345 552.77 317.812 555.487 314.747C558.274 311.611 559.667 307.222 559.667 301.579C559.667 295.936 558.274 291.582 555.487 288.516C552.77 285.381 549.113 283.814 544.514 283.814C539.638 283.814 535.806 285.346 533.019 288.412ZM138.424 413.435C133.338 408.21 130.795 401.591 130.795 393.579C130.795 385.567 133.338 378.949 138.424 373.724C143.51 368.498 149.85 365.886 157.444 365.886C165.943 365.886 172.875 369.125 178.24 375.605C180.539 378.6 182.141 381.805 183.047 385.219H171.552C171.064 383.477 170.158 381.91 168.834 380.516C166.117 377.381 162.32 375.814 157.444 375.814C153.124 375.814 149.501 377.451 146.575 380.725C143.719 384 142.291 388.284 142.291 393.579C142.291 398.874 143.719 403.159 146.575 406.433C149.501 409.708 153.124 411.345 157.444 411.345C162.46 411.345 166.396 409.777 169.253 406.642C170.507 405.249 171.447 403.681 172.074 401.939H183.047C182.141 405.493 180.539 408.732 178.24 411.658C172.945 418.068 166.013 421.273 157.444 421.273C149.85 421.273 143.51 418.66 138.424 413.435ZM188.239 420.228V347.075H199.212V410.3H211.23V420.228H188.239ZM219.595 398.804V366.931H230.567V397.759C230.567 402.427 231.578 405.876 233.598 408.105C235.688 410.265 238.858 411.345 243.108 411.345C247.358 411.345 250.841 409.917 253.558 407.06C256.345 404.134 257.738 400.337 257.738 395.669V366.931H268.711V420.228H257.738V412.912H257.216C256.38 414.306 255.091 415.699 253.349 417.092C249.587 419.879 245.302 421.273 240.495 421.273C233.877 421.273 228.721 419.357 225.029 415.525C221.406 411.693 219.595 406.12 219.595 398.804ZM282.28 420.228V347.075H293.253V373.724H293.776C295.03 372.26 296.458 370.972 298.06 369.857C301.822 367.209 305.968 365.886 310.496 365.886C317.672 365.886 323.629 368.464 328.366 373.619C333.173 378.705 335.577 385.358 335.577 393.579C335.577 401.8 333.173 408.488 328.366 413.644C323.629 418.73 317.672 421.273 310.496 421.273C305.898 421.273 301.753 419.984 298.06 417.406C296.388 416.222 294.96 414.898 293.776 413.435H293.253V420.228H282.28ZM297.329 380.516C294.612 383.582 293.253 387.936 293.253 393.579C293.253 399.222 294.612 403.611 297.329 406.747C300.116 409.812 303.808 411.345 308.406 411.345C313.283 411.345 317.115 409.812 319.901 406.747C322.688 403.681 324.082 399.292 324.082 393.579C324.082 387.866 322.688 383.477 319.901 380.412C317.115 377.346 313.283 375.814 308.406 375.814C303.808 375.814 300.116 377.381 297.329 380.516Z" fill="#4F2D1D"/>
<path d="M132.672 935.604V893.803H153.274C157.216 893.803 160.341 894.838 162.65 896.908C164.959 898.939 166.113 901.487 166.113 904.552C166.113 907.617 165.058 909.966 162.948 911.599C162.073 912.275 161.038 912.813 159.843 913.211V913.509C161.316 913.828 162.61 914.365 163.725 915.122C166.312 916.993 167.606 919.839 167.606 923.661C167.606 927.204 166.332 930.091 163.784 932.32C161.237 934.51 157.634 935.604 152.976 935.604H132.672ZM139.54 910.822H152.976C154.887 910.822 156.36 910.345 157.395 909.389C158.43 908.434 158.947 907.1 158.947 905.388C158.947 903.875 158.43 902.661 157.395 901.745C156.36 900.83 154.887 900.372 152.976 900.372H139.54V910.822ZM139.54 929.036H152.677C157.853 929.036 160.44 927.045 160.44 923.064C160.44 919.083 157.853 917.092 152.677 917.092H139.54V929.036ZM202.246 935.604V905.149H208.517V935.604H202.246ZM174.777 935.604V905.149H181.047V915.301H187.317C190.821 915.301 193.627 916.256 195.737 918.167C197.887 920.078 198.962 922.507 198.962 925.453C198.962 928.399 197.887 930.827 195.737 932.738C193.627 934.649 190.821 935.604 187.317 935.604H174.777ZM181.047 929.931H187.317C188.95 929.931 190.204 929.533 191.079 928.737C191.955 927.941 192.393 926.846 192.393 925.453C192.393 924.059 191.955 922.965 191.079 922.168C190.204 921.372 188.95 920.974 187.317 920.974H181.047V929.931ZM214.761 918.585C214.761 909.986 216.453 903.716 219.837 899.775C223.261 895.794 228.337 893.803 235.065 893.803H242.231V899.476H235.662C231.044 899.476 227.521 900.551 225.092 902.701C222.664 904.851 221.31 907.856 221.031 911.718H221.33C221.768 911.081 222.504 910.384 223.539 909.628C225.769 908.235 228.217 907.538 230.885 907.538C234.826 907.538 238.09 908.891 240.678 911.599C243.305 914.306 244.619 917.729 244.619 921.87C244.619 926.09 243.226 929.533 240.439 932.201C237.692 934.868 234.109 936.202 229.69 936.202C225.231 936.202 221.629 934.649 218.882 931.544C216.135 928.439 214.761 924.119 214.761 918.585ZM223.719 915.659C222.126 917.292 221.33 919.362 221.33 921.87C221.33 924.378 222.126 926.448 223.719 928.08C225.311 929.712 227.302 930.529 229.69 930.529C232.079 930.529 234.069 929.712 235.662 928.08C237.254 926.448 238.05 924.378 238.05 921.87C238.05 919.362 237.254 917.292 235.662 915.659C234.069 914.027 232.079 913.211 229.69 913.211C227.302 913.211 225.311 914.027 223.719 915.659ZM252.954 931.663C249.968 928.598 248.475 924.836 248.475 920.377C248.475 915.918 249.968 912.176 252.954 909.15C255.979 906.085 259.662 904.552 264.001 904.552C268.341 904.552 272.003 906.085 274.989 909.15C278.015 912.176 279.528 915.918 279.528 920.377V922.467H254.745C255.223 924.975 256.318 926.946 258.03 928.379C259.742 929.812 261.732 930.529 264.001 930.529C266.788 930.529 269.018 929.832 270.69 928.439C271.446 927.881 272.103 927.185 272.66 926.348H279.229C278.393 928.299 277.338 929.951 276.064 931.305C272.8 934.569 268.779 936.202 264.001 936.202C259.662 936.202 255.979 934.689 252.954 931.663ZM255.044 917.391H272.959C272.601 915.401 271.645 913.709 270.092 912.315C268.58 910.922 266.549 910.225 264.001 910.225C261.852 910.225 259.941 910.882 258.269 912.196C256.597 913.47 255.522 915.201 255.044 917.391ZM285.504 946.951V905.149H291.774V909.031H292.073C292.789 908.195 293.605 907.458 294.521 906.821C296.671 905.308 299.04 904.552 301.627 904.552C305.728 904.552 309.132 906.025 311.839 908.971C314.586 911.877 315.959 915.679 315.959 920.377C315.959 925.075 314.586 928.896 311.839 931.842C309.132 934.749 305.728 936.202 301.627 936.202C299 936.202 296.631 935.465 294.521 933.992C293.566 933.315 292.749 932.559 292.073 931.723H291.774V946.951H285.504ZM294.103 912.912C292.55 914.664 291.774 917.152 291.774 920.377C291.774 923.602 292.55 926.11 294.103 927.901C295.695 929.653 297.805 930.529 300.433 930.529C303.22 930.529 305.409 929.653 307.002 927.901C308.594 926.149 309.39 923.641 309.39 920.377C309.39 917.112 308.594 914.604 307.002 912.853C305.409 911.101 303.22 910.225 300.433 910.225C297.805 910.225 295.695 911.121 294.103 912.912ZM321.907 935.604V905.149H328.178V925.453L328.118 926.05H328.715L342.51 905.149H349.377V935.604H343.107V915.301L343.166 914.704H342.569L328.775 935.604H321.907ZM371.194 942.173V929.931H374.18L381.047 905.149H394.484L401.351 929.931H404.337V942.173H398.664V935.604H376.867V942.173H371.194ZM380.749 929.931H394.782L389.706 910.822H385.825L380.749 929.931ZM411.528 931.663C408.543 928.598 407.05 924.836 407.05 920.377C407.05 915.918 408.543 912.176 411.528 909.15C414.554 906.085 418.237 904.552 422.576 904.552C426.915 904.552 430.578 906.085 433.564 909.15C436.589 912.176 438.102 915.918 438.102 920.377V922.467H413.32C413.798 924.975 414.892 926.946 416.604 928.379C418.316 929.812 420.307 930.529 422.576 930.529C425.363 930.529 427.592 929.832 429.264 928.439C430.021 927.881 430.677 927.185 431.235 926.348H437.804C436.968 928.299 435.913 929.951 434.639 931.305C431.374 934.569 427.353 936.202 422.576 936.202C418.237 936.202 414.554 934.689 411.528 931.663ZM413.619 917.391H431.533C431.175 915.401 430.22 913.709 428.667 912.315C427.154 910.922 425.124 910.225 422.576 910.225C420.426 910.225 418.515 910.882 416.843 912.196C415.171 913.47 414.096 915.201 413.619 917.391ZM444.078 935.604V905.149H450.349V917.391H465.278V905.149H471.548V935.604H465.278V923.064H450.349V935.604H444.078ZM479.316 935.604V905.149H485.586V915.301H493.05C496.554 915.301 499.36 916.256 501.47 918.167C503.62 920.078 504.695 922.507 504.695 925.453C504.695 928.399 503.62 930.827 501.47 932.738C499.36 934.649 496.554 935.604 493.05 935.604H479.316ZM485.586 929.931H493.05C494.683 929.931 495.937 929.533 496.813 928.737C497.688 927.941 498.126 926.846 498.126 925.453C498.126 924.059 497.688 922.965 496.813 922.168C495.937 921.372 494.683 920.974 493.05 920.974H485.586V929.931ZM527.397 935.604V905.149H542.624C545.53 905.149 547.8 905.846 549.432 907.239C551.064 908.633 551.88 910.424 551.88 912.614C551.88 914.963 551.084 916.774 549.492 918.048C548.695 918.645 547.899 919.023 547.103 919.183V919.421C548.138 919.581 549.133 919.979 550.089 920.616C552.079 921.969 553.075 924.059 553.075 926.886C553.075 929.354 552.139 931.424 550.268 933.096C548.397 934.768 545.948 935.604 542.923 935.604H527.397ZM533.667 917.092H542.027C544.416 917.092 545.61 915.998 545.61 913.808C545.61 911.818 544.416 910.822 542.027 910.822H533.667V917.092ZM533.667 929.931H542.624C543.938 929.931 544.953 929.593 545.67 928.916C546.426 928.2 546.804 927.244 546.804 926.05C546.804 924.975 546.426 924.119 545.67 923.482C544.953 922.805 543.938 922.467 542.624 922.467H533.667V929.931ZM561.936 931.723C559.03 928.737 557.577 924.955 557.577 920.377C557.577 915.799 559.03 912.017 561.936 909.031C564.842 906.045 568.465 904.552 572.804 904.552C577.661 904.552 581.622 906.403 584.688 910.106C586.002 911.818 586.917 913.649 587.435 915.6H580.866C580.587 914.604 580.07 913.709 579.313 912.912C577.761 911.121 575.591 910.225 572.804 910.225C570.336 910.225 568.266 911.161 566.594 913.032C564.961 914.903 564.145 917.351 564.145 920.377C564.145 923.402 564.961 925.851 566.594 927.722C568.266 929.593 570.336 930.529 572.804 930.529C575.671 930.529 577.92 929.633 579.552 927.841C580.269 927.045 580.806 926.149 581.164 925.154H587.435C586.917 927.185 586.002 929.036 584.688 930.708C581.662 934.37 577.701 936.202 572.804 936.202C568.465 936.202 564.842 934.709 561.936 931.723ZM589.805 910.822V905.149H616.378V910.822H606.227V935.604H599.956V910.822H589.805ZM620.862 946.951V905.149H627.132V909.031H627.431C628.147 908.195 628.963 907.458 629.879 906.821C632.029 905.308 634.397 904.552 636.985 904.552C641.086 904.552 644.49 906.025 647.197 908.971C649.944 911.877 651.317 915.679 651.317 920.377C651.317 925.075 649.944 928.896 647.197 931.842C644.49 934.749 641.086 936.202 636.985 936.202C634.358 936.202 631.989 935.465 629.879 933.992C628.923 933.315 628.107 932.559 627.431 931.723H627.132V946.951H620.862ZM629.461 912.912C627.908 914.664 627.132 917.152 627.132 920.377C627.132 923.602 627.908 926.11 629.461 927.901C631.053 929.653 633.163 930.529 635.791 930.529C638.578 930.529 640.767 929.653 642.36 927.901C643.952 926.149 644.748 923.641 644.748 920.377C644.748 917.112 643.952 914.604 642.36 912.853C640.767 911.101 638.578 910.225 635.791 910.225C633.163 910.225 631.053 911.121 629.461 912.912ZM659.953 931.663C656.967 928.598 655.474 924.836 655.474 920.377C655.474 915.918 656.967 912.176 659.953 909.15C662.978 906.085 666.661 904.552 671 904.552C675.339 904.552 679.002 906.085 681.988 909.15C685.013 912.176 686.526 915.918 686.526 920.377V922.467H661.744C662.222 924.975 663.317 926.946 665.028 928.379C666.74 929.812 668.731 930.529 671 930.529C673.787 930.529 676.016 929.832 677.688 928.439C678.445 927.881 679.102 927.185 679.659 926.348H686.228C685.392 928.299 684.337 929.951 683.063 931.305C679.798 934.569 675.777 936.202 671 936.202C666.661 936.202 662.978 934.689 659.953 931.663ZM662.043 917.391H679.958C679.599 915.401 678.644 913.709 677.091 912.315C675.578 910.922 673.548 910.225 671 910.225C668.85 910.225 666.939 910.882 665.267 912.196C663.595 913.47 662.52 915.201 662.043 917.391ZM691.607 916.495V905.149H697.877V915.898C697.877 917.69 698.395 919.083 699.43 920.078C700.465 921.074 701.938 921.571 703.849 921.571C706.158 921.571 708.069 921.273 709.581 920.675C710.338 920.437 710.915 920.138 711.313 919.78V905.149H717.583V935.604H711.313V925.154C710.676 925.592 709.999 925.95 709.283 926.229C707.571 926.906 705.561 927.244 703.252 927.244C699.549 927.244 696.683 926.289 694.652 924.378C692.622 922.467 691.607 919.839 691.607 916.495ZM725.349 935.604V905.149H731.619V925.453L731.559 926.05H732.156L745.951 905.149H752.818V935.604H746.548V915.301L746.608 914.704H746.011L732.216 935.604H725.349Z" fill="#4F2D1D"/>
</g>
<defs>
<clipPath id="clip0_1303_1065">
<rect x="92" y="101" width="895.743" height="895.743" rx="59.4452" fill="white"/>
</clipPath>
</defs>
</svg>
