<svg width="1080" height="1826" viewBox="0 0 1080 1826" fill="none" xmlns="http://www.w3.org/2000/svg">
<g clip-path="url(#clip0_1303_1025)">
<rect width="1826" height="1080" transform="translate(1080) rotate(90)" fill="#F7F7F7"/>
<mask id="mask0_1303_1025" style="mask-type:alpha" maskUnits="userSpaceOnUse" x="94" y="101" width="892" height="1584">
<rect x="94.1133" y="101" width="891.884" height="1583.99" rx="83.1621" fill="#2F80ED"/>
</mask>
<g mask="url(#mask0_1303_1025)">
<rect x="94.1133" y="101" width="891.884" height="1583.99" rx="83.1621" fill="white"/>
<g clip-path="url(#clip1_1303_1025)">
<rect width="895.924" height="1592.75" transform="translate(92.1016 96.3467)" fill="white"/>
<path d="M1079.25 117.155C1017.53 65.8168 944.22 28.2887 889.155 -30.1293C836.115 -86.4088 802.715 -159.223 747.778 -213.646C692.84 -268.069 600.304 -299.512 538.92 -252.386C483.168 -209.576 477.587 -121.542 420.298 -80.8228C326.962 -14.4881 236.661 26.643 282.348 165.467C314.366 262.738 399.598 282.163 458.564 352.24C526.264 432.679 468.276 545.047 528.037 634.322C586.531 721.716 727.774 752.293 798.82 660.431C830.782 619.097 840.593 559.853 883.921 530.657C905.211 516.31 931.352 511.769 956.422 506.309C1057.53 484.381 1168.09 425.481 1182.56 323.01C1193.79 243.501 1140.96 168.418 1079.25 117.155ZM936.1 308.791C961.65 360.341 941.557 430.136 887.683 456.117C847.639 475.425 792.668 460.973 772.356 421.461C760.248 397.903 761 370.156 758.623 343.738C753.616 288.665 731.268 232.356 686.396 200.038C663.957 183.875 633.843 170.477 608.391 160.024C578.697 147.823 547.2 154.103 515.593 150.674C480.907 146.922 448.735 139.557 437.123 102.014C435.021 95.2208 434.017 87.8292 436.155 81.04C456.848 15.4281 549.199 34.4885 598.637 49.4395C650.058 65.058 697.142 93.0362 740.673 124.014C801.172 167.03 897.773 231.307 936.1 308.791Z" fill="#99E978"/>
<path d="M22.3333 1238.97C41.8384 1253.76 61.4128 1268.61 82.8536 1280.41C89.4545 1284.1 96.4258 1287.6 103.612 1290.97C195.389 1334.01 327.598 1349.87 367.691 1237.44C380.919 1200.34 382.126 1160.12 381.576 1120.77C381.117 1090.35 381.66 1055.28 405.199 1036.01C434.068 1012.39 477.201 1027.97 513.95 1021.59C555.014 1014.44 586.785 978.029 597.241 937.683C607.697 897.337 599.729 854.242 584.562 815.489C536.916 693.519 425.284 610.345 319.004 533.876C264.3 494.522 160.515 423.525 94.402 481.652C61.2787 510.771 74.856 550.661 76.5787 588.354C77.6179 611.268 51.4499 686.403 19.4594 642.519C14.8206 636.155 13.7208 627.849 14.0633 619.972C15.6355 583.639 43.6268 553.419 49.8439 517.584C57.0807 475.925 29.5238 431.041 -10.9408 418.603C-17.1893 416.68 -24.0294 415.483 -30.2151 417.651C-39.6086 420.946 -44.7981 430.974 -47.6586 440.509C-56.4186 469.744 -51.9579 501.907 -62.1409 530.652C-74.029 564.187 -104.083 588.042 -135.521 604.731C-166.96 621.421 -201.119 632.913 -231.118 652.043C-261.118 671.173 -287.57 700.419 -291.253 735.826C-294.936 771.234 -267.284 810.284 -231.746 808.608C-206.462 807.408 -186.48 788.024 -166.152 772.949C-107.542 729.481 -12.4325 705.948 43.2763 767.116C51.9575 776.653 59.2987 789.785 55.0871 801.955C50.8756 814.126 36.7724 820.011 24.0442 819.44C11.316 818.868 -0.559903 813.34 -12.5494 809.009C-51.5838 794.893 -85.1717 802.385 -125.402 805.039C-159.998 807.316 -198.191 816.111 -217.378 844.99C-240.683 880.07 -226.909 944.013 -212.875 980.313C-170.341 1090.61 -71.7929 1167.62 22.3333 1238.97ZM157.321 686.276C156.86 669.978 164.279 653.023 178.17 644.492C196.315 633.359 220.84 638.89 237.887 651.642C254.935 664.395 266.462 682.933 278.562 700.489C300.565 732.409 325.599 762.13 353.315 789.238C375.989 811.416 400.688 832.087 418.786 858.17C428.613 873.389 423.718 896.659 394.409 895.581C357.358 893.384 324.92 870.743 295.981 847.575C250.909 811.494 159.166 751.297 157.321 686.276ZM-46.2766 964.995C-74.9861 893.671 2.42777 902.082 45.0763 923.377C93.246 947.442 141.402 971.507 189.545 995.572C220.756 1011.16 271.883 1041.7 267.491 1081.75C266.097 1094.48 257.733 1107.38 245.162 1109.79C239.392 1110.91 233.416 1109.74 227.575 1110.39C221.735 1111.03 119.258 1094.12 72.0173 1077.71C19.0159 1059.3 -25.2937 1017.11 -46.2766 964.995Z" fill="#99E978"/>
<path d="M1160.15 1704.42C1145.92 1703.68 1131.94 1699.79 1117.7 1699.63C1075.54 1699.14 1040 1730.61 1014.13 1763.91C988.269 1797.22 966.37 1835.27 931.103 1858.35C891.95 1883.97 838.826 1886.51 797.404 1864.75C755.981 1842.98 727.926 1797.81 726.822 1751.06C725.969 1715.71 739.215 1681.73 752.254 1648.86C760.755 1627.41 769.619 1605.41 785.48 1588.65C801.342 1571.9 826.112 1561.48 847.916 1569C862.518 1574.03 876.142 1586.66 891.115 1582.89C911.588 1577.74 911.63 1545.45 895.614 1531.7C879.599 1517.95 856.694 1517 835.693 1514.74C749.941 1505.48 668.466 1461.41 613.773 1394.71C602.414 1380.87 591.83 1365.23 589.992 1347.42C587.237 1320.61 604.823 1295.87 624.85 1277.85C683.205 1225.34 770.895 1207.87 844.923 1234.01C918.952 1260.15 976.227 1328.81 988.668 1406.31C995.198 1446.96 990.206 1488.57 993.663 1529.58C997.12 1570.6 1011.44 1614.11 1045.7 1636.93C1071.67 1654.22 1119.03 1645.75 1118.14 1614.56C1117.73 1600.26 1106.89 1588.68 1096.48 1578.85C1046.49 1531.51 969.79 1456.58 1028.68 1385.88C1067.43 1339.34 1134.55 1338.01 1180.28 1370.92C1273.98 1438.38 1346.41 1714.21 1160.15 1704.42Z" fill="#99E978"/>
<path d="M1469.66 1172.73C1423.16 1181.83 1375.08 1156.02 1345.86 1118.71C1316.64 1081.4 1303.08 1034.36 1293.27 988C1287.5 960.757 1272.4 925.539 1245.02 930.663C1217.65 935.786 1216.32 974.921 1226.19 1000.86C1240.11 1037.41 1262.76 1071.06 1269.4 1109.61C1281.86 1182.09 1229.98 1256.06 1161.09 1281.79C1092.2 1307.52 1012.55 1290.94 950.325 1251.76C916.234 1230.29 885.432 1202.04 847.002 1189.94C760.526 1162.71 688.235 1235.81 603.431 1196.94C567.546 1180.5 537.827 1148.22 530.264 1109.47C522.701 1070.73 540.591 1026.78 575.878 1009.07C597.765 998.096 623.259 997.664 646.998 991.629C698.601 978.488 724.714 910.438 743.237 865.308C767.766 805.518 778.031 738.807 815.523 686.162C853.015 633.517 933.852 602.375 982.331 645.107C1011.6 670.908 1018.41 714.151 1014.92 753.015C1007.9 831.378 965.102 905.824 900.958 951.325C853.672 984.862 794.124 1004.86 761.255 1052.61C753.626 1063.7 748.001 1079.38 756.441 1089.87C766.603 1102.47 786.712 1096.24 801.07 1088.79C870.698 1052.82 954.257 1011.88 1022.69 1050.12C1041.29 1060.5 1056.99 1076.2 1077.03 1083.42C1097.07 1090.63 1124.72 1084.76 1130.7 1064.33C1135.6 1047.61 1123.94 1031.03 1113.35 1017.17C1069.67 959.912 1033.31 878.034 1075.45 819.616C1106.4 776.726 1168.85 767.721 1219.46 782.943C1283.74 802.252 1330.7 850.964 1387.11 884.323C1422.73 905.386 1468.42 913.472 1501.09 938.673C1576.69 996.964 1580.38 1151.08 1469.66 1172.73Z" fill="#99E978"/>
<path d="M134.037 299.61V246.303H149.716L163.827 278.183H165.917L180.028 246.303H195.707V299.61H184.731V261.982L184.836 260.936H184.313L171.143 290.203H158.6L145.43 260.936H144.908L145.012 261.982V299.61H134.037ZM213.994 292.712C208.768 287.346 206.155 280.761 206.155 272.957C206.155 265.152 208.768 258.602 213.994 253.306C219.29 247.94 225.736 245.258 233.331 245.258C240.927 245.258 247.338 247.94 252.564 253.306C257.86 258.602 260.508 265.152 260.508 272.957V276.615H217.13C217.966 281.005 219.882 284.454 222.879 286.963C225.875 289.471 229.359 290.726 233.331 290.726C238.209 290.726 242.111 289.506 245.038 287.067C246.362 286.092 247.512 284.872 248.487 283.409H259.985C258.522 286.824 256.675 289.715 254.445 292.085C248.731 297.799 241.693 300.656 233.331 300.656C225.736 300.656 219.29 298.008 213.994 292.712ZM217.653 267.73H249.01C248.383 264.246 246.71 261.285 243.993 258.846C241.345 256.407 237.791 255.187 233.331 255.187C229.568 255.187 226.224 256.337 223.297 258.637C220.37 260.867 218.489 263.898 217.653 267.73ZM270.968 299.61V246.303H281.943V267.208H289.783L305.984 246.303H318.527L299.19 270.866L320.095 299.61H306.507L290.305 277.138H281.943V299.61H270.968ZM329.893 292.816C324.806 287.59 322.263 280.97 322.263 272.957C322.263 264.943 324.806 258.323 329.893 253.097C334.98 247.871 341.321 245.258 348.917 245.258C357.418 245.258 364.351 248.498 369.717 254.978C372.016 257.975 373.619 261.18 374.525 264.595H363.027C362.54 262.853 361.634 261.285 360.31 259.891C357.592 256.755 353.794 255.187 348.917 255.187C344.596 255.187 340.973 256.825 338.046 260.1C335.189 263.375 333.76 267.661 333.76 272.957C333.76 278.253 335.189 282.538 338.046 285.813C340.973 289.088 344.596 290.726 348.917 290.726C353.934 290.726 357.871 289.158 360.728 286.022C361.982 284.629 362.923 283.061 363.55 281.319H374.525C373.619 284.872 372.016 288.113 369.717 291.039C364.421 297.45 357.488 300.656 348.917 300.656C341.321 300.656 334.98 298.042 329.893 292.816ZM384.422 299.61V246.303H395.397V281.841L395.293 282.886H396.338L420.483 246.303H432.503V299.61H421.528V264.072L421.633 263.027H420.588L396.442 299.61H384.422ZM446.1 299.61V246.303H457.075V267.208H464.914L481.115 246.303H493.658L474.321 270.866L495.226 299.61H481.638L465.437 277.138H457.075V299.61H446.1ZM504.502 293.025C499.764 287.869 497.394 281.179 497.394 272.957C497.394 264.734 499.764 258.079 504.502 252.992C509.31 247.836 515.303 245.258 522.48 245.258C527.01 245.258 531.156 246.582 534.919 249.23C536.521 250.344 537.95 251.634 539.204 253.097H539.727V246.303H550.702V299.61H539.727V292.294H539.204C538.159 293.757 536.73 295.151 534.919 296.475C531.156 299.262 527.01 300.656 522.48 300.656C515.303 300.656 509.31 298.112 504.502 293.025ZM513.073 259.787C510.286 262.853 508.892 267.243 508.892 272.957C508.892 278.671 510.286 283.061 513.073 286.127C515.86 289.193 519.693 290.726 524.571 290.726C529.17 290.726 532.828 289.193 535.546 286.127C538.333 282.991 539.727 278.601 539.727 272.957C539.727 267.312 538.333 262.957 535.546 259.891C532.828 256.755 529.17 255.187 524.571 255.187C519.693 255.187 515.86 256.72 513.073 259.787ZM564.249 299.61V246.303H575.224V267.73H601.355V246.303H612.33V299.61H601.355V277.66H575.224V299.61H564.249ZM630.421 292.816C625.334 287.59 622.791 280.97 622.791 272.957C622.791 264.943 625.334 258.323 630.421 253.097C635.508 247.871 641.849 245.258 649.445 245.258C657.946 245.258 664.88 248.498 670.245 254.978C672.545 257.975 674.147 261.18 675.053 264.595H663.556C663.068 262.853 662.162 261.285 660.838 259.891C658.12 256.755 654.323 255.187 649.445 255.187C645.124 255.187 641.501 256.825 638.574 260.1C635.717 263.375 634.289 267.661 634.289 272.957C634.289 278.253 635.717 282.538 638.574 285.813C641.501 289.088 645.124 290.726 649.445 290.726C654.462 290.726 658.399 289.158 661.256 286.022C662.51 284.629 663.451 283.061 664.078 281.319H675.053C674.147 284.872 672.545 288.113 670.245 291.039C664.949 297.45 658.016 300.656 649.445 300.656C641.849 300.656 635.508 298.042 630.421 292.816ZM684.95 299.61V246.303H695.925V267.208H703.765L719.966 246.303H732.509L713.172 270.866L734.077 299.61H720.489L704.287 277.138H695.925V299.61H684.95ZM741.422 299.61V246.303H752.397V281.841L752.293 282.886H753.338L777.483 246.303H789.503V299.61H778.528V264.072L778.633 263.027H777.588L753.442 299.61H741.422ZM803.1 299.61V246.303H814.075V281.841L813.97 282.886H815.016L839.161 246.303H851.181V299.61H840.206V264.072L840.31 263.027H839.265L815.12 299.61H803.1ZM810.939 225.398H819.824C819.824 229.231 822.263 231.147 827.14 231.147C832.018 231.147 834.457 229.231 834.457 225.398H843.342C843.342 229.509 841.948 232.819 839.161 235.328C836.443 237.767 832.436 238.986 827.14 238.986C821.844 238.986 817.803 237.767 815.016 235.328C812.298 232.819 810.939 229.509 810.939 225.398ZM128.288 348.233V338.303H174.802V348.233H157.032V391.61H146.057V348.233H128.288ZM186.621 385.025C181.883 379.869 179.513 373.179 179.513 364.957C179.513 356.734 181.883 350.079 186.621 344.992C191.429 339.836 197.422 337.258 204.599 337.258C209.129 337.258 213.275 338.582 217.038 341.23C218.64 342.344 220.069 343.634 221.323 345.097H221.846V338.303H232.821V391.61H221.846V384.294H221.323C220.278 385.757 218.849 387.151 217.038 388.475C213.275 391.262 209.129 392.656 204.599 392.656C197.422 392.656 191.429 390.112 186.621 385.025ZM195.192 351.787C192.405 354.853 191.011 359.243 191.011 364.957C191.011 370.671 192.405 375.061 195.192 378.127C197.979 381.193 201.812 382.726 206.69 382.726C211.289 382.726 214.947 381.193 217.665 378.127C220.452 374.991 221.846 370.601 221.846 364.957C221.846 359.312 220.452 354.957 217.665 351.891C214.947 348.755 211.289 347.187 206.69 347.187C201.812 347.187 197.979 348.72 195.192 351.787ZM246.368 391.61V338.303H257.343V359.73H283.474V338.303H294.449V391.61H283.474V369.66H257.343V391.61H246.368ZM308.046 391.61V338.303H319.021V381.681H342.539V338.303H353.514V381.681H360.831V403.108H350.378V391.61H308.046ZM374.937 384.712C369.711 379.346 367.098 372.761 367.098 364.957C367.098 357.152 369.711 350.602 374.937 345.306C380.233 339.94 386.679 337.258 394.274 337.258C401.87 337.258 408.281 339.94 413.507 345.306C418.803 350.602 421.451 357.152 421.451 364.957V368.615H378.073C378.909 373.005 380.826 376.454 383.822 378.963C386.818 381.471 390.302 382.726 394.274 382.726C399.152 382.726 403.054 381.506 405.981 379.067C407.305 378.092 408.455 376.872 409.43 375.409H420.928C419.465 378.824 417.618 381.715 415.388 384.085C409.674 389.799 402.636 392.656 394.274 392.656C386.679 392.656 380.233 390.008 374.937 384.712ZM378.596 359.73H409.953C409.326 356.246 407.654 353.285 404.936 350.846C402.288 348.407 398.734 347.187 394.274 347.187C390.512 347.187 387.167 348.337 384.24 350.637C381.313 352.867 379.432 355.898 378.596 359.73ZM431.911 391.61V338.303H458.565C463.652 338.303 467.624 339.522 470.481 341.961C473.338 344.4 474.766 347.536 474.766 351.368C474.766 355.48 473.373 358.65 470.585 360.88C469.192 361.925 467.798 362.587 466.404 362.866V363.284C468.216 363.563 469.958 364.26 471.631 365.375C475.115 367.744 476.857 371.402 476.857 376.35C476.857 380.67 475.219 384.294 471.944 387.22C468.669 390.147 464.384 391.61 459.088 391.61H431.911ZM442.886 359.208H457.52C461.701 359.208 463.791 357.291 463.791 353.459C463.791 349.975 461.701 348.233 457.52 348.233H442.886V359.208ZM442.886 381.681H458.565C460.865 381.681 462.642 381.088 463.896 379.904C465.22 378.649 465.882 376.977 465.882 374.886C465.882 373.005 465.22 371.507 463.896 370.392C462.642 369.207 460.865 368.615 458.565 368.615H442.886V381.681ZM491.845 385.025C487.106 379.869 484.737 373.179 484.737 364.957C484.737 356.734 487.106 350.079 491.845 344.992C496.653 339.836 502.646 337.258 509.823 337.258C514.352 337.258 518.498 338.582 522.261 341.23C523.864 342.344 525.293 343.634 526.547 345.097H527.069V338.303H538.045V391.61H527.069V384.294H526.547C525.502 385.757 524.073 387.151 522.261 388.475C518.498 391.262 514.352 392.656 509.823 392.656C502.646 392.656 496.653 390.112 491.845 385.025ZM500.416 351.787C497.628 354.853 496.235 359.243 496.235 364.957C496.235 370.671 497.628 375.061 500.416 378.127C503.203 381.193 507.036 382.726 511.913 382.726C516.513 382.726 520.171 381.193 522.889 378.127C525.676 374.991 527.069 370.601 527.069 364.957C527.069 359.312 525.676 354.957 522.889 351.891C520.171 348.755 516.513 347.187 511.913 347.187C507.036 347.187 503.203 348.72 500.416 351.787ZM545.843 391.61L560.476 338.303H583.994L598.628 391.61H587.13L575.633 348.233H568.838L557.341 391.61H545.843ZM606.43 391.61V338.303H617.406V356.072H630.471C636.603 356.072 641.516 357.744 645.209 361.089C648.972 364.434 650.853 368.685 650.853 373.841C650.853 378.998 648.972 383.248 645.209 386.593C641.516 389.938 636.603 391.61 630.471 391.61H606.43ZM617.406 381.681H630.471C633.328 381.681 635.523 380.984 637.056 379.59C638.589 378.196 639.356 376.28 639.356 373.841C639.356 371.402 638.589 369.486 637.056 368.092C635.523 366.699 633.328 366.002 630.471 366.002H617.406V381.681ZM660.248 391.61V338.303H671.223V359.73H697.355V338.303H708.33V391.61H697.355V369.66H671.223V391.61H660.248ZM770.007 391.61V338.303H780.982V391.61H770.007ZM721.926 391.61V338.303H732.901V356.072H743.876C750.008 356.072 754.921 357.744 758.614 361.089C762.377 364.434 764.258 368.685 764.258 373.841C764.258 378.998 762.377 383.248 758.614 386.593C754.921 389.938 750.008 391.61 743.876 391.61H721.926ZM732.901 381.681H743.876C746.733 381.681 748.928 380.984 750.461 379.59C751.994 378.196 752.761 376.28 752.761 373.841C752.761 371.402 751.994 369.486 750.461 368.092C748.928 366.699 746.733 366.002 743.876 366.002H732.901V381.681ZM794.525 391.61V338.303H805.501V373.841L805.396 374.886H806.441L830.586 338.303H842.607V391.61H831.632V356.072L831.736 355.027H830.691L806.546 391.61H794.525ZM802.365 317.398H811.249C811.249 321.231 813.688 323.147 818.566 323.147C823.444 323.147 825.883 321.231 825.883 317.398H834.767C834.767 321.509 833.374 324.819 830.586 327.328C827.869 329.767 823.862 330.986 818.566 330.986C813.27 330.986 809.229 329.767 806.441 327.328C803.724 324.819 802.365 321.509 802.365 317.398ZM134.037 483.61V430.303H149.716L163.827 462.183H165.917L180.028 430.303H195.707V483.61H184.731V445.982L184.836 444.936H184.313L171.143 474.203H158.6L145.43 444.936H144.908L145.012 445.982V483.61H134.037ZM213.263 477.025C208.524 471.869 206.155 465.179 206.155 456.957C206.155 448.734 208.524 442.079 213.263 436.992C218.071 431.836 224.063 429.258 231.241 429.258C235.77 429.258 239.916 430.582 243.679 433.23C245.282 434.344 246.71 435.634 247.965 437.097H248.487V430.303H259.462V483.61H248.487V476.294H247.965C246.919 477.757 245.491 479.151 243.679 480.475C239.916 483.262 235.77 484.656 231.241 484.656C224.063 484.656 218.071 482.112 213.263 477.025ZM221.834 443.787C219.046 446.853 217.653 451.243 217.653 456.957C217.653 462.671 219.046 467.061 221.834 470.127C224.621 473.193 228.453 474.726 233.331 474.726C237.93 474.726 241.589 473.193 244.306 470.127C247.094 466.991 248.487 462.601 248.487 456.957C248.487 451.312 247.094 446.957 244.306 443.891C241.589 440.755 237.93 439.187 233.331 439.187C228.453 439.187 224.621 440.72 221.834 443.787ZM277.504 476.816C272.417 471.59 269.874 464.97 269.874 456.957C269.874 448.943 272.417 442.323 277.504 437.097C282.591 431.871 288.932 429.258 296.528 429.258C305.029 429.258 311.963 432.498 317.328 438.978C319.628 441.975 321.23 445.18 322.136 448.595H310.639C310.151 446.853 309.245 445.285 307.921 443.891C305.203 440.755 301.406 439.187 296.528 439.187C292.207 439.187 288.584 440.825 285.657 444.1C282.8 447.375 281.372 451.661 281.372 456.957C281.372 462.253 282.8 466.538 285.657 469.813C288.584 473.088 292.207 474.726 296.528 474.726C301.545 474.726 305.482 473.158 308.339 470.022C309.593 468.629 310.534 467.061 311.161 465.319H322.136C321.23 468.872 319.628 472.113 317.328 475.039C312.032 481.45 305.099 484.656 296.528 484.656C288.932 484.656 282.591 482.042 277.504 476.816ZM326.285 440.233V430.303H372.798V440.233H355.029V483.61H344.054V440.233H326.285ZM385.349 476.712C380.123 471.346 377.51 464.761 377.51 456.957C377.51 449.152 380.123 442.602 385.349 437.306C390.645 431.94 397.091 429.258 404.686 429.258C412.281 429.258 418.692 431.94 423.919 437.306C429.214 442.602 431.862 449.152 431.862 456.957V460.615H388.485C389.321 465.005 391.237 468.454 394.234 470.963C397.23 473.471 400.714 474.726 404.686 474.726C409.564 474.726 413.466 473.506 416.393 471.067C417.717 470.092 418.867 468.872 419.842 467.409H431.34C429.876 470.824 428.03 473.715 425.8 476.085C420.086 481.799 413.048 484.656 404.686 484.656C397.091 484.656 390.645 482.008 385.349 476.712ZM389.007 451.73H420.365C419.738 448.246 418.065 445.285 415.348 442.846C412.7 440.407 409.146 439.187 404.686 439.187C400.923 439.187 397.578 440.337 394.652 442.637C391.725 444.867 389.844 447.898 389.007 451.73ZM442.323 503.47V430.303H453.298V437.097H453.821C455.075 435.634 456.503 434.344 458.106 433.23C461.869 430.582 466.015 429.258 470.545 429.258C477.722 429.258 483.68 431.836 488.418 436.992C493.226 442.079 495.63 448.734 495.63 456.957C495.63 465.179 493.226 471.869 488.418 477.025C483.68 482.112 477.722 484.656 470.545 484.656C465.946 484.656 461.799 483.366 458.106 480.788C456.434 479.604 455.005 478.28 453.821 476.816H453.298V503.47H442.323ZM457.375 443.891C454.657 446.957 453.298 451.312 453.298 456.957C453.298 462.601 454.657 466.991 457.375 470.127C460.162 473.193 463.855 474.726 468.454 474.726C473.332 474.726 477.165 473.193 479.952 470.127C482.739 467.061 484.133 462.671 484.133 456.957C484.133 451.243 482.739 446.853 479.952 443.787C477.165 440.72 473.332 439.187 468.454 439.187C463.855 439.187 460.162 440.755 457.375 443.891ZM506.042 460.092V449.64H544.194V460.092H506.042ZM557.818 483.61V430.303H568.794V451.208H576.633L592.834 430.303H605.377L586.04 454.866L606.945 483.61H593.357L577.155 461.138H568.794V483.61H557.818ZM608.541 483.61L623.175 430.303H646.693L661.326 483.61H649.829L638.331 440.233H631.537L620.039 483.61H608.541ZM673.101 477.025C668.362 471.869 665.993 465.179 665.993 456.957C665.993 448.734 668.362 442.079 673.101 436.992C677.909 431.836 683.902 429.258 691.079 429.258C695.608 429.258 699.754 430.582 703.517 433.23C705.12 434.344 706.549 435.634 707.803 437.097H708.326V430.303H719.301V483.61H708.326V476.294H707.803C706.758 477.757 705.329 479.151 703.517 480.475C699.754 483.262 695.608 484.656 691.079 484.656C683.902 484.656 677.909 482.112 673.101 477.025ZM681.672 443.787C678.884 446.853 677.491 451.243 677.491 456.957C677.491 462.671 678.884 467.061 681.672 470.127C684.459 473.193 688.292 474.726 693.169 474.726C697.769 474.726 701.427 473.193 704.145 470.127C706.932 466.991 708.326 462.601 708.326 456.957C708.326 451.312 706.932 446.957 704.145 443.891C701.427 440.755 697.769 439.187 693.169 439.187C688.292 439.187 684.459 440.72 681.672 443.787ZM737.342 476.816C732.256 471.59 729.712 464.97 729.712 456.957C729.712 448.943 732.256 442.323 737.342 437.097C742.429 431.871 748.771 429.258 756.366 429.258C764.867 429.258 771.801 432.498 777.166 438.978C779.466 441.975 781.069 445.18 781.974 448.595H770.477C769.989 446.853 769.083 445.285 767.759 443.891C765.041 440.755 761.244 439.187 756.366 439.187C752.046 439.187 748.422 440.825 745.495 444.1C742.638 447.375 741.21 451.661 741.21 456.957C741.21 462.253 742.638 466.538 745.495 469.813C748.422 473.088 752.046 474.726 756.366 474.726C761.383 474.726 765.32 473.158 768.177 470.022C769.432 468.629 770.372 467.061 770.999 465.319H781.974C781.069 468.872 779.466 472.113 777.166 475.039C771.87 481.45 764.937 484.656 756.366 484.656C748.771 484.656 742.429 482.042 737.342 476.816ZM796.366 476.816C791.279 471.59 788.736 464.97 788.736 456.957C788.736 448.943 791.279 442.323 796.366 437.097C801.453 431.871 807.794 429.258 815.39 429.258C823.891 429.258 830.824 432.498 836.19 438.978C838.489 441.975 840.092 445.18 840.998 448.595H829.5C829.013 446.853 828.107 445.285 826.783 443.891C824.065 440.755 820.267 439.187 815.39 439.187C811.069 439.187 807.446 440.825 804.519 444.1C801.662 447.375 800.234 451.661 800.234 456.957C800.234 462.253 801.662 466.538 804.519 469.813C807.446 473.088 811.069 474.726 815.39 474.726C820.407 474.726 824.344 473.158 827.201 470.022C828.455 468.629 829.396 467.061 830.023 465.319H840.998C840.092 468.872 838.489 472.113 836.19 475.039C830.894 481.45 823.961 484.656 815.39 484.656C807.794 484.656 801.453 482.042 796.366 476.816Z" fill="#1B5105"/>
<path d="M138.532 1502.86C133.445 1497.63 130.901 1491.01 130.901 1483C130.901 1474.98 133.445 1468.36 138.532 1463.14C143.619 1457.91 149.96 1455.3 157.555 1455.3C166.056 1455.3 172.99 1458.54 178.355 1465.02C180.655 1468.01 182.258 1471.22 183.164 1474.63H171.666C171.178 1472.89 170.272 1471.32 168.948 1469.93C166.231 1466.8 162.433 1465.23 157.555 1465.23C153.235 1465.23 149.611 1466.87 146.685 1470.14C143.828 1473.42 142.399 1477.7 142.399 1483C142.399 1488.29 143.828 1492.58 146.685 1495.85C149.611 1499.13 153.235 1500.77 157.555 1500.77C162.572 1500.77 166.509 1499.2 169.366 1496.06C170.621 1494.67 171.561 1493.1 172.189 1491.36H183.164C182.258 1494.91 180.655 1498.15 178.355 1501.08C173.06 1507.49 166.126 1510.7 157.555 1510.7C149.96 1510.7 143.619 1508.08 138.532 1502.86ZM193.061 1509.65V1456.34H219.714C224.801 1456.34 228.773 1457.56 231.63 1460C234.487 1462.44 235.916 1465.58 235.916 1469.41C235.916 1473.52 234.522 1476.69 231.735 1478.92C230.341 1479.97 228.947 1480.63 227.554 1480.91V1481.32C229.366 1481.6 231.108 1482.3 232.78 1483.41C236.264 1485.78 238.006 1489.44 238.006 1494.39C238.006 1498.71 236.369 1502.33 233.094 1505.26C229.819 1508.19 225.533 1509.65 220.237 1509.65H193.061ZM204.036 1477.25H218.669C222.85 1477.25 224.941 1475.33 224.941 1471.5C224.941 1468.01 222.85 1466.27 218.669 1466.27H204.036V1477.25ZM204.036 1499.72H219.714C222.014 1499.72 223.791 1499.13 225.045 1497.94C226.369 1496.69 227.031 1495.02 227.031 1492.93C227.031 1491.05 226.369 1489.55 225.045 1488.43C223.791 1487.25 222.014 1486.66 219.714 1486.66H204.036V1499.72ZM252.994 1503.07C248.256 1497.91 245.886 1491.22 245.886 1483C245.886 1474.77 248.256 1468.12 252.994 1463.03C257.802 1457.88 263.795 1455.3 270.972 1455.3C275.502 1455.3 279.648 1456.62 283.411 1459.27C285.013 1460.38 286.442 1461.67 287.696 1463.14H288.219V1456.34H299.194V1509.65H288.219V1502.33H287.696C286.651 1503.8 285.222 1505.19 283.411 1506.51C279.648 1509.3 275.502 1510.7 270.972 1510.7C263.795 1510.7 257.802 1508.15 252.994 1503.07ZM261.565 1469.83C258.778 1472.89 257.384 1477.28 257.384 1483C257.384 1488.71 258.778 1493.1 261.565 1496.17C264.352 1499.23 268.185 1500.77 273.063 1500.77C277.662 1500.77 281.32 1499.23 284.038 1496.17C286.825 1493.03 288.219 1488.64 288.219 1483C288.219 1477.35 286.825 1473 284.038 1469.93C281.32 1466.8 277.662 1465.23 273.063 1465.23C268.185 1465.23 264.352 1466.76 261.565 1469.83ZM312.741 1509.65V1456.34H323.716V1491.88L323.612 1492.93H324.657L348.802 1456.34H360.823V1509.65H349.847V1474.11L349.952 1473.07H348.907L324.762 1509.65H312.741ZM320.581 1435.44H329.465C329.465 1439.27 331.904 1441.19 336.782 1441.19C341.66 1441.19 344.099 1439.27 344.099 1435.44H352.983C352.983 1439.55 351.59 1442.86 348.802 1445.37C346.085 1447.81 342.078 1449.03 336.782 1449.03C331.486 1449.03 327.444 1447.81 324.657 1445.37C321.939 1442.86 320.581 1439.55 320.581 1435.44ZM374.419 1509.65V1456.34H421.977V1509.65H411.002V1466.27H385.394V1509.65H374.419ZM439.558 1503.07C434.82 1497.91 432.45 1491.22 432.45 1483C432.45 1474.77 434.82 1468.12 439.558 1463.03C444.366 1457.88 450.359 1455.3 457.536 1455.3C462.066 1455.3 466.212 1456.62 469.975 1459.27C471.577 1460.38 473.006 1461.67 474.26 1463.14H474.783V1456.34H485.758V1509.65H474.783V1502.33H474.26C473.215 1503.8 471.786 1505.19 469.975 1506.51C466.212 1509.3 462.066 1510.7 457.536 1510.7C450.359 1510.7 444.366 1508.15 439.558 1503.07ZM448.129 1469.83C445.342 1472.89 443.948 1477.28 443.948 1483C443.948 1488.71 445.342 1493.1 448.129 1496.17C450.916 1499.23 454.749 1500.77 459.627 1500.77C464.226 1500.77 467.884 1499.23 470.602 1496.17C473.389 1493.03 474.783 1488.64 474.783 1483C474.783 1477.35 473.389 1473 470.602 1469.93C467.884 1466.8 464.226 1465.23 459.627 1465.23C454.749 1465.23 450.916 1466.76 448.129 1469.83ZM499.305 1509.65V1456.34H510.28V1491.88L510.176 1492.93H511.221L535.366 1456.34H547.386V1509.65H536.411V1474.11L536.516 1473.07H535.471L511.325 1509.65H499.305ZM507.144 1435.44H516.029C516.029 1439.27 518.468 1441.19 523.346 1441.19C528.224 1441.19 530.662 1439.27 530.662 1435.44H539.547C539.547 1439.55 538.153 1442.86 535.366 1445.37C532.648 1447.81 528.642 1449.03 523.346 1449.03C518.05 1449.03 514.008 1447.81 511.221 1445.37C508.503 1442.86 507.144 1439.55 507.144 1435.44ZM134.037 1601.65V1548.34H160.691C165.778 1548.34 169.75 1549.56 172.607 1552C175.464 1554.44 176.892 1557.58 176.892 1561.41C176.892 1565.52 175.498 1568.69 172.711 1570.92C171.317 1571.97 169.924 1572.63 168.53 1572.91V1573.32C170.342 1573.6 172.084 1574.3 173.756 1575.41C177.241 1577.78 178.983 1581.44 178.983 1586.39C178.983 1590.71 177.345 1594.33 174.07 1597.26C170.795 1600.19 166.509 1601.65 161.213 1601.65H134.037ZM145.012 1569.25H159.646C163.827 1569.25 165.917 1567.33 165.917 1563.5C165.917 1560.01 163.827 1558.27 159.646 1558.27H145.012V1569.25ZM145.012 1591.72H160.691C162.99 1591.72 164.767 1591.13 166.022 1589.94C167.346 1588.69 168.008 1587.02 168.008 1584.93C168.008 1583.05 167.346 1581.55 166.022 1580.43C164.767 1579.25 162.99 1578.66 160.691 1578.66H145.012V1591.72ZM189.999 1601.65V1548.34H216.652C221.739 1548.34 225.711 1549.56 228.568 1552C231.425 1554.44 232.854 1557.58 232.854 1561.41C232.854 1565.52 231.46 1568.69 228.673 1570.92C227.279 1571.97 225.885 1572.63 224.492 1572.91V1573.32C226.303 1573.6 228.045 1574.3 229.718 1575.41C233.202 1577.78 234.944 1581.44 234.944 1586.39C234.944 1590.71 233.306 1594.33 230.031 1597.26C226.756 1600.19 222.471 1601.65 217.175 1601.65H189.999ZM200.974 1569.25H215.607C219.788 1569.25 221.878 1567.33 221.878 1563.5C221.878 1560.01 219.788 1558.27 215.607 1558.27H200.974V1569.25ZM200.974 1591.72H216.652C218.952 1591.72 220.729 1591.13 221.983 1589.94C223.307 1588.69 223.969 1587.02 223.969 1584.93C223.969 1583.05 223.307 1581.55 221.983 1580.43C220.729 1579.25 218.952 1578.66 216.652 1578.66H200.974V1591.72ZM250.664 1594.75C245.437 1589.39 242.824 1582.8 242.824 1575C242.824 1567.19 245.437 1560.64 250.664 1555.35C255.959 1549.98 262.405 1547.3 270.001 1547.3C277.596 1547.3 284.007 1549.98 289.233 1555.35C294.529 1560.64 297.177 1567.19 297.177 1575V1578.66H253.799C254.635 1583.05 256.552 1586.49 259.548 1589C262.544 1591.51 266.029 1592.77 270.001 1592.77C274.878 1592.77 278.781 1591.55 281.707 1589.11C283.031 1588.13 284.181 1586.91 285.157 1585.45H296.654C295.191 1588.86 293.344 1591.76 291.114 1594.12C285.4 1599.84 278.363 1602.7 270.001 1602.7C262.405 1602.7 255.959 1600.05 250.664 1594.75ZM254.322 1569.77H285.679C285.052 1566.29 283.38 1563.32 280.662 1560.89C278.014 1558.45 274.46 1557.23 270.001 1557.23C266.238 1557.23 262.893 1558.38 259.966 1560.68C257.04 1562.91 255.158 1565.94 254.322 1569.77ZM307.638 1621.51V1548.34H318.613V1555.14H319.135C320.39 1553.67 321.818 1552.38 323.421 1551.27C327.184 1548.62 331.33 1547.3 335.859 1547.3C343.036 1547.3 348.994 1549.88 353.733 1555.03C358.541 1560.12 360.945 1566.77 360.945 1575C360.945 1583.22 358.541 1589.91 353.733 1595.07C348.994 1600.15 343.036 1602.7 335.859 1602.7C331.26 1602.7 327.114 1601.41 323.421 1598.83C321.748 1597.64 320.32 1596.32 319.135 1594.86H318.613V1621.51H307.638ZM322.689 1561.93C319.971 1565 318.613 1569.35 318.613 1575C318.613 1580.64 319.971 1585.03 322.689 1588.17C325.476 1591.23 329.17 1592.77 333.769 1592.77C338.646 1592.77 342.479 1591.23 345.266 1588.17C348.054 1585.1 349.447 1580.71 349.447 1575C349.447 1569.28 348.054 1564.89 345.266 1561.83C342.479 1558.76 338.646 1557.23 333.769 1557.23C329.17 1557.23 325.476 1558.8 322.689 1561.93ZM364.077 1601.65L380.278 1575L364.599 1548.34H377.142L389.163 1569.77H391.776L403.796 1548.34H416.339L400.66 1575L416.862 1601.65H404.319L391.776 1579.7H389.163L376.62 1601.65H364.077ZM427.277 1564.54V1528.48H438.775V1564.54L436.684 1579.7H429.368L427.277 1564.54ZM427.8 1601.13C426.406 1599.73 425.709 1597.99 425.709 1595.9C425.709 1593.81 426.406 1592.07 427.8 1590.68C429.193 1589.28 430.936 1588.58 433.026 1588.58C435.117 1588.58 436.859 1589.28 438.252 1590.68C439.646 1592.07 440.343 1593.81 440.343 1595.9C440.343 1597.99 439.646 1599.73 438.252 1601.13C436.859 1602.52 435.117 1603.22 433.026 1603.22C430.936 1603.22 429.193 1602.52 427.8 1601.13Z" fill="#1B5105"/>
<path d="M132.305 596.647C130.341 594.683 129.358 592.214 129.358 589.241C129.358 586.267 130.341 583.799 132.305 581.834C134.269 579.87 136.738 578.888 139.711 578.888C142.684 578.888 145.153 579.87 147.118 581.834C149.082 583.799 150.064 586.267 150.064 589.241C150.064 592.214 149.082 594.683 147.118 596.647C145.153 598.611 142.684 599.594 139.711 599.594C136.738 599.594 134.269 598.611 132.305 596.647ZM134.575 583.945C133.221 585.325 132.544 587.09 132.544 589.241C132.544 591.391 133.221 593.156 134.575 594.537C135.928 595.917 137.641 596.607 139.711 596.607C141.782 596.607 143.494 595.917 144.848 594.537C146.202 593.156 146.879 591.391 146.879 589.241C146.879 587.09 146.202 585.325 144.848 583.945C143.494 582.564 141.782 581.874 139.711 581.874C137.641 581.874 135.928 582.564 134.575 583.945ZM152.239 582.272V579.286H169.361V582.272H162.392V599.195H159.207V582.272H152.239ZM172.762 599.195V579.286H175.948V587.25H179.93L186.301 579.286H190.084L182.717 588.643L190.681 599.195H186.699L179.93 590.236H175.948V599.195H172.762ZM194.081 606.761V579.286H197.267V582.471H197.306L197.705 581.874C198.156 581.184 198.966 580.52 200.134 579.883C201.302 579.22 202.735 578.888 204.434 578.888C207.089 578.888 209.345 579.883 211.203 581.874C213.061 583.839 213.991 586.294 213.991 589.241C213.991 592.187 213.061 594.656 211.203 596.647C209.345 598.611 207.089 599.594 204.434 599.594C202.735 599.594 201.288 599.275 200.094 598.638C198.926 597.974 198.129 597.284 197.705 596.567L197.306 596.01H197.267V606.761H194.081ZM199.178 583.945C197.904 585.325 197.267 587.09 197.267 589.241C197.267 591.391 197.904 593.156 199.178 594.537C200.479 595.917 202.098 596.607 204.036 596.607C205.974 596.607 207.58 595.917 208.854 594.537C210.155 593.156 210.805 591.391 210.805 589.241C210.805 587.09 210.155 585.325 208.854 583.945C207.58 582.564 205.974 581.874 204.036 581.874C202.098 581.874 200.479 582.564 199.178 583.945ZM236.9 599.195V579.286H240.086V599.195H236.9ZM218.783 599.195V579.286H221.968V586.055H226.747C228.976 586.055 230.795 586.692 232.202 587.966C233.609 589.214 234.312 590.767 234.312 592.625C234.312 594.483 233.609 596.05 232.202 597.324C230.795 598.571 228.976 599.195 226.747 599.195H218.783ZM221.968 596.209H226.747C228.127 596.209 229.202 595.877 229.972 595.213C230.742 594.55 231.127 593.687 231.127 592.625C231.127 591.563 230.742 590.701 229.972 590.037C229.202 589.373 228.127 589.042 226.747 589.042H221.968V596.209ZM243.463 582.272V579.286H260.585V582.272H253.617V599.195H250.431V582.272H243.463ZM265.579 596.647C263.721 594.656 262.792 592.187 262.792 589.241C262.792 586.294 263.721 583.839 265.579 581.874C267.437 579.883 269.694 578.888 272.348 578.888C274.021 578.888 275.428 579.206 276.569 579.843C277.737 580.48 278.587 581.171 279.118 581.914L279.476 582.511H279.516V579.286H282.701V599.195H279.516V596.01H279.476L279.118 596.567C278.64 597.284 277.817 597.974 276.649 598.638C275.481 599.275 274.047 599.594 272.348 599.594C269.694 599.594 267.437 598.611 265.579 596.647ZM267.889 583.945C266.615 585.325 265.977 587.09 265.977 589.241C265.977 591.391 266.615 593.156 267.889 594.537C269.19 595.917 270.809 596.607 272.747 596.607C274.685 596.607 276.291 595.917 277.565 594.537C278.865 593.156 279.516 591.391 279.516 589.241C279.516 587.09 278.865 585.325 277.565 583.945C276.291 582.564 274.685 581.874 272.747 581.874C270.809 581.874 269.19 582.564 267.889 583.945ZM287.892 599.195L291.874 592.028C291.21 591.736 290.546 591.311 289.883 590.754C288.555 589.533 287.892 587.966 287.892 586.055C287.892 584.117 288.595 582.511 290.002 581.237C291.409 579.936 293.281 579.286 295.617 579.286H304.616V599.195H301.43V592.824H295.059L291.555 599.195H287.892ZM292.232 583.308C291.462 583.998 291.077 584.914 291.077 586.055C291.077 587.197 291.462 588.112 292.232 588.803C293.028 589.493 294.17 589.838 295.656 589.838H301.43V582.272H295.656C294.17 582.272 293.028 582.617 292.232 583.308ZM130.553 634.195V614.286H140.309C142.167 614.286 143.627 614.75 144.689 615.68C145.75 616.609 146.281 617.803 146.281 619.263C146.281 619.927 146.188 620.537 146.003 621.095C145.817 621.626 145.591 622.051 145.326 622.369C145.06 622.661 144.768 622.913 144.45 623.126C144.158 623.311 143.906 623.444 143.693 623.524C143.507 623.577 143.375 623.603 143.295 623.603V623.643C143.375 623.643 143.534 623.683 143.773 623.763C144.012 623.816 144.317 623.962 144.689 624.201C145.087 624.413 145.458 624.679 145.804 624.997C146.149 625.316 146.441 625.78 146.68 626.391C146.945 627.001 147.078 627.678 147.078 628.422C147.078 630.147 146.48 631.541 145.286 632.603C144.118 633.664 142.472 634.195 140.348 634.195H130.553ZM133.738 622.449H140.109C142.1 622.449 143.096 621.586 143.096 619.861C143.096 618.135 142.1 617.272 140.109 617.272H133.738V622.449ZM133.738 631.209H140.309C141.477 631.209 142.366 630.943 142.976 630.413C143.587 629.882 143.892 629.152 143.892 628.222C143.892 627.293 143.587 626.563 142.976 626.032C142.366 625.502 141.477 625.236 140.309 625.236H133.738V631.209ZM153.544 631.647C151.633 629.683 150.677 627.214 150.677 624.241C150.677 621.267 151.633 618.799 153.544 616.834C155.455 614.87 157.818 613.888 160.632 613.888C163.897 613.888 166.485 615.056 168.396 617.392C169.219 618.427 169.817 619.582 170.188 620.856H167.003C166.711 620.139 166.273 619.476 165.689 618.865C164.415 617.538 162.729 616.874 160.632 616.874C158.694 616.874 157.075 617.564 155.774 618.945C154.5 620.325 153.863 622.09 153.863 624.241C153.863 626.391 154.526 628.156 155.853 629.537C157.181 630.917 158.774 631.607 160.632 631.607C162.808 631.607 164.547 630.877 165.848 629.417C166.432 628.806 166.883 628.076 167.202 627.227H170.387C170.042 628.581 169.432 629.815 168.556 630.93C166.538 633.372 163.897 634.594 160.632 634.594C157.818 634.594 155.455 633.611 153.544 631.647ZM172.196 617.272V614.286H189.318V617.272H182.35V634.195H179.165V617.272H172.196ZM192.72 641.761V614.286H195.906V617.471H195.945L196.344 616.874C196.795 616.184 197.605 615.52 198.773 614.883C199.941 614.22 201.374 613.888 203.073 613.888C205.728 613.888 207.984 614.883 209.842 616.874C211.7 618.839 212.63 621.294 212.63 624.241C212.63 627.187 211.7 629.656 209.842 631.647C207.984 633.611 205.728 634.594 203.073 634.594C201.374 634.594 199.927 634.275 198.733 633.638C197.565 632.974 196.768 632.284 196.344 631.567L195.945 631.01H195.906V641.761H192.72ZM197.817 618.945C196.543 620.325 195.906 622.09 195.906 624.241C195.906 626.391 196.543 628.156 197.817 629.537C199.118 630.917 200.737 631.607 202.675 631.607C204.613 631.607 206.219 630.917 207.493 629.537C208.794 628.156 209.444 626.391 209.444 624.241C209.444 622.09 208.794 620.325 207.493 618.945C206.219 617.564 204.613 616.874 202.675 616.874C200.737 616.874 199.118 617.564 197.817 618.945ZM219.134 631.647C217.196 629.683 216.227 627.214 216.227 624.241C216.227 621.267 217.196 618.799 219.134 616.834C221.072 614.87 223.488 613.888 226.381 613.888C229.275 613.888 231.69 614.857 233.628 616.794C235.566 618.732 236.535 621.148 236.535 624.042V625.236H219.413C219.625 627.094 220.382 628.621 221.682 629.815C222.983 631.01 224.549 631.607 226.381 631.607C228.345 631.607 230.031 631.01 231.438 629.815C232.075 629.284 232.58 628.687 232.951 628.023H236.137C235.659 629.271 234.982 630.373 234.106 631.328C232.035 633.505 229.46 634.594 226.381 634.594C223.488 634.594 221.072 633.611 219.134 631.647ZM219.492 622.449H233.15C232.911 620.883 232.181 619.569 230.96 618.507C229.739 617.418 228.213 616.874 226.381 616.874C224.549 616.874 223.01 617.418 221.762 618.507C220.514 619.569 219.758 620.883 219.492 622.449ZM240.71 621.453V614.286H243.895V621.254C243.895 622.581 244.28 623.617 245.05 624.36C245.846 625.077 246.988 625.435 248.474 625.435C250.04 625.435 251.421 625.21 252.615 624.758C253.173 624.572 253.651 624.334 254.049 624.042V614.286H257.234V634.195H254.049V626.829C253.518 627.174 253.027 627.439 252.576 627.625C251.408 628.156 249.974 628.422 248.275 628.422C245.886 628.422 244.028 627.798 242.701 626.55C241.373 625.302 240.71 623.603 240.71 621.453ZM264.802 631.647C262.943 629.656 262.014 627.187 262.014 624.241C262.014 621.294 262.943 618.839 264.802 616.874C266.66 614.883 268.916 613.888 271.571 613.888C273.243 613.888 274.65 614.206 275.792 614.843C276.96 615.48 277.809 616.171 278.34 616.914L278.698 617.511H278.738V614.286H281.924V634.195H278.738V631.01H278.698L278.34 631.567C277.862 632.284 277.039 632.974 275.871 633.638C274.703 634.275 273.27 634.594 271.571 634.594C268.916 634.594 266.66 633.611 264.802 631.647ZM267.111 618.945C265.837 620.325 265.2 622.09 265.2 624.241C265.2 626.391 265.837 628.156 267.111 629.537C268.412 630.917 270.031 631.607 271.969 631.607C273.907 631.607 275.513 630.917 276.787 629.537C278.088 628.156 278.738 626.391 278.738 624.241C278.738 622.09 278.088 620.325 276.787 618.945C275.513 617.564 273.907 616.874 271.969 616.874C270.031 616.874 268.412 617.564 267.111 618.945Z" fill="#1B5105"/>
<path d="M130.225 737.478C130.225 735.036 131.181 733.098 133.092 731.665C133.968 731.028 134.937 730.576 135.999 730.311V730.112C135.15 729.82 134.38 729.395 133.69 728.838C132.177 727.59 131.42 725.957 131.42 723.94C131.42 721.843 132.296 720.064 134.048 718.604C135.827 717.118 138.202 716.374 141.176 716.374C144.149 716.374 146.511 717.118 148.263 718.604C150.042 720.064 150.931 721.843 150.931 723.94C150.931 725.931 150.161 727.563 148.622 728.838C147.905 729.422 147.148 729.846 146.352 730.112V730.311C147.361 730.576 148.316 731.028 149.219 731.665C151.157 733.125 152.126 735.063 152.126 737.478C152.126 739.761 151.13 741.726 149.139 743.372C147.175 745.017 144.52 745.84 141.176 745.84C137.831 745.84 135.163 745.017 133.172 743.372C131.208 741.726 130.225 739.761 130.225 737.478ZM135.004 724.338C135.004 725.506 135.561 726.528 136.676 727.404C137.791 728.28 139.291 728.718 141.176 728.718C143.06 728.718 144.56 728.28 145.675 727.404C146.79 726.528 147.348 725.506 147.348 724.338C147.348 722.984 146.817 721.883 145.755 721.033C144.72 720.184 143.193 719.759 141.176 719.759C139.158 719.759 137.618 720.184 136.557 721.033C135.521 721.883 135.004 722.984 135.004 724.338ZM135.72 733.616C134.446 734.598 133.809 735.819 133.809 737.279C133.809 738.739 134.446 739.974 135.72 740.982C136.995 741.965 138.813 742.456 141.176 742.456C143.538 742.456 145.357 741.965 146.631 740.982C147.905 739.974 148.542 738.739 148.542 737.279C148.542 735.819 147.905 734.598 146.631 733.616C145.357 732.607 143.538 732.103 141.176 732.103C138.813 732.103 136.995 732.607 135.72 733.616ZM168.648 745.044V725.135H173.426L179.399 737.478H180.394L186.367 725.135H191.145V745.044H187.96V729.116L187.999 728.718H187.92L181.987 741.062H177.806L171.873 728.718H171.793L171.833 729.116V745.044H168.648ZM198.714 742.496C196.856 740.505 195.927 738.036 195.927 735.089C195.927 732.143 196.856 729.687 198.714 727.723C200.572 725.732 202.828 724.736 205.483 724.736C207.155 724.736 208.562 725.055 209.704 725.692C210.872 726.329 211.721 727.019 212.252 727.763L212.611 728.36H212.65V725.135H215.836V745.044H212.65V741.858H212.611L212.252 742.416C211.774 743.133 210.952 743.823 209.783 744.486C208.615 745.124 207.182 745.442 205.483 745.442C202.828 745.442 200.572 744.46 198.714 742.496ZM201.023 729.793C199.749 731.174 199.112 732.939 199.112 735.089C199.112 737.239 199.749 739.005 201.023 740.385C202.324 741.766 203.943 742.456 205.881 742.456C207.819 742.456 209.425 741.766 210.699 740.385C212 739.005 212.65 737.239 212.65 735.089C212.65 732.939 212 731.174 210.699 729.793C209.425 728.413 207.819 727.723 205.881 727.723C203.943 727.723 202.324 728.413 201.023 729.793ZM221.026 745.044L225.008 737.877C224.345 737.585 223.681 737.16 223.017 736.602C221.69 735.381 221.026 733.815 221.026 731.904C221.026 729.966 221.73 728.36 223.137 727.086C224.544 725.785 226.415 725.135 228.751 725.135H237.75V745.044H234.565V738.673H228.194L224.69 745.044H221.026ZM225.367 729.156C224.597 729.846 224.212 730.762 224.212 731.904C224.212 733.045 224.597 733.961 225.367 734.651C226.163 735.341 227.305 735.687 228.791 735.687H234.565V728.121H228.791C227.305 728.121 226.163 728.466 225.367 729.156ZM129.429 760.334V756.352L134.805 752.171H137.99V780.044H134.406V756.551L129.429 760.334ZM143.179 761.13C143.179 758.396 144.174 756.086 146.165 754.202C148.156 752.317 150.678 751.374 153.731 751.374C156.784 751.374 159.306 752.317 161.297 754.202C163.288 756.086 164.283 758.396 164.283 761.13C164.283 762.431 164.031 763.718 163.526 764.992C163.049 766.267 162.558 767.289 162.053 768.058C161.549 768.828 160.766 769.903 159.704 771.284L152.935 780.044H148.754L156.12 770.726L156.24 770.567L156.279 770.527C155.563 770.766 154.647 770.886 153.532 770.886C150.585 770.886 148.117 769.943 146.126 768.058C144.161 766.147 143.179 763.838 143.179 761.13ZM148.674 756.591C147.4 757.785 146.763 759.298 146.763 761.13C146.763 762.962 147.4 764.488 148.674 765.709C149.975 766.904 151.66 767.501 153.731 767.501C155.802 767.501 157.474 766.904 158.748 765.709C160.049 764.488 160.699 762.962 160.699 761.13C160.699 759.298 160.049 757.785 158.748 756.591C157.474 755.37 155.802 754.759 153.731 754.759C151.66 754.759 149.975 755.37 148.674 756.591ZM168.757 763.639C168.305 763.187 168.08 762.617 168.08 761.926C168.08 761.236 168.305 760.665 168.757 760.214C169.208 759.763 169.779 759.537 170.469 759.537C171.159 759.537 171.73 759.763 172.181 760.214C172.632 760.665 172.858 761.236 172.858 761.926C172.858 762.617 172.632 763.187 172.181 763.639C171.73 764.09 171.159 764.316 170.469 764.316C169.779 764.316 169.208 764.09 168.757 763.639ZM168.757 779.964C168.305 779.513 168.08 778.942 168.08 778.252C168.08 777.562 168.305 776.991 168.757 776.54C169.208 776.089 169.779 775.863 170.469 775.863C171.159 775.863 171.73 776.089 172.181 776.54C172.632 776.991 172.858 777.562 172.858 778.252C172.858 778.942 172.632 779.513 172.181 779.964C171.73 780.416 171.159 780.641 170.469 780.641C169.779 780.641 169.208 780.416 168.757 779.964ZM180.9 776.739C178.458 774.005 177.237 770.461 177.237 766.107C177.237 761.754 178.458 758.21 180.9 755.476C183.342 752.741 186.302 751.374 189.78 751.374C193.257 751.374 196.217 752.741 198.659 755.476C201.101 758.21 202.322 761.754 202.322 766.107C202.322 770.461 201.101 774.005 198.659 776.739C196.217 779.473 193.257 780.84 189.78 780.84C186.302 780.84 183.342 779.473 180.9 776.739ZM183.329 757.785C181.656 759.776 180.82 762.55 180.82 766.107C180.82 769.664 181.656 772.452 183.329 774.469C185.028 776.46 187.178 777.456 189.78 777.456C192.381 777.456 194.518 776.46 196.19 774.469C197.889 772.452 198.739 769.664 198.739 766.107C198.739 762.55 197.889 759.776 196.19 757.785C194.518 755.768 192.381 754.759 189.78 754.759C187.178 754.759 185.028 755.768 183.329 757.785ZM210.773 776.739C208.331 774.005 207.11 770.461 207.11 766.107C207.11 761.754 208.331 758.21 210.773 755.476C213.216 752.741 216.175 751.374 219.653 751.374C223.13 751.374 226.09 752.741 228.533 755.476C230.975 758.21 232.196 761.754 232.196 766.107C232.196 770.461 230.975 774.005 228.533 776.739C226.09 779.473 223.13 780.84 219.653 780.84C216.175 780.84 213.216 779.473 210.773 776.739ZM213.202 757.785C211.53 759.776 210.694 762.55 210.694 766.107C210.694 769.664 211.53 772.452 213.202 774.469C214.901 776.46 217.051 777.456 219.653 777.456C222.254 777.456 224.391 776.46 226.064 774.469C227.763 772.452 228.612 769.664 228.612 766.107C228.612 762.55 227.763 759.776 226.064 757.785C224.391 755.768 222.254 754.759 219.653 754.759C217.051 754.759 214.901 755.768 213.202 757.785Z" fill="#1B5105"/>
<path d="M360.088 747.333V727.424H369.844C371.702 727.424 373.162 727.888 374.224 728.817C375.286 729.746 375.817 730.941 375.817 732.401C375.817 733.065 375.724 733.675 375.538 734.233C375.352 734.764 375.126 735.188 374.861 735.507C374.595 735.799 374.303 736.051 373.985 736.263C373.693 736.449 373.441 736.582 373.228 736.662C373.042 736.715 372.91 736.741 372.83 736.741V736.781C372.91 736.781 373.069 736.821 373.308 736.9C373.547 736.954 373.852 737.1 374.224 737.338C374.622 737.551 374.994 737.816 375.339 738.135C375.684 738.453 375.976 738.918 376.215 739.529C376.48 740.139 376.613 740.816 376.613 741.559C376.613 743.285 376.016 744.678 374.821 745.74C373.653 746.802 372.007 747.333 369.884 747.333H360.088ZM363.274 735.586H369.645C371.636 735.586 372.631 734.724 372.631 732.998C372.631 731.273 371.636 730.41 369.645 730.41H363.274V735.586ZM363.274 744.347H369.844C371.012 744.347 371.901 744.081 372.512 743.55C373.122 743.019 373.427 742.289 373.427 741.36C373.427 740.431 373.122 739.701 372.512 739.17C371.901 738.639 371.012 738.374 369.844 738.374H363.274V744.347ZM379.018 747.333L384.99 737.179L379.217 727.424H382.8L387.579 735.586H389.371L394.149 727.424H397.732L391.959 737.179L397.932 747.333H394.348L389.371 738.573H387.579L382.601 747.333H379.018ZM402.689 744.785C400.724 742.82 399.742 740.351 399.742 737.378C399.742 734.405 400.724 731.936 402.689 729.972C404.653 728.008 407.122 727.025 410.095 727.025C413.068 727.025 415.537 728.008 417.501 729.972C419.466 731.936 420.448 734.405 420.448 737.378C420.448 740.351 419.466 742.82 417.501 744.785C415.537 746.749 413.068 747.731 410.095 747.731C407.122 747.731 404.653 746.749 402.689 744.785ZM404.958 732.082C403.604 733.463 402.928 735.228 402.928 737.378C402.928 739.529 403.604 741.294 404.958 742.674C406.312 744.055 408.024 744.745 410.095 744.745C412.166 744.745 413.878 744.055 415.232 742.674C416.585 741.294 417.262 739.529 417.262 737.378C417.262 735.228 416.585 733.463 415.232 732.082C413.878 730.702 412.166 730.012 410.095 730.012C408.024 730.012 406.312 730.702 404.958 732.082ZM422.622 751.912V744.347H424.812L429.392 727.424H437.754L442.333 744.347H444.523V751.912H441.337V747.333H425.808V751.912H422.622ZM427.998 744.347H439.147L435.364 730.41H431.781L427.998 744.347ZM358.296 762.623V758.641L363.672 754.46H366.857V782.333H363.274V758.84L358.296 762.623ZM376.307 779.028C373.865 776.294 372.643 772.75 372.643 768.396C372.643 764.043 373.865 760.499 376.307 757.765C378.749 755.031 381.709 753.663 385.186 753.663C388.664 753.663 391.624 755.031 394.066 757.765C396.508 760.499 397.729 764.043 397.729 768.396C397.729 772.75 396.508 776.294 394.066 779.028C391.624 781.762 388.664 783.129 385.186 783.129C381.709 783.129 378.749 781.762 376.307 779.028ZM378.736 760.074C377.063 762.065 376.227 764.839 376.227 768.396C376.227 771.954 377.063 774.741 378.736 776.758C380.435 778.749 382.585 779.745 385.186 779.745C387.788 779.745 389.925 778.749 391.597 776.758C393.296 774.741 394.146 771.954 394.146 768.396C394.146 764.839 393.296 762.065 391.597 760.074C389.925 758.057 387.788 757.048 385.186 757.048C382.585 757.048 380.435 758.057 378.736 760.074ZM406.18 779.028C403.738 776.294 402.517 772.75 402.517 768.396C402.517 764.043 403.738 760.499 406.18 757.765C408.623 755.031 411.582 753.663 415.06 753.663C418.537 753.663 421.497 755.031 423.939 757.765C426.382 760.499 427.603 764.043 427.603 768.396C427.603 772.75 426.382 776.294 423.939 779.028C421.497 781.762 418.537 783.129 415.06 783.129C411.582 783.129 408.623 781.762 406.18 779.028ZM408.609 760.074C406.937 762.065 406.101 764.839 406.101 768.396C406.101 771.954 406.937 774.741 408.609 776.758C410.308 778.749 412.458 779.745 415.06 779.745C417.661 779.745 419.798 778.749 421.471 776.758C423.17 774.741 424.019 771.954 424.019 768.396C424.019 764.839 423.17 762.065 421.471 760.074C419.798 758.057 417.661 757.048 415.06 757.048C412.458 757.048 410.308 758.057 408.609 760.074ZM432.988 789.899V762.424H436.173V765.609H436.213L436.611 765.012C437.062 764.322 437.872 763.658 439.04 763.021C440.208 762.357 441.642 762.025 443.341 762.025C445.995 762.025 448.252 763.021 450.11 765.012C451.968 766.976 452.897 769.432 452.897 772.378C452.897 775.325 451.968 777.794 450.11 779.785C448.252 781.749 445.995 782.731 443.341 782.731C441.642 782.731 440.195 782.413 439 781.776C437.832 781.112 437.036 780.422 436.611 779.705L436.213 779.148H436.173V789.899H432.988ZM438.085 767.082C436.81 768.463 436.173 770.228 436.173 772.378C436.173 774.529 436.81 776.294 438.085 777.674C439.385 779.055 441.005 779.745 442.942 779.745C444.88 779.745 446.486 779.055 447.76 777.674C449.061 776.294 449.712 774.529 449.712 772.378C449.712 770.228 449.061 768.463 447.76 767.082C446.486 765.702 444.88 765.012 442.942 765.012C441.005 765.012 439.385 765.702 438.085 767.082Z" fill="#1B5105"/>
</g>
</g>
</g>
<defs>
<clipPath id="clip0_1303_1025">
<rect width="1826" height="1080" fill="white" transform="translate(1080) rotate(90)"/>
</clipPath>
<clipPath id="clip1_1303_1025">
<rect width="895.924" height="1592.75" fill="white" transform="translate(92.1016 96.3467)"/>
</clipPath>
</defs>
</svg>
