<svg width="232" height="75" viewBox="0 0 232 75" fill="none" xmlns="http://www.w3.org/2000/svg">
<path d="M34.5795 21.936C34.5795 12.3802 40.9763 4.63079 48.8697 4.63079C56.763 4.63079 63.1598 12.3802 63.1598 21.936V45.5856M34.5795 21.936C34.5795 12.3802 28.1835 4.63079 20.2901 4.63079C12.3967 4.63079 6 12.3802 6 21.936V45.5856M34.5795 21.936L34.5802 45.5856M109.864 3.24331C109.864 12.629 102.254 20.2344 92.8725 20.2344C83.4912 20.2344 75.8814 12.6246 75.8814 3.24331M92.8667 45.5856V21.936M152.082 21.9359C152.082 12.3801 158.479 4.63072 166.373 4.63072C174.266 4.63072 180.663 12.3801 180.663 21.9359V45.5855M152.082 21.9359C152.082 12.3801 145.686 4.63072 137.793 4.63072C129.9 4.63072 123.503 12.3801 123.503 21.9359V45.5855M152.082 21.9359L152.083 45.5855M227.36 3.24329C227.36 12.6289 219.75 20.2343 210.369 20.2343C200.988 20.2343 193.378 12.6246 193.378 3.24329M210.368 45.5856V21.936" stroke="#EA4122" stroke-width="8.72679" stroke-miterlimit="10"/>
<path d="M7 58.7096C3.64 58.7096 1.648 60.9416 1.648 64.6376C1.648 68.2136 3.472 70.3256 6.544 70.3256C7.528 70.3256 8.584 70.1576 9.496 69.8696L9.808 67.3976L9.568 67.2056C8.728 67.5896 7.912 67.8056 7.168 67.8056C5.56 67.8056 4.672 66.5816 4.672 64.3496C4.672 62.3816 5.512 61.3016 6.976 61.3016C7.696 61.3016 8.416 61.5656 9.16 61.9736L9.424 61.8536L9.952 59.3096C9.136 58.9256 8.032 58.7096 7 58.7096ZM21.0243 64.5176C21.0963 64.0136 21.1443 63.5576 21.1443 63.1256C21.1443 60.3656 19.5363 58.7096 16.6803 58.7096C13.3443 58.7096 11.2563 60.9416 11.2563 64.5416C11.2563 68.1416 13.3683 70.3256 16.8963 70.3256C18.0003 70.3256 19.1523 70.0856 20.3283 69.6536L20.8083 67.2776L20.5443 67.1096C19.3443 67.6616 18.2403 67.9496 17.2323 67.9496C15.3603 67.9496 14.3283 66.9656 14.1842 64.9496L20.6643 64.9016L21.0243 64.5176ZM18.3123 63.1016L14.2563 63.1976C14.5443 61.6856 15.3843 60.8216 16.6562 60.8216C17.7603 60.8216 18.3603 61.4936 18.3603 62.7656L18.3123 63.1016ZM22.9851 70.0856H25.3611L25.6251 66.2936L25.9851 62.9816H26.1531L28.2891 68.9576H30.4011L32.8011 62.9816H32.9931L33.3051 66.6296L33.4251 70.0856H35.9451L34.9611 58.9496H31.8411L31.3131 60.6296L29.5851 65.4056H29.4171L27.8331 60.5816L27.3531 58.9496H24.1851L22.9851 70.0856ZM47.4383 64.5176C47.5103 64.0136 47.5583 63.5576 47.5583 63.1256C47.5583 60.3656 45.9503 58.7096 43.0943 58.7096C39.7583 58.7096 37.6703 60.9416 37.6703 64.5416C37.6703 68.1416 39.7823 70.3256 43.3103 70.3256C44.4143 70.3256 45.5663 70.0856 46.7423 69.6536L47.2223 67.2776L46.9583 67.1096C45.7583 67.6616 44.6543 67.9496 43.6463 67.9496C41.7743 67.9496 40.7423 66.9656 40.5983 64.9496L47.0783 64.9016L47.4383 64.5176ZM44.7263 63.1016L40.6703 63.1976C40.9583 61.6856 41.7983 60.8216 43.0703 60.8216C44.1743 60.8216 44.7743 61.4936 44.7743 62.7656L44.7263 63.1016ZM57.3192 53.8376H57.0072C56.5992 55.0376 56.0712 55.4216 54.9912 55.4216C53.8632 55.4216 53.3112 54.9896 52.9032 53.8376H52.5672L50.9592 54.9416C51.6792 56.4776 53.0472 57.2936 54.8952 57.2936C56.7672 57.2936 58.2792 56.4296 58.9272 54.9416L57.3192 53.8376ZM49.9032 70.0856H52.9992L56.8152 63.0536H56.9832V65.6936L56.8392 70.0856H60.0072L59.8392 65.0936L60.0072 58.9256H56.8392L53.1432 65.7656H52.9512L53.0712 58.8536L49.9032 58.9976L50.0712 65.4776L49.9032 70.0856ZM73.0624 58.9256H69.9424L70.0144 63.3656H68.0944L66.0304 63.3416L66.1264 58.9256H62.9824L63.1024 65.4776L62.9344 70.0856H66.1264L66.0064 65.7416L67.9504 65.6936L70.0384 65.7176L69.8944 70.0856H73.0624L72.9424 65.1656L73.0624 58.9256ZM80.7126 58.7096C77.2086 58.7096 75.3126 60.8456 75.3126 64.7336C75.3126 68.3336 77.0886 70.3256 80.3526 70.3256C83.8566 70.3256 85.7526 68.1896 85.7526 64.3016C85.7526 60.6776 83.9766 58.7096 80.7126 58.7096ZM80.4966 60.8696C82.0566 60.8696 82.7526 62.0216 82.7526 64.9496C82.7526 67.2776 82.0806 68.1896 80.5686 68.1896C78.9846 68.1896 78.3126 67.0856 78.3126 64.1096C78.3126 61.8296 78.9606 60.8696 80.4966 60.8696ZM96.7977 64.5176C96.8697 64.0136 96.9177 63.5576 96.9177 63.1256C96.9177 60.3656 95.3097 58.7096 92.4537 58.7096C89.1177 58.7096 87.0297 60.9416 87.0297 64.5416C87.0297 68.1416 89.1417 70.3256 92.6697 70.3256C93.7737 70.3256 94.9257 70.0856 96.1017 69.6536L96.5817 67.2776L96.3177 67.1096C95.1177 67.6616 94.0137 67.9496 93.0057 67.9496C91.1337 67.9496 90.1017 66.9656 89.9577 64.9496L96.4377 64.9016L96.7977 64.5176ZM94.0857 63.1016L90.0297 63.1976C90.3177 61.6856 91.1577 60.8216 92.4297 60.8216C93.5337 60.8216 94.1337 61.4936 94.1337 62.7656L94.0857 63.1016ZM102.871 70.0856H106.039L105.943 65.1656L106.063 58.8776L102.919 59.1416L103.015 65.4776L102.871 70.0856ZM112.807 58.9256H109.495L108.919 60.0776L106.087 64.0376V64.2536C107.167 66.2936 108.391 68.2376 109.759 70.1816L110.095 70.3256C111.103 70.2056 112.063 70.1096 113.047 69.8936V69.5576C111.679 67.7096 110.335 65.8616 109.135 63.9656L112.807 58.9256ZM118.675 58.7096C117.139 58.7096 115.507 59.1656 114.115 60.0536L114.475 62.1656L114.715 62.3096C116.083 61.3496 117.139 60.9176 118.147 60.9176C119.179 60.9176 119.683 61.4216 119.683 62.4776V63.4616L116.011 64.1576C114.379 64.4696 113.539 65.3576 113.539 66.9656C113.539 69.0056 114.931 70.2776 117.235 70.3016C118.147 69.9416 118.963 69.3176 119.707 68.5256H119.875C120.091 69.5816 120.763 70.1816 121.723 70.2776C122.443 70.2056 122.995 69.9896 123.475 69.6776L123.763 67.9976L123.523 67.8056C123.235 67.8776 123.067 67.9016 122.899 67.9016C122.491 67.9016 122.347 67.7096 122.347 67.1816C122.347 66.4136 122.611 62.6696 122.611 61.8536C122.611 59.8616 121.123 58.7096 118.675 58.7096ZM119.659 65.0696L119.611 66.8456C118.963 67.5416 118.315 67.9496 117.643 67.9496C116.851 67.9496 116.371 67.4696 116.371 66.6296C116.371 66.0056 116.611 65.7416 117.115 65.6216L119.659 65.0696ZM139.522 64.4456C139.522 61.0136 137.578 59.1176 133.69 58.7816L133.738 54.5096L130.618 54.7496L130.666 58.7816C126.754 59.1896 124.81 61.1576 124.81 64.6136C124.81 68.0696 126.754 69.9896 130.666 70.3256L130.642 74.5256H133.69L133.666 70.3016C137.53 69.8696 139.522 67.9016 139.522 64.4456ZM127.786 64.4696C127.786 62.3576 128.602 61.3016 130.666 60.9896L130.714 65.4776L130.69 68.1896C128.65 67.8296 127.786 66.6776 127.786 64.4696ZM133.642 68.1656L133.618 65.0936L133.666 60.9896C135.706 61.3016 136.522 62.3816 136.522 64.4936C136.522 66.6776 135.658 67.8296 133.642 68.1656ZM150.446 64.5176C150.518 64.0136 150.566 63.5576 150.566 63.1256C150.566 60.3656 148.958 58.7096 146.102 58.7096C142.766 58.7096 140.678 60.9416 140.678 64.5416C140.678 68.1416 142.79 70.3256 146.318 70.3256C147.422 70.3256 148.574 70.0856 149.75 69.6536L150.23 67.2776L149.966 67.1096C148.766 67.6616 147.662 67.9496 146.654 67.9496C144.782 67.9496 143.75 66.9656 143.606 64.9496L150.086 64.9016L150.446 64.5176ZM147.734 63.1016L143.678 63.1976C143.966 61.6856 144.806 60.8216 146.078 60.8216C147.182 60.8216 147.782 61.4936 147.782 62.7656L147.734 63.1016Z" fill="#E73F21"/>
</svg>
