<?xml version="1.0" encoding="utf-8"?>
<!-- Generator: Adobe Illustrator 23.0.2, SVG Export Plug-In . SVG Version: 6.00 Build 0)  -->
<svg version="1.1" id="Layer_1" xmlns="http://www.w3.org/2000/svg" xmlns:xlink="http://www.w3.org/1999/xlink" x="0px" y="0px"
	 viewBox="0 0 187.3 186.7" style="enable-background:new 0 0 187.3 186.7;" xml:space="preserve">
<style type="text/css">
	.st0{fill:#FFFFFF;}
	.st1{fill:none;stroke:#2F2F2F;stroke-width:12;stroke-linejoin:round;stroke-miterlimit:10;}
	.st2{fill:#F92814;}
	.st3{fill:#FF583E;}
	.st4{fill:#351B11;stroke:#351B11;stroke-width:8;stroke-miterlimit:10;}
	.st5{fill:#FFCF00;}
	.st6{fill:#FFBC00;}
</style>
<polygon class="st0" points="49,45.6 20,49.6 38.7,172.6 167.2,154.6 152.5,35.8 "/>
<polyline class="st1" points="56.5,33.4 80.3,8.9 113.8,28.2 "/>
<polygon class="st2" points="173.2,150.2 101.1,156.2 92.2,92.9 99.7,86.3 162.8,107.8 "/>
<polygon class="st3" points="173.2,150.2 101.1,156.2 36.5,160.5 32.8,92.9 73.7,110 92.2,92.9 99.7,86.3 162.8,107.8 "/>
<path class="st4" d="M165.6,21.1L7.3,37.2l14.5,142.3l158.3-16L165.6,21.1z M45.8,153.4l-9.4-94.4L141.6,48l9.5,94.4L45.8,153.4z"/>
<path class="st5" d="M138.3,72.1c0,8.2-6.7,15.6-15.6,15.6s-15.6-6.7-15.6-15.6c0-8.2,6.7-15.6,15.6-15.6
	C131.6,56.5,138.3,63.9,138.3,72.1z"/>
<path class="st6" d="M138.3,72.1c0,8.2-6.7,15.6-15.6,15.6V56.5C131.6,56.5,138.3,63.9,138.3,72.1z"/>
</svg>
