<?xml version="1.0" encoding="utf-8"?>
<!-- Generator: Adobe Illustrator 23.0.2, SVG Export Plug-In . SVG Version: 6.00 Build 0)  -->
<svg version="1.1" id="Layer_1" xmlns="http://www.w3.org/2000/svg" xmlns:xlink="http://www.w3.org/1999/xlink" x="0px" y="0px"
	 viewBox="0 0 23.8 23.2" style="enable-background:new 0 0 23.8 23.2;" xml:space="preserve">
<style type="text/css">
	.st0{fill:none;stroke:#2F2F2F;stroke-width:1.2;stroke-linejoin:round;stroke-miterlimit:10;}
	.st1{fill:#F92814;}
	.st2{fill:#FF583E;}
	.st3{fill:#351B11;}
	.st4{fill:#FFCF00;}
	.st5{fill:#FFBC00;}
</style>
<polyline class="st0" points="6.9,3.9 10.1,0.6 14.6,3.2 "/>
<polygon class="st1" points="22.6,19 12.9,19.8 11.7,11.3 12.7,10.4 21.2,13.3 "/>
<polygon class="st2" points="22.6,19 12.9,19.8 4.2,20.4 3.7,11.3 9.2,13.6 11.7,11.3 12.7,10.4 21.2,13.3 "/>
<path class="st3" d="M21.8,1.4L0,3.6l2,19.6L23.8,21L21.8,1.4z M5.3,19.6L4,6.6l14.5-1.5l1.3,13L5.3,19.6z"/>
<path class="st4" d="M17.9,8.5c0,1.1-0.9,2.1-2.1,2.1s-2.1-0.9-2.1-2.1c0-1.1,0.9-2.1,2.1-2.1S17.9,7.4,17.9,8.5z"/>
<path class="st5" d="M17.9,8.5c0,1.1-0.9,2.1-2.1,2.1V6.4C17,6.4,17.9,7.4,17.9,8.5z"/>
</svg>
